ply
format ascii 1.0
comment PCL generated
element vertex 1452
property float x
property float y
property float z
property uchar red
property uchar green
property uchar blue
property uchar alpha
element camera 1
property float view_px
property float view_py
property float view_pz
property float x_axisx
property float x_axisy
property float x_axisz
property float y_axisx
property float y_axisy
property float y_axisz
property float z_axisx
property float z_axisy
property float z_axisz
property float focal
property float scalex
property float scaley
property float centerx
property float centery
property int viewportx
property int viewporty
property float k1
property float k2
end_header
0 0 0.19399738 255 255 255 255
0 0 0.22999093 255 255 255 255
0 0 0.045238901 255 255 255 255
0 0 0.42275551 255 255 255 255
0 0 0.21752083 255 255 255 255
0 0 0.80668199 255 255 255 255
0 0 0.99141121 255 255 255 255
0 0 0.54896361 255 255 255 255
0 0 0.26509556 255 255 255 255
0 0 0.9274137 255 255 255 255
0 0 0.2532663 255 255 255 255
0 0 0.50897616 255 255 255 255
0 0 0.23725823 255 255 255 255
0 0 0.22153166 255 255 255 255
0 0 0.86973512 255 255 255 255
0 0 0.46570131 255 255 255 255
0 0 0.17433025 255 255 255 255
0 0 0.51001841 255 255 255 255
0 0 0.20595331 255 255 255 255
0 0 0.50373948 255 255 255 255
0 0 0.77344865 255 255 255 255
0 0 0.24344511 255 255 255 255
0 0 0.22947526 255 255 255 255
0 0 0.28412947 255 255 255 255
0 0 0.94202983 255 255 255 255
0 0 0.82914752 255 255 255 255
0 0 0.40137336 255 255 255 255
0 0 0.48649248 255 255 255 255
0 0 0.4591465 255 255 255 255
0 0 0.88624829 255 255 255 255
0 0 0.80092466 255 255 255 255
0 0 0.65314388 255 255 255 255
0 0 0.11623923 255 255 255 255
0 0 0.84616357 255 255 255 255
0 0 0.075899407 255 255 255 255
0 0 0.33376005 255 255 255 255
0 0 0.65284556 255 255 255 255
0 0 0.067310624 255 255 255 255
0 0 0.88272363 255 255 255 255
0 0 0.91794115 255 255 255 255
0 0 0.99472433 255 255 255 255
0 0 0.13598996 255 255 255 255
0 0 0.42691731 255 255 255 255
0 0 0.23198256 255 255 255 255
0 0 0.35752162 255 255 255 255
0 0 0.29665241 255 255 255 255
0 0 0.69768387 255 255 255 255
0 0 0.53185189 255 255 255 255
0 0 0.80667078 255 255 255 255
0 0 0.90363717 255 255 255 255
0 0 0.035591356 255 255 255 255
0 0 0.58011943 255 255 255 255
0 0 0.14708231 255 255 255 255
0 0 0.26506662 255 255 255 255
0 0 0.86424893 255 255 255 255
0 0 0.08911217 255 255 255 255
0 0 0.094214112 255 255 255 255
0 0 0.26562229 255 255 255 255
0 0 0.57560462 255 255 255 255
0 0 0.55336058 255 255 255 255
0 0 0.15187059 255 255 255 255
0 0 0.37652931 255 255 255 255
0 0 0.20650449 255 255 255 255
0 0 0.26810983 255 255 255 255
0 0 0.22269288 255 255 255 255
0 0 0.28240392 255 255 255 255
0 0 0.60186988 255 255 255 255
0 0 0.87553847 255 255 255 255
0 0 0.34971452 255 255 255 255
0 0 0.48459354 255 255 255 255
0 0 0.79347956 255 255 255 255
0 0 0.34443888 255 255 255 255
0 0 0.62058347 255 255 255 255
0 0 0.22039689 255 255 255 255
0 0 0.57642144 255 255 255 255
0 0 0.97810513 255 255 255 255
0 0 0.51704931 255 255 255 255
0 0 0.27410531 255 255 255 255
0 0 0.50995702 255 255 255 255
0 0 0.3237201 255 255 255 255
0 0 0.1777425 255 255 255 255
0 0 0.54554838 255 255 255 255
0 0 0.90383953 255 255 255 255
0 0 0.32482481 255 255 255 255
0 0 0.810615 255 255 255 255
0 0 0.76808846 255 255 255 255
0 0 0.41393697 255 255 255 255
0 0 0.90482908 255 255 255 255
0 0 0.03371077 255 255 255 255
0 0 0.98954165 255 255 255 255
0 0 0.4581897 255 255 255 255
0 0 0.18558136 255 255 255 255
0 0 0.36607093 255 255 255 255
0 0 0.66469419 255 255 255 255
0 0 0.45369118 255 255 255 255
0 0 0.58876383 255 255 255 255
0 0 0.94709814 255 255 255 255
0 0 0.055561054 255 255 255 255
0 0 0.46430227 255 255 255 255
0 0 0.29681265 255 255 255 255
0 0 0.54015458 255 255 255 255
0 0 0.25778186 255 255 255 255
0 0 0.6412515 255 255 255 255
0 0 0.1607381 255 255 255 255
0 0 0.47817877 255 255 255 255
0 0 0.21767294 255 255 255 255
0 0 0.13884322 255 255 255 255
0 0 0.99522805 255 255 255 255
0 0 0.49177825 255 255 255 255
0 0 0.64880025 255 255 255 255
0 0 0.31894815 255 255 255 255
0 0 0.66952074 255 255 255 255
0 0 0.19434859 255 255 255 255
0 0 0.22278772 255 255 255 255
0 0 0.99434555 255 255 255 255
0 0 0.004963567 255 255 255 255
0 0 0.9908762 255 255 255 255
0 0 0.40828255 255 255 255 255
0 0 0.90979266 255 255 255 255
0 0 0.024586972 255 255 255 255
0 0 0.39782417 255 255 255 255
0 0.19399738 0 255 255 255 255
0 0.22999093 0 255 255 255 255
0 0.045238901 0 255 255 255 255
0 0.42275551 0 255 255 255 255
0 0.21752083 0 255 255 255 255
0 0.80668199 0 255 255 255 255
0 0.99141121 0 255 255 255 255
0 0.54896361 0 255 255 255 255
0 0.26509556 0 255 255 255 255
0 0.9274137 0 255 255 255 255
0 0.2532663 0 255 255 255 255
0 0.50897616 0 255 255 255 255
0 0.23725823 0 255 255 255 255
0 0.22153166 0 255 255 255 255
0 0.86973512 0 255 255 255 255
0 0.46570131 0 255 255 255 255
0 0.17433025 0 255 255 255 255
0 0.51001841 0 255 255 255 255
0 0.20595331 0 255 255 255 255
0 0.50373948 0 255 255 255 255
0 0.77344865 0 255 255 255 255
0 0.24344511 0 255 255 255 255
0 0.22947526 0 255 255 255 255
0 0.28412947 0 255 255 255 255
0 0.94202983 0 255 255 255 255
0 0.82914752 0 255 255 255 255
0 0.40137336 0 255 255 255 255
0 0.48649248 0 255 255 255 255
0 0.4591465 0 255 255 255 255
0 0.88624829 0 255 255 255 255
0 0.80092466 0 255 255 255 255
0 0.65314388 0 255 255 255 255
0 0.11623923 0 255 255 255 255
0 0.84616357 0 255 255 255 255
0 0.075899407 0 255 255 255 255
0 0.33376005 0 255 255 255 255
0 0.65284556 0 255 255 255 255
0 0.067310624 0 255 255 255 255
0 0.88272363 0 255 255 255 255
0 0.91794115 0 255 255 255 255
0 0.99472433 0 255 255 255 255
0 0.13598996 0 255 255 255 255
0 0.42691731 0 255 255 255 255
0 0.23198256 0 255 255 255 255
0 0.35752162 0 255 255 255 255
0 0.29665241 0 255 255 255 255
0 0.69768387 0 255 255 255 255
0 0.53185189 0 255 255 255 255
0 0.80667078 0 255 255 255 255
0 0.90363717 0 255 255 255 255
0 0.035591356 0 255 255 255 255
0 0.58011943 0 255 255 255 255
0 0.14708231 0 255 255 255 255
0 0.26506662 0 255 255 255 255
0 0.86424893 0 255 255 255 255
0 0.08911217 0 255 255 255 255
0 0.094214112 0 255 255 255 255
0 0.26562229 0 255 255 255 255
0 0.57560462 0 255 255 255 255
0 0.55336058 0 255 255 255 255
0 0.15187059 0 255 255 255 255
0 0.37652931 0 255 255 255 255
0 0.20650449 0 255 255 255 255
0 0.26810983 0 255 255 255 255
0 0.22269288 0 255 255 255 255
0 0.28240392 0 255 255 255 255
0 0.60186988 0 255 255 255 255
0 0.87553847 0 255 255 255 255
0 0.34971452 0 255 255 255 255
0 0.48459354 0 255 255 255 255
0 0.79347956 0 255 255 255 255
0 0.34443888 0 255 255 255 255
0 0.62058347 0 255 255 255 255
0 0.22039689 0 255 255 255 255
0 0.57642144 0 255 255 255 255
0 0.97810513 0 255 255 255 255
0 0.51704931 0 255 255 255 255
0 0.27410531 0 255 255 255 255
0 0.50995702 0 255 255 255 255
0 0.3237201 0 255 255 255 255
0 0.1777425 0 255 255 255 255
0 0.54554838 0 255 255 255 255
0 0.90383953 0 255 255 255 255
0 0.32482481 0 255 255 255 255
0 0.810615 0 255 255 255 255
0 0.76808846 0 255 255 255 255
0 0.41393697 0 255 255 255 255
0 0.90482908 0 255 255 255 255
0 0.03371077 0 255 255 255 255
0 0.98954165 0 255 255 255 255
0 0.4581897 0 255 255 255 255
0 0.18558136 0 255 255 255 255
0 0.36607093 0 255 255 255 255
0 0.66469419 0 255 255 255 255
0 0.45369118 0 255 255 255 255
0 0.58876383 0 255 255 255 255
0 0.94709814 0 255 255 255 255
0 0.055561054 0 255 255 255 255
0 0.46430227 0 255 255 255 255
0 0.29681265 0 255 255 255 255
0 0.54015458 0 255 255 255 255
0 0.25778186 0 255 255 255 255
0 0.6412515 0 255 255 255 255
0 0.1607381 0 255 255 255 255
0 0.47817877 0 255 255 255 255
0 0.21767294 0 255 255 255 255
0 0.13884322 0 255 255 255 255
0 0.99522805 0 255 255 255 255
0 0.49177825 0 255 255 255 255
0 0.64880025 0 255 255 255 255
0 0.31894815 0 255 255 255 255
0 0.66952074 0 255 255 255 255
0 0.19434859 0 255 255 255 255
0 0.22278772 0 255 255 255 255
0 0.99434555 0 255 255 255 255
0 0.004963567 0 255 255 255 255
0 0.9908762 0 255 255 255 255
0 0.40828255 0 255 255 255 255
0 0.90979266 0 255 255 255 255
0 0.024586972 0 255 255 255 255
0 0.39782417 0 255 255 255 255
0 1 0.19399738 255 255 255 255
0 1 0.22999093 255 255 255 255
0 1 0.045238901 255 255 255 255
0 1 0.42275551 255 255 255 255
0 1 0.21752083 255 255 255 255
0 1 0.80668199 255 255 255 255
0 1 0.99141121 255 255 255 255
0 1 0.54896361 255 255 255 255
0 1 0.26509556 255 255 255 255
0 1 0.9274137 255 255 255 255
0 1 0.2532663 255 255 255 255
0 1 0.50897616 255 255 255 255
0 1 0.23725823 255 255 255 255
0 1 0.22153166 255 255 255 255
0 1 0.86973512 255 255 255 255
0 1 0.46570131 255 255 255 255
0 1 0.17433025 255 255 255 255
0 1 0.51001841 255 255 255 255
0 1 0.20595331 255 255 255 255
0 1 0.50373948 255 255 255 255
0 1 0.77344865 255 255 255 255
0 1 0.24344511 255 255 255 255
0 1 0.22947526 255 255 255 255
0 1 0.28412947 255 255 255 255
0 1 0.94202983 255 255 255 255
0 1 0.82914752 255 255 255 255
0 1 0.40137336 255 255 255 255
0 1 0.48649248 255 255 255 255
0 1 0.4591465 255 255 255 255
0 1 0.88624829 255 255 255 255
0 1 0.80092466 255 255 255 255
0 1 0.65314388 255 255 255 255
0 1 0.11623923 255 255 255 255
0 1 0.84616357 255 255 255 255
0 1 0.075899407 255 255 255 255
0 1 0.33376005 255 255 255 255
0 1 0.65284556 255 255 255 255
0 1 0.067310624 255 255 255 255
0 1 0.88272363 255 255 255 255
0 1 0.91794115 255 255 255 255
0 1 0.99472433 255 255 255 255
0 1 0.13598996 255 255 255 255
0 1 0.42691731 255 255 255 255
0 1 0.23198256 255 255 255 255
0 1 0.35752162 255 255 255 255
0 1 0.29665241 255 255 255 255
0 1 0.69768387 255 255 255 255
0 1 0.53185189 255 255 255 255
0 1 0.80667078 255 255 255 255
0 1 0.90363717 255 255 255 255
0 1 0.035591356 255 255 255 255
0 1 0.58011943 255 255 255 255
0 1 0.14708231 255 255 255 255
0 1 0.26506662 255 255 255 255
0 1 0.86424893 255 255 255 255
0 1 0.08911217 255 255 255 255
0 1 0.094214112 255 255 255 255
0 1 0.26562229 255 255 255 255
0 1 0.57560462 255 255 255 255
0 1 0.55336058 255 255 255 255
0 1 0.15187059 255 255 255 255
0 1 0.37652931 255 255 255 255
0 1 0.20650449 255 255 255 255
0 1 0.26810983 255 255 255 255
0 1 0.22269288 255 255 255 255
0 1 0.28240392 255 255 255 255
0 1 0.60186988 255 255 255 255
0 1 0.87553847 255 255 255 255
0 1 0.34971452 255 255 255 255
0 1 0.48459354 255 255 255 255
0 1 0.79347956 255 255 255 255
0 1 0.34443888 255 255 255 255
0 1 0.62058347 255 255 255 255
0 1 0.22039689 255 255 255 255
0 1 0.57642144 255 255 255 255
0 1 0.97810513 255 255 255 255
0 1 0.51704931 255 255 255 255
0 1 0.27410531 255 255 255 255
0 1 0.50995702 255 255 255 255
0 1 0.3237201 255 255 255 255
0 1 0.1777425 255 255 255 255
0 1 0.54554838 255 255 255 255
0 1 0.90383953 255 255 255 255
0 1 0.32482481 255 255 255 255
0 1 0.810615 255 255 255 255
0 1 0.76808846 255 255 255 255
0 1 0.41393697 255 255 255 255
0 1 0.90482908 255 255 255 255
0 1 0.03371077 255 255 255 255
0 1 0.98954165 255 255 255 255
0 1 0.4581897 255 255 255 255
0 1 0.18558136 255 255 255 255
0 1 0.36607093 255 255 255 255
0 1 0.66469419 255 255 255 255
0 1 0.45369118 255 255 255 255
0 1 0.58876383 255 255 255 255
0 1 0.94709814 255 255 255 255
0 1 0.055561054 255 255 255 255
0 1 0.46430227 255 255 255 255
0 1 0.29681265 255 255 255 255
0 1 0.54015458 255 255 255 255
0 1 0.25778186 255 255 255 255
0 1 0.6412515 255 255 255 255
0 1 0.1607381 255 255 255 255
0 1 0.47817877 255 255 255 255
0 1 0.21767294 255 255 255 255
0 1 0.13884322 255 255 255 255
0 1 0.99522805 255 255 255 255
0 1 0.49177825 255 255 255 255
0 1 0.64880025 255 255 255 255
0 1 0.31894815 255 255 255 255
0 1 0.66952074 255 255 255 255
0 1 0.19434859 255 255 255 255
0 1 0.22278772 255 255 255 255
0 1 0.99434555 255 255 255 255
0 1 0.004963567 255 255 255 255
0 1 0.9908762 255 255 255 255
0 1 0.40828255 255 255 255 255
0 1 0.90979266 255 255 255 255
0 1 0.024586972 255 255 255 255
0 1 0.39782417 255 255 255 255
0 0.19399738 1 255 255 255 255
0 0.22999093 1 255 255 255 255
0 0.045238901 1 255 255 255 255
0 0.42275551 1 255 255 255 255
0 0.21752083 1 255 255 255 255
0 0.80668199 1 255 255 255 255
0 0.99141121 1 255 255 255 255
0 0.54896361 1 255 255 255 255
0 0.26509556 1 255 255 255 255
0 0.9274137 1 255 255 255 255
0 0.2532663 1 255 255 255 255
0 0.50897616 1 255 255 255 255
0 0.23725823 1 255 255 255 255
0 0.22153166 1 255 255 255 255
0 0.86973512 1 255 255 255 255
0 0.46570131 1 255 255 255 255
0 0.17433025 1 255 255 255 255
0 0.51001841 1 255 255 255 255
0 0.20595331 1 255 255 255 255
0 0.50373948 1 255 255 255 255
0 0.77344865 1 255 255 255 255
0 0.24344511 1 255 255 255 255
0 0.22947526 1 255 255 255 255
0 0.28412947 1 255 255 255 255
0 0.94202983 1 255 255 255 255
0 0.82914752 1 255 255 255 255
0 0.40137336 1 255 255 255 255
0 0.48649248 1 255 255 255 255
0 0.4591465 1 255 255 255 255
0 0.88624829 1 255 255 255 255
0 0.80092466 1 255 255 255 255
0 0.65314388 1 255 255 255 255
0 0.11623923 1 255 255 255 255
0 0.84616357 1 255 255 255 255
0 0.075899407 1 255 255 255 255
0 0.33376005 1 255 255 255 255
0 0.65284556 1 255 255 255 255
0 0.067310624 1 255 255 255 255
0 0.88272363 1 255 255 255 255
0 0.91794115 1 255 255 255 255
0 0.99472433 1 255 255 255 255
0 0.13598996 1 255 255 255 255
0 0.42691731 1 255 255 255 255
0 0.23198256 1 255 255 255 255
0 0.35752162 1 255 255 255 255
0 0.29665241 1 255 255 255 255
0 0.69768387 1 255 255 255 255
0 0.53185189 1 255 255 255 255
0 0.80667078 1 255 255 255 255
0 0.90363717 1 255 255 255 255
0 0.035591356 1 255 255 255 255
0 0.58011943 1 255 255 255 255
0 0.14708231 1 255 255 255 255
0 0.26506662 1 255 255 255 255
0 0.86424893 1 255 255 255 255
0 0.08911217 1 255 255 255 255
0 0.094214112 1 255 255 255 255
0 0.26562229 1 255 255 255 255
0 0.57560462 1 255 255 255 255
0 0.55336058 1 255 255 255 255
0 0.15187059 1 255 255 255 255
0 0.37652931 1 255 255 255 255
0 0.20650449 1 255 255 255 255
0 0.26810983 1 255 255 255 255
0 0.22269288 1 255 255 255 255
0 0.28240392 1 255 255 255 255
0 0.60186988 1 255 255 255 255
0 0.87553847 1 255 255 255 255
0 0.34971452 1 255 255 255 255
0 0.48459354 1 255 255 255 255
0 0.79347956 1 255 255 255 255
0 0.34443888 1 255 255 255 255
0 0.62058347 1 255 255 255 255
0 0.22039689 1 255 255 255 255
0 0.57642144 1 255 255 255 255
0 0.97810513 1 255 255 255 255
0 0.51704931 1 255 255 255 255
0 0.27410531 1 255 255 255 255
0 0.50995702 1 255 255 255 255
0 0.3237201 1 255 255 255 255
0 0.1777425 1 255 255 255 255
0 0.54554838 1 255 255 255 255
0 0.90383953 1 255 255 255 255
0 0.32482481 1 255 255 255 255
0 0.810615 1 255 255 255 255
0 0.76808846 1 255 255 255 255
0 0.41393697 1 255 255 255 255
0 0.90482908 1 255 255 255 255
0 0.03371077 1 255 255 255 255
0 0.98954165 1 255 255 255 255
0 0.4581897 1 255 255 255 255
0 0.18558136 1 255 255 255 255
0 0.36607093 1 255 255 255 255
0 0.66469419 1 255 255 255 255
0 0.45369118 1 255 255 255 255
0 0.58876383 1 255 255 255 255
0 0.94709814 1 255 255 255 255
0 0.055561054 1 255 255 255 255
0 0.46430227 1 255 255 255 255
0 0.29681265 1 255 255 255 255
0 0.54015458 1 255 255 255 255
0 0.25778186 1 255 255 255 255
0 0.6412515 1 255 255 255 255
0 0.1607381 1 255 255 255 255
0 0.47817877 1 255 255 255 255
0 0.21767294 1 255 255 255 255
0 0.13884322 1 255 255 255 255
0 0.99522805 1 255 255 255 255
0 0.49177825 1 255 255 255 255
0 0.64880025 1 255 255 255 255
0 0.31894815 1 255 255 255 255
0 0.66952074 1 255 255 255 255
0 0.19434859 1 255 255 255 255
0 0.22278772 1 255 255 255 255
0 0.99434555 1 255 255 255 255
0 0.004963567 1 255 255 255 255
0 0.9908762 1 255 255 255 255
0 0.40828255 1 255 255 255 255
0 0.90979266 1 255 255 255 255
0 0.024586972 1 255 255 255 255
0 0.39782417 1 255 255 255 255
1 0 0.19399738 255 255 255 255
1 0 0.22999093 255 255 255 255
1 0 0.045238901 255 255 255 255
1 0 0.42275551 255 255 255 255
1 0 0.21752083 255 255 255 255
1 0 0.80668199 255 255 255 255
1 0 0.99141121 255 255 255 255
1 0 0.54896361 255 255 255 255
1 0 0.26509556 255 255 255 255
1 0 0.9274137 255 255 255 255
1 0 0.2532663 255 255 255 255
1 0 0.50897616 255 255 255 255
1 0 0.23725823 255 255 255 255
1 0 0.22153166 255 255 255 255
1 0 0.86973512 255 255 255 255
1 0 0.46570131 255 255 255 255
1 0 0.17433025 255 255 255 255
1 0 0.51001841 255 255 255 255
1 0 0.20595331 255 255 255 255
1 0 0.50373948 255 255 255 255
1 0 0.77344865 255 255 255 255
1 0 0.24344511 255 255 255 255
1 0 0.22947526 255 255 255 255
1 0 0.28412947 255 255 255 255
1 0 0.94202983 255 255 255 255
1 0 0.82914752 255 255 255 255
1 0 0.40137336 255 255 255 255
1 0 0.48649248 255 255 255 255
1 0 0.4591465 255 255 255 255
1 0 0.88624829 255 255 255 255
1 0 0.80092466 255 255 255 255
1 0 0.65314388 255 255 255 255
1 0 0.11623923 255 255 255 255
1 0 0.84616357 255 255 255 255
1 0 0.075899407 255 255 255 255
1 0 0.33376005 255 255 255 255
1 0 0.65284556 255 255 255 255
1 0 0.067310624 255 255 255 255
1 0 0.88272363 255 255 255 255
1 0 0.91794115 255 255 255 255
1 0 0.99472433 255 255 255 255
1 0 0.13598996 255 255 255 255
1 0 0.42691731 255 255 255 255
1 0 0.23198256 255 255 255 255
1 0 0.35752162 255 255 255 255
1 0 0.29665241 255 255 255 255
1 0 0.69768387 255 255 255 255
1 0 0.53185189 255 255 255 255
1 0 0.80667078 255 255 255 255
1 0 0.90363717 255 255 255 255
1 0 0.035591356 255 255 255 255
1 0 0.58011943 255 255 255 255
1 0 0.14708231 255 255 255 255
1 0 0.26506662 255 255 255 255
1 0 0.86424893 255 255 255 255
1 0 0.08911217 255 255 255 255
1 0 0.094214112 255 255 255 255
1 0 0.26562229 255 255 255 255
1 0 0.57560462 255 255 255 255
1 0 0.55336058 255 255 255 255
1 0 0.15187059 255 255 255 255
1 0 0.37652931 255 255 255 255
1 0 0.20650449 255 255 255 255
1 0 0.26810983 255 255 255 255
1 0 0.22269288 255 255 255 255
1 0 0.28240392 255 255 255 255
1 0 0.60186988 255 255 255 255
1 0 0.87553847 255 255 255 255
1 0 0.34971452 255 255 255 255
1 0 0.48459354 255 255 255 255
1 0 0.79347956 255 255 255 255
1 0 0.34443888 255 255 255 255
1 0 0.62058347 255 255 255 255
1 0 0.22039689 255 255 255 255
1 0 0.57642144 255 255 255 255
1 0 0.97810513 255 255 255 255
1 0 0.51704931 255 255 255 255
1 0 0.27410531 255 255 255 255
1 0 0.50995702 255 255 255 255
1 0 0.3237201 255 255 255 255
1 0 0.1777425 255 255 255 255
1 0 0.54554838 255 255 255 255
1 0 0.90383953 255 255 255 255
1 0 0.32482481 255 255 255 255
1 0 0.810615 255 255 255 255
1 0 0.76808846 255 255 255 255
1 0 0.41393697 255 255 255 255
1 0 0.90482908 255 255 255 255
1 0 0.03371077 255 255 255 255
1 0 0.98954165 255 255 255 255
1 0 0.4581897 255 255 255 255
1 0 0.18558136 255 255 255 255
1 0 0.36607093 255 255 255 255
1 0 0.66469419 255 255 255 255
1 0 0.45369118 255 255 255 255
1 0 0.58876383 255 255 255 255
1 0 0.94709814 255 255 255 255
1 0 0.055561054 255 255 255 255
1 0 0.46430227 255 255 255 255
1 0 0.29681265 255 255 255 255
1 0 0.54015458 255 255 255 255
1 0 0.25778186 255 255 255 255
1 0 0.6412515 255 255 255 255
1 0 0.1607381 255 255 255 255
1 0 0.47817877 255 255 255 255
1 0 0.21767294 255 255 255 255
1 0 0.13884322 255 255 255 255
1 0 0.99522805 255 255 255 255
1 0 0.49177825 255 255 255 255
1 0 0.64880025 255 255 255 255
1 0 0.31894815 255 255 255 255
1 0 0.66952074 255 255 255 255
1 0 0.19434859 255 255 255 255
1 0 0.22278772 255 255 255 255
1 0 0.99434555 255 255 255 255
1 0 0.004963567 255 255 255 255
1 0 0.9908762 255 255 255 255
1 0 0.40828255 255 255 255 255
1 0 0.90979266 255 255 255 255
1 0 0.024586972 255 255 255 255
1 0 0.39782417 255 255 255 255
1 1 0.19399738 255 255 255 255
1 1 0.22999093 255 255 255 255
1 1 0.045238901 255 255 255 255
1 1 0.42275551 255 255 255 255
1 1 0.21752083 255 255 255 255
1 1 0.80668199 255 255 255 255
1 1 0.99141121 255 255 255 255
1 1 0.54896361 255 255 255 255
1 1 0.26509556 255 255 255 255
1 1 0.9274137 255 255 255 255
1 1 0.2532663 255 255 255 255
1 1 0.50897616 255 255 255 255
1 1 0.23725823 255 255 255 255
1 1 0.22153166 255 255 255 255
1 1 0.86973512 255 255 255 255
1 1 0.46570131 255 255 255 255
1 1 0.17433025 255 255 255 255
1 1 0.51001841 255 255 255 255
1 1 0.20595331 255 255 255 255
1 1 0.50373948 255 255 255 255
1 1 0.77344865 255 255 255 255
1 1 0.24344511 255 255 255 255
1 1 0.22947526 255 255 255 255
1 1 0.28412947 255 255 255 255
1 1 0.94202983 255 255 255 255
1 1 0.82914752 255 255 255 255
1 1 0.40137336 255 255 255 255
1 1 0.48649248 255 255 255 255
1 1 0.4591465 255 255 255 255
1 1 0.88624829 255 255 255 255
1 1 0.80092466 255 255 255 255
1 1 0.65314388 255 255 255 255
1 1 0.11623923 255 255 255 255
1 1 0.84616357 255 255 255 255
1 1 0.075899407 255 255 255 255
1 1 0.33376005 255 255 255 255
1 1 0.65284556 255 255 255 255
1 1 0.067310624 255 255 255 255
1 1 0.88272363 255 255 255 255
1 1 0.91794115 255 255 255 255
1 1 0.99472433 255 255 255 255
1 1 0.13598996 255 255 255 255
1 1 0.42691731 255 255 255 255
1 1 0.23198256 255 255 255 255
1 1 0.35752162 255 255 255 255
1 1 0.29665241 255 255 255 255
1 1 0.69768387 255 255 255 255
1 1 0.53185189 255 255 255 255
1 1 0.80667078 255 255 255 255
1 1 0.90363717 255 255 255 255
1 1 0.035591356 255 255 255 255
1 1 0.58011943 255 255 255 255
1 1 0.14708231 255 255 255 255
1 1 0.26506662 255 255 255 255
1 1 0.86424893 255 255 255 255
1 1 0.08911217 255 255 255 255
1 1 0.094214112 255 255 255 255
1 1 0.26562229 255 255 255 255
1 1 0.57560462 255 255 255 255
1 1 0.55336058 255 255 255 255
1 1 0.15187059 255 255 255 255
1 1 0.37652931 255 255 255 255
1 1 0.20650449 255 255 255 255
1 1 0.26810983 255 255 255 255
1 1 0.22269288 255 255 255 255
1 1 0.28240392 255 255 255 255
1 1 0.60186988 255 255 255 255
1 1 0.87553847 255 255 255 255
1 1 0.34971452 255 255 255 255
1 1 0.48459354 255 255 255 255
1 1 0.79347956 255 255 255 255
1 1 0.34443888 255 255 255 255
1 1 0.62058347 255 255 255 255
1 1 0.22039689 255 255 255 255
1 1 0.57642144 255 255 255 255
1 1 0.97810513 255 255 255 255
1 1 0.51704931 255 255 255 255
1 1 0.27410531 255 255 255 255
1 1 0.50995702 255 255 255 255
1 1 0.3237201 255 255 255 255
1 1 0.1777425 255 255 255 255
1 1 0.54554838 255 255 255 255
1 1 0.90383953 255 255 255 255
1 1 0.32482481 255 255 255 255
1 1 0.810615 255 255 255 255
1 1 0.76808846 255 255 255 255
1 1 0.41393697 255 255 255 255
1 1 0.90482908 255 255 255 255
1 1 0.03371077 255 255 255 255
1 1 0.98954165 255 255 255 255
1 1 0.4581897 255 255 255 255
1 1 0.18558136 255 255 255 255
1 1 0.36607093 255 255 255 255
1 1 0.66469419 255 255 255 255
1 1 0.45369118 255 255 255 255
1 1 0.58876383 255 255 255 255
1 1 0.94709814 255 255 255 255
1 1 0.055561054 255 255 255 255
1 1 0.46430227 255 255 255 255
1 1 0.29681265 255 255 255 255
1 1 0.54015458 255 255 255 255
1 1 0.25778186 255 255 255 255
1 1 0.6412515 255 255 255 255
1 1 0.1607381 255 255 255 255
1 1 0.47817877 255 255 255 255
1 1 0.21767294 255 255 255 255
1 1 0.13884322 255 255 255 255
1 1 0.99522805 255 255 255 255
1 1 0.49177825 255 255 255 255
1 1 0.64880025 255 255 255 255
1 1 0.31894815 255 255 255 255
1 1 0.66952074 255 255 255 255
1 1 0.19434859 255 255 255 255
1 1 0.22278772 255 255 255 255
1 1 0.99434555 255 255 255 255
1 1 0.004963567 255 255 255 255
1 1 0.9908762 255 255 255 255
1 1 0.40828255 255 255 255 255
1 1 0.90979266 255 255 255 255
1 1 0.024586972 255 255 255 255
1 1 0.39782417 255 255 255 255
1 0.19399738 0 255 255 255 255
1 0.22999093 0 255 255 255 255
1 0.045238901 0 255 255 255 255
1 0.42275551 0 255 255 255 255
1 0.21752083 0 255 255 255 255
1 0.80668199 0 255 255 255 255
1 0.99141121 0 255 255 255 255
1 0.54896361 0 255 255 255 255
1 0.26509556 0 255 255 255 255
1 0.9274137 0 255 255 255 255
1 0.2532663 0 255 255 255 255
1 0.50897616 0 255 255 255 255
1 0.23725823 0 255 255 255 255
1 0.22153166 0 255 255 255 255
1 0.86973512 0 255 255 255 255
1 0.46570131 0 255 255 255 255
1 0.17433025 0 255 255 255 255
1 0.51001841 0 255 255 255 255
1 0.20595331 0 255 255 255 255
1 0.50373948 0 255 255 255 255
1 0.77344865 0 255 255 255 255
1 0.24344511 0 255 255 255 255
1 0.22947526 0 255 255 255 255
1 0.28412947 0 255 255 255 255
1 0.94202983 0 255 255 255 255
1 0.82914752 0 255 255 255 255
1 0.40137336 0 255 255 255 255
1 0.48649248 0 255 255 255 255
1 0.4591465 0 255 255 255 255
1 0.88624829 0 255 255 255 255
1 0.80092466 0 255 255 255 255
1 0.65314388 0 255 255 255 255
1 0.11623923 0 255 255 255 255
1 0.84616357 0 255 255 255 255
1 0.075899407 0 255 255 255 255
1 0.33376005 0 255 255 255 255
1 0.65284556 0 255 255 255 255
1 0.067310624 0 255 255 255 255
1 0.88272363 0 255 255 255 255
1 0.91794115 0 255 255 255 255
1 0.99472433 0 255 255 255 255
1 0.13598996 0 255 255 255 255
1 0.42691731 0 255 255 255 255
1 0.23198256 0 255 255 255 255
1 0.35752162 0 255 255 255 255
1 0.29665241 0 255 255 255 255
1 0.69768387 0 255 255 255 255
1 0.53185189 0 255 255 255 255
1 0.80667078 0 255 255 255 255
1 0.90363717 0 255 255 255 255
1 0.035591356 0 255 255 255 255
1 0.58011943 0 255 255 255 255
1 0.14708231 0 255 255 255 255
1 0.26506662 0 255 255 255 255
1 0.86424893 0 255 255 255 255
1 0.08911217 0 255 255 255 255
1 0.094214112 0 255 255 255 255
1 0.26562229 0 255 255 255 255
1 0.57560462 0 255 255 255 255
1 0.55336058 0 255 255 255 255
1 0.15187059 0 255 255 255 255
1 0.37652931 0 255 255 255 255
1 0.20650449 0 255 255 255 255
1 0.26810983 0 255 255 255 255
1 0.22269288 0 255 255 255 255
1 0.28240392 0 255 255 255 255
1 0.60186988 0 255 255 255 255
1 0.87553847 0 255 255 255 255
1 0.34971452 0 255 255 255 255
1 0.48459354 0 255 255 255 255
1 0.79347956 0 255 255 255 255
1 0.34443888 0 255 255 255 255
1 0.62058347 0 255 255 255 255
1 0.22039689 0 255 255 255 255
1 0.57642144 0 255 255 255 255
1 0.97810513 0 255 255 255 255
1 0.51704931 0 255 255 255 255
1 0.27410531 0 255 255 255 255
1 0.50995702 0 255 255 255 255
1 0.3237201 0 255 255 255 255
1 0.1777425 0 255 255 255 255
1 0.54554838 0 255 255 255 255
1 0.90383953 0 255 255 255 255
1 0.32482481 0 255 255 255 255
1 0.810615 0 255 255 255 255
1 0.76808846 0 255 255 255 255
1 0.41393697 0 255 255 255 255
1 0.90482908 0 255 255 255 255
1 0.03371077 0 255 255 255 255
1 0.98954165 0 255 255 255 255
1 0.4581897 0 255 255 255 255
1 0.18558136 0 255 255 255 255
1 0.36607093 0 255 255 255 255
1 0.66469419 0 255 255 255 255
1 0.45369118 0 255 255 255 255
1 0.58876383 0 255 255 255 255
1 0.94709814 0 255 255 255 255
1 0.055561054 0 255 255 255 255
1 0.46430227 0 255 255 255 255
1 0.29681265 0 255 255 255 255
1 0.54015458 0 255 255 255 255
1 0.25778186 0 255 255 255 255
1 0.6412515 0 255 255 255 255
1 0.1607381 0 255 255 255 255
1 0.47817877 0 255 255 255 255
1 0.21767294 0 255 255 255 255
1 0.13884322 0 255 255 255 255
1 0.99522805 0 255 255 255 255
1 0.49177825 0 255 255 255 255
1 0.64880025 0 255 255 255 255
1 0.31894815 0 255 255 255 255
1 0.66952074 0 255 255 255 255
1 0.19434859 0 255 255 255 255
1 0.22278772 0 255 255 255 255
1 0.99434555 0 255 255 255 255
1 0.004963567 0 255 255 255 255
1 0.9908762 0 255 255 255 255
1 0.40828255 0 255 255 255 255
1 0.90979266 0 255 255 255 255
1 0.024586972 0 255 255 255 255
1 0.39782417 0 255 255 255 255
1 0.19399738 1 255 255 255 255
1 0.22999093 1 255 255 255 255
1 0.045238901 1 255 255 255 255
1 0.42275551 1 255 255 255 255
1 0.21752083 1 255 255 255 255
1 0.80668199 1 255 255 255 255
1 0.99141121 1 255 255 255 255
1 0.54896361 1 255 255 255 255
1 0.26509556 1 255 255 255 255
1 0.9274137 1 255 255 255 255
1 0.2532663 1 255 255 255 255
1 0.50897616 1 255 255 255 255
1 0.23725823 1 255 255 255 255
1 0.22153166 1 255 255 255 255
1 0.86973512 1 255 255 255 255
1 0.46570131 1 255 255 255 255
1 0.17433025 1 255 255 255 255
1 0.51001841 1 255 255 255 255
1 0.20595331 1 255 255 255 255
1 0.50373948 1 255 255 255 255
1 0.77344865 1 255 255 255 255
1 0.24344511 1 255 255 255 255
1 0.22947526 1 255 255 255 255
1 0.28412947 1 255 255 255 255
1 0.94202983 1 255 255 255 255
1 0.82914752 1 255 255 255 255
1 0.40137336 1 255 255 255 255
1 0.48649248 1 255 255 255 255
1 0.4591465 1 255 255 255 255
1 0.88624829 1 255 255 255 255
1 0.80092466 1 255 255 255 255
1 0.65314388 1 255 255 255 255
1 0.11623923 1 255 255 255 255
1 0.84616357 1 255 255 255 255
1 0.075899407 1 255 255 255 255
1 0.33376005 1 255 255 255 255
1 0.65284556 1 255 255 255 255
1 0.067310624 1 255 255 255 255
1 0.88272363 1 255 255 255 255
1 0.91794115 1 255 255 255 255
1 0.99472433 1 255 255 255 255
1 0.13598996 1 255 255 255 255
1 0.42691731 1 255 255 255 255
1 0.23198256 1 255 255 255 255
1 0.35752162 1 255 255 255 255
1 0.29665241 1 255 255 255 255
1 0.69768387 1 255 255 255 255
1 0.53185189 1 255 255 255 255
1 0.80667078 1 255 255 255 255
1 0.90363717 1 255 255 255 255
1 0.035591356 1 255 255 255 255
1 0.58011943 1 255 255 255 255
1 0.14708231 1 255 255 255 255
1 0.26506662 1 255 255 255 255
1 0.86424893 1 255 255 255 255
1 0.08911217 1 255 255 255 255
1 0.094214112 1 255 255 255 255
1 0.26562229 1 255 255 255 255
1 0.57560462 1 255 255 255 255
1 0.55336058 1 255 255 255 255
1 0.15187059 1 255 255 255 255
1 0.37652931 1 255 255 255 255
1 0.20650449 1 255 255 255 255
1 0.26810983 1 255 255 255 255
1 0.22269288 1 255 255 255 255
1 0.28240392 1 255 255 255 255
1 0.60186988 1 255 255 255 255
1 0.87553847 1 255 255 255 255
1 0.34971452 1 255 255 255 255
1 0.48459354 1 255 255 255 255
1 0.79347956 1 255 255 255 255
1 0.34443888 1 255 255 255 255
1 0.62058347 1 255 255 255 255
1 0.22039689 1 255 255 255 255
1 0.57642144 1 255 255 255 255
1 0.97810513 1 255 255 255 255
1 0.51704931 1 255 255 255 255
1 0.27410531 1 255 255 255 255
1 0.50995702 1 255 255 255 255
1 0.3237201 1 255 255 255 255
1 0.1777425 1 255 255 255 255
1 0.54554838 1 255 255 255 255
1 0.90383953 1 255 255 255 255
1 0.32482481 1 255 255 255 255
1 0.810615 1 255 255 255 255
1 0.76808846 1 255 255 255 255
1 0.41393697 1 255 255 255 255
1 0.90482908 1 255 255 255 255
1 0.03371077 1 255 255 255 255
1 0.98954165 1 255 255 255 255
1 0.4581897 1 255 255 255 255
1 0.18558136 1 255 255 255 255
1 0.36607093 1 255 255 255 255
1 0.66469419 1 255 255 255 255
1 0.45369118 1 255 255 255 255
1 0.58876383 1 255 255 255 255
1 0.94709814 1 255 255 255 255
1 0.055561054 1 255 255 255 255
1 0.46430227 1 255 255 255 255
1 0.29681265 1 255 255 255 255
1 0.54015458 1 255 255 255 255
1 0.25778186 1 255 255 255 255
1 0.6412515 1 255 255 255 255
1 0.1607381 1 255 255 255 255
1 0.47817877 1 255 255 255 255
1 0.21767294 1 255 255 255 255
1 0.13884322 1 255 255 255 255
1 0.99522805 1 255 255 255 255
1 0.49177825 1 255 255 255 255
1 0.64880025 1 255 255 255 255
1 0.31894815 1 255 255 255 255
1 0.66952074 1 255 255 255 255
1 0.19434859 1 255 255 255 255
1 0.22278772 1 255 255 255 255
1 0.99434555 1 255 255 255 255
1 0.004963567 1 255 255 255 255
1 0.9908762 1 255 255 255 255
1 0.40828255 1 255 255 255 255
1 0.90979266 1 255 255 255 255
1 0.024586972 1 255 255 255 255
1 0.39782417 1 255 255 255 255
0.19399738 0 1 255 255 255 255
0.22999093 0 1 255 255 255 255
0.045238901 0 1 255 255 255 255
0.42275551 0 1 255 255 255 255
0.21752083 0 1 255 255 255 255
0.80668199 0 1 255 255 255 255
0.99141121 0 1 255 255 255 255
0.54896361 0 1 255 255 255 255
0.26509556 0 1 255 255 255 255
0.9274137 0 1 255 255 255 255
0.2532663 0 1 255 255 255 255
0.50897616 0 1 255 255 255 255
0.23725823 0 1 255 255 255 255
0.22153166 0 1 255 255 255 255
0.86973512 0 1 255 255 255 255
0.46570131 0 1 255 255 255 255
0.17433025 0 1 255 255 255 255
0.51001841 0 1 255 255 255 255
0.20595331 0 1 255 255 255 255
0.50373948 0 1 255 255 255 255
0.77344865 0 1 255 255 255 255
0.24344511 0 1 255 255 255 255
0.22947526 0 1 255 255 255 255
0.28412947 0 1 255 255 255 255
0.94202983 0 1 255 255 255 255
0.82914752 0 1 255 255 255 255
0.40137336 0 1 255 255 255 255
0.48649248 0 1 255 255 255 255
0.4591465 0 1 255 255 255 255
0.88624829 0 1 255 255 255 255
0.80092466 0 1 255 255 255 255
0.65314388 0 1 255 255 255 255
0.11623923 0 1 255 255 255 255
0.84616357 0 1 255 255 255 255
0.075899407 0 1 255 255 255 255
0.33376005 0 1 255 255 255 255
0.65284556 0 1 255 255 255 255
0.067310624 0 1 255 255 255 255
0.88272363 0 1 255 255 255 255
0.91794115 0 1 255 255 255 255
0.99472433 0 1 255 255 255 255
0.13598996 0 1 255 255 255 255
0.42691731 0 1 255 255 255 255
0.23198256 0 1 255 255 255 255
0.35752162 0 1 255 255 255 255
0.29665241 0 1 255 255 255 255
0.69768387 0 1 255 255 255 255
0.53185189 0 1 255 255 255 255
0.80667078 0 1 255 255 255 255
0.90363717 0 1 255 255 255 255
0.035591356 0 1 255 255 255 255
0.58011943 0 1 255 255 255 255
0.14708231 0 1 255 255 255 255
0.26506662 0 1 255 255 255 255
0.86424893 0 1 255 255 255 255
0.08911217 0 1 255 255 255 255
0.094214112 0 1 255 255 255 255
0.26562229 0 1 255 255 255 255
0.57560462 0 1 255 255 255 255
0.55336058 0 1 255 255 255 255
0.15187059 0 1 255 255 255 255
0.37652931 0 1 255 255 255 255
0.20650449 0 1 255 255 255 255
0.26810983 0 1 255 255 255 255
0.22269288 0 1 255 255 255 255
0.28240392 0 1 255 255 255 255
0.60186988 0 1 255 255 255 255
0.87553847 0 1 255 255 255 255
0.34971452 0 1 255 255 255 255
0.48459354 0 1 255 255 255 255
0.79347956 0 1 255 255 255 255
0.34443888 0 1 255 255 255 255
0.62058347 0 1 255 255 255 255
0.22039689 0 1 255 255 255 255
0.57642144 0 1 255 255 255 255
0.97810513 0 1 255 255 255 255
0.51704931 0 1 255 255 255 255
0.27410531 0 1 255 255 255 255
0.50995702 0 1 255 255 255 255
0.3237201 0 1 255 255 255 255
0.1777425 0 1 255 255 255 255
0.54554838 0 1 255 255 255 255
0.90383953 0 1 255 255 255 255
0.32482481 0 1 255 255 255 255
0.810615 0 1 255 255 255 255
0.76808846 0 1 255 255 255 255
0.41393697 0 1 255 255 255 255
0.90482908 0 1 255 255 255 255
0.03371077 0 1 255 255 255 255
0.98954165 0 1 255 255 255 255
0.4581897 0 1 255 255 255 255
0.18558136 0 1 255 255 255 255
0.36607093 0 1 255 255 255 255
0.66469419 0 1 255 255 255 255
0.45369118 0 1 255 255 255 255
0.58876383 0 1 255 255 255 255
0.94709814 0 1 255 255 255 255
0.055561054 0 1 255 255 255 255
0.46430227 0 1 255 255 255 255
0.29681265 0 1 255 255 255 255
0.54015458 0 1 255 255 255 255
0.25778186 0 1 255 255 255 255
0.6412515 0 1 255 255 255 255
0.1607381 0 1 255 255 255 255
0.47817877 0 1 255 255 255 255
0.21767294 0 1 255 255 255 255
0.13884322 0 1 255 255 255 255
0.99522805 0 1 255 255 255 255
0.49177825 0 1 255 255 255 255
0.64880025 0 1 255 255 255 255
0.31894815 0 1 255 255 255 255
0.66952074 0 1 255 255 255 255
0.19434859 0 1 255 255 255 255
0.22278772 0 1 255 255 255 255
0.99434555 0 1 255 255 255 255
0.004963567 0 1 255 255 255 255
0.9908762 0 1 255 255 255 255
0.40828255 0 1 255 255 255 255
0.90979266 0 1 255 255 255 255
0.024586972 0 1 255 255 255 255
0.39782417 0 1 255 255 255 255
0.19399738 0 0 255 255 255 255
0.22999093 0 0 255 255 255 255
0.045238901 0 0 255 255 255 255
0.42275551 0 0 255 255 255 255
0.21752083 0 0 255 255 255 255
0.80668199 0 0 255 255 255 255
0.99141121 0 0 255 255 255 255
0.54896361 0 0 255 255 255 255
0.26509556 0 0 255 255 255 255
0.9274137 0 0 255 255 255 255
0.2532663 0 0 255 255 255 255
0.50897616 0 0 255 255 255 255
0.23725823 0 0 255 255 255 255
0.22153166 0 0 255 255 255 255
0.86973512 0 0 255 255 255 255
0.46570131 0 0 255 255 255 255
0.17433025 0 0 255 255 255 255
0.51001841 0 0 255 255 255 255
0.20595331 0 0 255 255 255 255
0.50373948 0 0 255 255 255 255
0.77344865 0 0 255 255 255 255
0.24344511 0 0 255 255 255 255
0.22947526 0 0 255 255 255 255
0.28412947 0 0 255 255 255 255
0.94202983 0 0 255 255 255 255
0.82914752 0 0 255 255 255 255
0.40137336 0 0 255 255 255 255
0.48649248 0 0 255 255 255 255
0.4591465 0 0 255 255 255 255
0.88624829 0 0 255 255 255 255
0.80092466 0 0 255 255 255 255
0.65314388 0 0 255 255 255 255
0.11623923 0 0 255 255 255 255
0.84616357 0 0 255 255 255 255
0.075899407 0 0 255 255 255 255
0.33376005 0 0 255 255 255 255
0.65284556 0 0 255 255 255 255
0.067310624 0 0 255 255 255 255
0.88272363 0 0 255 255 255 255
0.91794115 0 0 255 255 255 255
0.99472433 0 0 255 255 255 255
0.13598996 0 0 255 255 255 255
0.42691731 0 0 255 255 255 255
0.23198256 0 0 255 255 255 255
0.35752162 0 0 255 255 255 255
0.29665241 0 0 255 255 255 255
0.69768387 0 0 255 255 255 255
0.53185189 0 0 255 255 255 255
0.80667078 0 0 255 255 255 255
0.90363717 0 0 255 255 255 255
0.035591356 0 0 255 255 255 255
0.58011943 0 0 255 255 255 255
0.14708231 0 0 255 255 255 255
0.26506662 0 0 255 255 255 255
0.86424893 0 0 255 255 255 255
0.08911217 0 0 255 255 255 255
0.094214112 0 0 255 255 255 255
0.26562229 0 0 255 255 255 255
0.57560462 0 0 255 255 255 255
0.55336058 0 0 255 255 255 255
0.15187059 0 0 255 255 255 255
0.37652931 0 0 255 255 255 255
0.20650449 0 0 255 255 255 255
0.26810983 0 0 255 255 255 255
0.22269288 0 0 255 255 255 255
0.28240392 0 0 255 255 255 255
0.60186988 0 0 255 255 255 255
0.87553847 0 0 255 255 255 255
0.34971452 0 0 255 255 255 255
0.48459354 0 0 255 255 255 255
0.79347956 0 0 255 255 255 255
0.34443888 0 0 255 255 255 255
0.62058347 0 0 255 255 255 255
0.22039689 0 0 255 255 255 255
0.57642144 0 0 255 255 255 255
0.97810513 0 0 255 255 255 255
0.51704931 0 0 255 255 255 255
0.27410531 0 0 255 255 255 255
0.50995702 0 0 255 255 255 255
0.3237201 0 0 255 255 255 255
0.1777425 0 0 255 255 255 255
0.54554838 0 0 255 255 255 255
0.90383953 0 0 255 255 255 255
0.32482481 0 0 255 255 255 255
0.810615 0 0 255 255 255 255
0.76808846 0 0 255 255 255 255
0.41393697 0 0 255 255 255 255
0.90482908 0 0 255 255 255 255
0.03371077 0 0 255 255 255 255
0.98954165 0 0 255 255 255 255
0.4581897 0 0 255 255 255 255
0.18558136 0 0 255 255 255 255
0.36607093 0 0 255 255 255 255
0.66469419 0 0 255 255 255 255
0.45369118 0 0 255 255 255 255
0.58876383 0 0 255 255 255 255
0.94709814 0 0 255 255 255 255
0.055561054 0 0 255 255 255 255
0.46430227 0 0 255 255 255 255
0.29681265 0 0 255 255 255 255
0.54015458 0 0 255 255 255 255
0.25778186 0 0 255 255 255 255
0.6412515 0 0 255 255 255 255
0.1607381 0 0 255 255 255 255
0.47817877 0 0 255 255 255 255
0.21767294 0 0 255 255 255 255
0.13884322 0 0 255 255 255 255
0.99522805 0 0 255 255 255 255
0.49177825 0 0 255 255 255 255
0.64880025 0 0 255 255 255 255
0.31894815 0 0 255 255 255 255
0.66952074 0 0 255 255 255 255
0.19434859 0 0 255 255 255 255
0.22278772 0 0 255 255 255 255
0.99434555 0 0 255 255 255 255
0.004963567 0 0 255 255 255 255
0.9908762 0 0 255 255 255 255
0.40828255 0 0 255 255 255 255
0.90979266 0 0 255 255 255 255
0.024586972 0 0 255 255 255 255
0.39782417 0 0 255 255 255 255
0.19399738 1 1 255 255 255 255
0.22999093 1 1 255 255 255 255
0.045238901 1 1 255 255 255 255
0.42275551 1 1 255 255 255 255
0.21752083 1 1 255 255 255 255
0.80668199 1 1 255 255 255 255
0.99141121 1 1 255 255 255 255
0.54896361 1 1 255 255 255 255
0.26509556 1 1 255 255 255 255
0.9274137 1 1 255 255 255 255
0.2532663 1 1 255 255 255 255
0.50897616 1 1 255 255 255 255
0.23725823 1 1 255 255 255 255
0.22153166 1 1 255 255 255 255
0.86973512 1 1 255 255 255 255
0.46570131 1 1 255 255 255 255
0.17433025 1 1 255 255 255 255
0.51001841 1 1 255 255 255 255
0.20595331 1 1 255 255 255 255
0.50373948 1 1 255 255 255 255
0.77344865 1 1 255 255 255 255
0.24344511 1 1 255 255 255 255
0.22947526 1 1 255 255 255 255
0.28412947 1 1 255 255 255 255
0.94202983 1 1 255 255 255 255
0.82914752 1 1 255 255 255 255
0.40137336 1 1 255 255 255 255
0.48649248 1 1 255 255 255 255
0.4591465 1 1 255 255 255 255
0.88624829 1 1 255 255 255 255
0.80092466 1 1 255 255 255 255
0.65314388 1 1 255 255 255 255
0.11623923 1 1 255 255 255 255
0.84616357 1 1 255 255 255 255
0.075899407 1 1 255 255 255 255
0.33376005 1 1 255 255 255 255
0.65284556 1 1 255 255 255 255
0.067310624 1 1 255 255 255 255
0.88272363 1 1 255 255 255 255
0.91794115 1 1 255 255 255 255
0.99472433 1 1 255 255 255 255
0.13598996 1 1 255 255 255 255
0.42691731 1 1 255 255 255 255
0.23198256 1 1 255 255 255 255
0.35752162 1 1 255 255 255 255
0.29665241 1 1 255 255 255 255
0.69768387 1 1 255 255 255 255
0.53185189 1 1 255 255 255 255
0.80667078 1 1 255 255 255 255
0.90363717 1 1 255 255 255 255
0.035591356 1 1 255 255 255 255
0.58011943 1 1 255 255 255 255
0.14708231 1 1 255 255 255 255
0.26506662 1 1 255 255 255 255
0.86424893 1 1 255 255 255 255
0.08911217 1 1 255 255 255 255
0.094214112 1 1 255 255 255 255
0.26562229 1 1 255 255 255 255
0.57560462 1 1 255 255 255 255
0.55336058 1 1 255 255 255 255
0.15187059 1 1 255 255 255 255
0.37652931 1 1 255 255 255 255
0.20650449 1 1 255 255 255 255
0.26810983 1 1 255 255 255 255
0.22269288 1 1 255 255 255 255
0.28240392 1 1 255 255 255 255
0.60186988 1 1 255 255 255 255
0.87553847 1 1 255 255 255 255
0.34971452 1 1 255 255 255 255
0.48459354 1 1 255 255 255 255
0.79347956 1 1 255 255 255 255
0.34443888 1 1 255 255 255 255
0.62058347 1 1 255 255 255 255
0.22039689 1 1 255 255 255 255
0.57642144 1 1 255 255 255 255
0.97810513 1 1 255 255 255 255
0.51704931 1 1 255 255 255 255
0.27410531 1 1 255 255 255 255
0.50995702 1 1 255 255 255 255
0.3237201 1 1 255 255 255 255
0.1777425 1 1 255 255 255 255
0.54554838 1 1 255 255 255 255
0.90383953 1 1 255 255 255 255
0.32482481 1 1 255 255 255 255
0.810615 1 1 255 255 255 255
0.76808846 1 1 255 255 255 255
0.41393697 1 1 255 255 255 255
0.90482908 1 1 255 255 255 255
0.03371077 1 1 255 255 255 255
0.98954165 1 1 255 255 255 255
0.4581897 1 1 255 255 255 255
0.18558136 1 1 255 255 255 255
0.36607093 1 1 255 255 255 255
0.66469419 1 1 255 255 255 255
0.45369118 1 1 255 255 255 255
0.58876383 1 1 255 255 255 255
0.94709814 1 1 255 255 255 255
0.055561054 1 1 255 255 255 255
0.46430227 1 1 255 255 255 255
0.29681265 1 1 255 255 255 255
0.54015458 1 1 255 255 255 255
0.25778186 1 1 255 255 255 255
0.6412515 1 1 255 255 255 255
0.1607381 1 1 255 255 255 255
0.47817877 1 1 255 255 255 255
0.21767294 1 1 255 255 255 255
0.13884322 1 1 255 255 255 255
0.99522805 1 1 255 255 255 255
0.49177825 1 1 255 255 255 255
0.64880025 1 1 255 255 255 255
0.31894815 1 1 255 255 255 255
0.66952074 1 1 255 255 255 255
0.19434859 1 1 255 255 255 255
0.22278772 1 1 255 255 255 255
0.99434555 1 1 255 255 255 255
0.004963567 1 1 255 255 255 255
0.9908762 1 1 255 255 255 255
0.40828255 1 1 255 255 255 255
0.90979266 1 1 255 255 255 255
0.024586972 1 1 255 255 255 255
0.39782417 1 1 255 255 255 255
0.19399738 1 0 255 255 255 255
0.22999093 1 0 255 255 255 255
0.045238901 1 0 255 255 255 255
0.42275551 1 0 255 255 255 255
0.21752083 1 0 255 255 255 255
0.80668199 1 0 255 255 255 255
0.99141121 1 0 255 255 255 255
0.54896361 1 0 255 255 255 255
0.26509556 1 0 255 255 255 255
0.9274137 1 0 255 255 255 255
0.2532663 1 0 255 255 255 255
0.50897616 1 0 255 255 255 255
0.23725823 1 0 255 255 255 255
0.22153166 1 0 255 255 255 255
0.86973512 1 0 255 255 255 255
0.46570131 1 0 255 255 255 255
0.17433025 1 0 255 255 255 255
0.51001841 1 0 255 255 255 255
0.20595331 1 0 255 255 255 255
0.50373948 1 0 255 255 255 255
0.77344865 1 0 255 255 255 255
0.24344511 1 0 255 255 255 255
0.22947526 1 0 255 255 255 255
0.28412947 1 0 255 255 255 255
0.94202983 1 0 255 255 255 255
0.82914752 1 0 255 255 255 255
0.40137336 1 0 255 255 255 255
0.48649248 1 0 255 255 255 255
0.4591465 1 0 255 255 255 255
0.88624829 1 0 255 255 255 255
0.80092466 1 0 255 255 255 255
0.65314388 1 0 255 255 255 255
0.11623923 1 0 255 255 255 255
0.84616357 1 0 255 255 255 255
0.075899407 1 0 255 255 255 255
0.33376005 1 0 255 255 255 255
0.65284556 1 0 255 255 255 255
0.067310624 1 0 255 255 255 255
0.88272363 1 0 255 255 255 255
0.91794115 1 0 255 255 255 255
0.99472433 1 0 255 255 255 255
0.13598996 1 0 255 255 255 255
0.42691731 1 0 255 255 255 255
0.23198256 1 0 255 255 255 255
0.35752162 1 0 255 255 255 255
0.29665241 1 0 255 255 255 255
0.69768387 1 0 255 255 255 255
0.53185189 1 0 255 255 255 255
0.80667078 1 0 255 255 255 255
0.90363717 1 0 255 255 255 255
0.035591356 1 0 255 255 255 255
0.58011943 1 0 255 255 255 255
0.14708231 1 0 255 255 255 255
0.26506662 1 0 255 255 255 255
0.86424893 1 0 255 255 255 255
0.08911217 1 0 255 255 255 255
0.094214112 1 0 255 255 255 255
0.26562229 1 0 255 255 255 255
0.57560462 1 0 255 255 255 255
0.55336058 1 0 255 255 255 255
0.15187059 1 0 255 255 255 255
0.37652931 1 0 255 255 255 255
0.20650449 1 0 255 255 255 255
0.26810983 1 0 255 255 255 255
0.22269288 1 0 255 255 255 255
0.28240392 1 0 255 255 255 255
0.60186988 1 0 255 255 255 255
0.87553847 1 0 255 255 255 255
0.34971452 1 0 255 255 255 255
0.48459354 1 0 255 255 255 255
0.79347956 1 0 255 255 255 255
0.34443888 1 0 255 255 255 255
0.62058347 1 0 255 255 255 255
0.22039689 1 0 255 255 255 255
0.57642144 1 0 255 255 255 255
0.97810513 1 0 255 255 255 255
0.51704931 1 0 255 255 255 255
0.27410531 1 0 255 255 255 255
0.50995702 1 0 255 255 255 255
0.3237201 1 0 255 255 255 255
0.1777425 1 0 255 255 255 255
0.54554838 1 0 255 255 255 255
0.90383953 1 0 255 255 255 255
0.32482481 1 0 255 255 255 255
0.810615 1 0 255 255 255 255
0.76808846 1 0 255 255 255 255
0.41393697 1 0 255 255 255 255
0.90482908 1 0 255 255 255 255
0.03371077 1 0 255 255 255 255
0.98954165 1 0 255 255 255 255
0.4581897 1 0 255 255 255 255
0.18558136 1 0 255 255 255 255
0.36607093 1 0 255 255 255 255
0.66469419 1 0 255 255 255 255
0.45369118 1 0 255 255 255 255
0.58876383 1 0 255 255 255 255
0.94709814 1 0 255 255 255 255
0.055561054 1 0 255 255 255 255
0.46430227 1 0 255 255 255 255
0.29681265 1 0 255 255 255 255
0.54015458 1 0 255 255 255 255
0.25778186 1 0 255 255 255 255
0.6412515 1 0 255 255 255 255
0.1607381 1 0 255 255 255 255
0.47817877 1 0 255 255 255 255
0.21767294 1 0 255 255 255 255
0.13884322 1 0 255 255 255 255
0.99522805 1 0 255 255 255 255
0.49177825 1 0 255 255 255 255
0.64880025 1 0 255 255 255 255
0.31894815 1 0 255 255 255 255
0.66952074 1 0 255 255 255 255
0.19434859 1 0 255 255 255 255
0.22278772 1 0 255 255 255 255
0.99434555 1 0 255 255 255 255
0.004963567 1 0 255 255 255 255
0.9908762 1 0 255 255 255 255
0.40828255 1 0 255 255 255 255
0.90979266 1 0 255 255 255 255
0.024586972 1 0 255 255 255 255
0.39782417 1 0 255 255 255 255
0 0 0 1 0 0 0 1 0 0 0 1 0 0 0 0 0 1452 1 0 0
