ply
format ascii 1.0
comment PCL generated
element vertex 801
property float x
property float y
property float z
property uchar red
property uchar green
property uchar blue
property uchar alpha
element camera 1
property float view_px
property float view_py
property float view_pz
property float x_axisx
property float x_axisy
property float x_axisz
property float y_axisx
property float y_axisy
property float y_axisz
property float z_axisx
property float z_axisy
property float z_axisz
property float focal
property float scalex
property float scaley
property float centerx
property float centery
property int viewportx
property int viewporty
property float k1
property float k2
end_header
0 0.42976844 0 255 0 0 255
0 0.77423155 0 255 0 0 255
0 0.53588259 0 255 0 0 255
0 0.38191077 0 255 0 0 255
0 0.56889009 0 255 0 0 255
0 0.55028528 0 255 0 0 255
0 0.79638648 0 255 0 0 255
0 0.95271242 0 255 0 0 255
0 0.85610521 0 255 0 0 255
0 0.014605707 0 255 0 0 255
0 0.44219026 0 255 0 0 255
0 0.18362138 0 255 0 0 255
0 0.028961083 0 255 0 0 255
0 0.97174591 0 255 0 0 255
0 0.69372594 0 255 0 0 255
0 0.98230529 0 255 0 0 255
0 0.17271309 0 255 0 0 255
0 0.47459942 0 255 0 0 255
0 0.33119106 0 255 0 0 255
0 0.85856855 0 255 0 0 255
0 0.92668003 0 255 0 0 255
0 0.38250646 0 255 0 0 255
0 0.59860361 0 255 0 0 255
0 0.15038674 0 255 0 0 255
0 0.21149834 0 255 0 0 255
0 0.63131213 0 255 0 0 255
0 0.745233 0 255 0 0 255
0 0.62628704 0 255 0 0 255
0 0.66956019 0 255 0 0 255
0 0.7192058 0 255 0 0 255
0 0.34808251 0 255 0 0 255
0 0.099328622 0 255 0 0 255
0 0.49343735 0 255 0 0 255
0 0.88396513 0 255 0 0 255
0 0.48123941 0 255 0 0 255
0 0.062327426 0 255 0 0 255
0 0.43425041 0 255 0 0 255
0 0.27762586 0 255 0 0 255
0 0.015039844 0 255 0 0 255
0 0.29035562 0 255 0 0 255
0 0.29223156 0 255 0 0 255
0 0.45723012 0 255 0 0 255
0 0.473977 0 255 0 0 255
0 0.32119265 0 255 0 0 255
0 0.428976 0 255 0 0 255
0 0.16770293 0 255 0 0 255
0 0.30349794 0 255 0 0 255
0 0.6016891 0 255 0 0 255
0 0.64230233 0 255 0 0 255
0 0.63468903 0 255 0 0 255
0 0.46025762 0 255 0 0 255
0 0.56898236 0 255 0 0 255
0 0.017195471 0 255 0 0 255
0 0.058861211 0 255 0 0 255
0 0.71936911 0 255 0 0 255
0 0.2286938 0 255 0 0 255
0 0.69017333 0 255 0 0 255
0 0.46460211 0 255 0 0 255
0 0.85498083 0 255 0 0 255
0 0.35973349 0 255 0 0 255
0 0.18380792 0 255 0 0 255
0 0.20306337 0 255 0 0 255
0 0.4590621 0 255 0 0 255
0 0.67724526 0 255 0 0 255
0 0.087028489 0 255 0 0 255
0 0.94030148 0 255 0 0 255
0 0.7395727 0 255 0 0 255
0 0.52127892 0 255 0 0 255
0 0.21792737 0 255 0 0 255
0 0.75461251 0 255 0 0 255
0 0.81163454 0 255 0 0 255
0 0.51015896 0 255 0 0 255
0 0.21184264 0 255 0 0 255
0 0.28561154 0 255 0 0 255
0 0.83135158 0 255 0 0 255
0 0.64081866 0 255 0 0 255
0 0.45331448 0 255 0 0 255
0 0.13484953 0 255 0 0 255
0 0.24250771 0 255 0 0 255
0 0.095616817 0 255 0 0 255
0 0.76953852 0 255 0 0 255
0 0.70276535 0 255 0 0 255
0 0.66459918 0 255 0 0 255
0 0.78673398 0 255 0 0 255
0 0.76162654 0 255 0 0 255
0 0.38396832 0 255 0 0 255
0 0.015427815 0 255 0 0 255
0 0.45179984 0 255 0 0 255
0 0.84857041 0 255 0 0 255
0 0.87040865 0 255 0 0 255
0 0.81153333 0 255 0 0 255
0 0.032378361 0 255 0 0 255
0 0.073472016 0 255 0 0 255
0 0.27059543 0 255 0 0 255
0 0.70962363 0 255 0 0 255
0 0.16050051 0 255 0 0 255
0 0.21089694 0 255 0 0 255
0 0.44919631 0 255 0 0 255
0 0.68177944 0 255 0 0 255
0 0.42882431 0 255 0 0 255
0 0.20380884 0 255 0 0 255
0 0.49341395 0 255 0 0 255
0 0.93898326 0 255 0 0 255
0 0.4156515 0 255 0 0 255
0 0.7790255 0 255 0 0 255
0 0.77033484 0 255 0 0 255
0 0.05647013 0 255 0 0 255
0 0.23233998 0 255 0 0 255
0 0.90518433 0 255 0 0 255
0 0.29897782 0 255 0 0 255
0 0.3279568 0 255 0 0 255
0 0.67472291 0 255 0 0 255
0 0.0017431597 0 255 0 0 255
0 0.99255598 0 255 0 0 255
0 0.46145692 0 255 0 0 255
0 0.76336968 0 255 0 0 255
0 0.37652433 0 255 0 0 255
0 0.47688472 0 255 0 0 255
0 0.21516955 0 255 0 0 255
0 0.22509475 0 255 0 0 255
0 0.34729338 0 255 0 0 255
0 0.026702883 0 255 0 0 255
0 0.25747311 0 255 0 0 255
0 0.4207654 0 255 0 0 255
0 0.29729831 0 255 0 0 255
0 0.96709675 0 255 0 0 255
0 0.58126593 0 255 0 0 255
0 0.50819528 0 255 0 0 255
0 0.41629305 0 255 0 0 255
0 0.26304531 0 255 0 0 255
0 0.93701959 0 255 0 0 255
0 0.62010187 0 255 0 0 255
0 0.7564593 0 255 0 0 255
0 0.87600279 0 255 0 0 255
0 0.035753392 0 255 0 0 255
0 0.53548479 0 255 0 0 255
0 0.64633763 0 255 0 0 255
0 0.092223525 0 255 0 0 255
0 0.76782477 0 255 0 0 255
0 0.55152196 0 255 0 0 255
0 0.39120135 0 255 0 0 255
0 0.095781542 0 255 0 0 255
0 0.22624488 0 255 0 0 255
0 0.39294451 0 255 0 0 255
0 0.088337533 0 255 0 0 255
0 0.68770182 0 255 0 0 255
0 0.15631421 0 255 0 0 255
0 0.46486184 0 255 0 0 255
0 0.16458653 0 255 0 0 255
0 0.37148374 0 255 0 0 255
0 0.68995661 0 255 0 0 255
0 0.51187992 0 255 0 0 255
0 0.39818662 0 255 0 0 255
0 0.94742972 0 255 0 0 255
0 0.93264532 0 255 0 0 255
0 0.69548494 0 255 0 0 255
0 0.91452646 0 255 0 0 255
0 0.51391125 0 255 0 0 255
0 0.20368022 0 255 0 0 255
0 0.33081949 0 255 0 0 255
0 0.77695656 0 255 0 0 255
0 0.14069979 0 255 0 0 255
0 0.95092142 0 255 0 0 255
0 0.53341585 0 255 0 0 255
0 0.016702589 0 255 0 0 255
0 0.98667479 0 255 0 0 255
0 0.068900608 0 255 0 0 255
0 0.66304022 0 255 0 0 255
0 0.078898303 0 255 0 0 255
0 0.83672535 0 255 0 0 255
0 0.21456219 0 255 0 0 255
0 0.47009966 0 255 0 0 255
0 0.93250692 0 255 0 0 255
0 0.44080707 0 255 0 0 255
0 0.8630442 0 255 0 0 255
0 0.020844439 0 255 0 0 255
0 0.12850888 0 255 0 0 255
0 0.019358389 0 255 0 0 255
0 0.4857063 0 255 0 0 255
0 0.29309541 0 255 0 0 255
0 0.39084214 0 255 0 0 255
0 0.17566289 0 255 0 0 255
0 0.80497533 0 255 0 0 255
0 0.78902876 0 255 0 0 255
0 0.12309259 0 255 0 0 255
0 0.73762065 0 255 0 0 255
0 0.48451373 0 255 0 0 255
0 0.037619036 0 255 0 0 255
0 0.25153187 0 255 0 0 255
0 0.68819398 0 255 0 0 255
0 0.36843851 0 255 0 0 255
0 0.028488424 0 255 0 0 255
0 0.82889378 0 255 0 0 255
0 0.3193599 0 255 0 0 255
0 0.56190425 0 255 0 0 255
0 0.84559637 0 255 0 0 255
0 0.30603468 0 255 0 0 255
0 0.6308049 0 255 0 0 255
0 0.50863653 0 255 0 0 255
0 0.38493299 0 255 0 0 255
0 0.46753022 0 255 0 0 255
0 0.72319877 0 255 0 0 255
0 0.85503262 0 255 0 0 255
0 0.40003714 0 255 0 0 255
0 0.16400585 0 255 0 0 255
0 0.71807683 0 255 0 0 255
0 0.42088157 0 255 0 0 255
0 0.29251474 0 255 0 0 255
0 0.73743522 0 255 0 0 255
0 0.90658784 0 255 0 0 255
0 0.58561015 0 255 0 0 255
0 0.12827736 0 255 0 0 255
0 0.082250752 0 255 0 0 255
0 0.39058545 0 255 0 0 255
0 0.91730613 0 255 0 0 255
0 0.20534335 0 255 0 0 255
0 0.1282061 0 255 0 0 255
0 0.40181988 0 255 0 0 255
0 0.24296238 0 255 0 0 255
0 0.37973797 0 255 0 0 255
0 0.090013854 0 255 0 0 255
0 0.6114009 0 255 0 0 255
0 0.4082264 0 255 0 0 255
0 0.91890764 0 255 0 0 255
0 0.9307608 0 255 0 0 255
0 0.97013062 0 255 0 0 255
0 0.76450396 0 255 0 0 255
0 0.2367955 0 255 0 0 255
0 0.60093552 0 255 0 0 255
0 0.27314052 0 255 0 0 255
0 0.62172848 0 255 0 0 255
0 0.068465747 0 255 0 0 255
0 0.99633926 0 255 0 0 255
0 0.47676113 0 255 0 0 255
0 0.46850288 0 255 0 0 255
0 0.16034514 0 255 0 0 255
0 0.19483797 0 255 0 0 255
0 0.88938445 0 255 0 0 255
0 0.45285985 0 255 0 0 255
0 0.93227321 0 255 0 0 255
0 0.79597229 0 255 0 0 255
0 0.038469996 0 255 0 0 255
0 0.060550559 0 255 0 0 255
0 0.87822306 0 255 0 0 255
0 0.42905545 0 255 0 0 255
0 0.9778567 0 255 0 0 255
0 0.083566412 0 255 0 0 255
0 0.55726159 0 255 0 0 255
0 0.37967658 0 255 0 0 255
0 0.32652879 0 255 0 0 255
0 0.9369995 0 255 0 0 255
0 0.46969044 0 255 0 0 255
0 0.93792969 0 255 0 0 255
0 0.34522593 0 255 0 0 255
0 0.38859805 0 255 0 0 255
0 0.86869049 0 255 0 0 255
0 0.31535658 0 255 0 0 255
0 0.15310203 0 255 0 0 255
0 0.10548602 0 255 0 0 255
0 0.91629207 0 255 0 0 255
0 0.42624256 0 255 0 0 255
0 0.72721452 0 255 0 0 255
0 0.98475784 0 255 0 0 255
0 0.42258182 0 255 0 0 255
0 0.20397566 0 255 0 0 255
0 0.45326072 0 255 0 0 255
0 0.58292699 0 255 0 0 255
0 0.39881364 0 255 0 0 255
0 0.34264517 0 255 0 0 255
0 0.035786822 0 255 0 0 255
0 0.33108684 0 255 0 0 255
0 0.13861747 0 255 0 0 255
0 0.074256815 0 255 0 0 255
0 0.39163738 0 255 0 0 255
0 0.01684054 0 255 0 0 255
0 0.50331229 0 255 0 0 255
0 0.36949411 0 255 0 0 255
0 0.10040695 0 255 0 0 255
0 0.060573831 0 255 0 0 255
0 0.74917072 0 255 0 0 255
0 0.42693573 0 255 0 0 255
0 0.99757338 0 255 0 0 255
0 0.21886115 0 255 0 0 255
0 0.36486545 0 255 0 0 255
0 0.34279928 0 255 0 0 255
0 0.60745919 0 255 0 0 255
0 0.23355597 0 255 0 0 255
0 0.65815586 0 255 0 0 255
0 0.76056123 0 255 0 0 255
0 0.33904198 0 255 0 0 255
0 0.57444793 0 255 0 0 255
0 0.18680377 0 255 0 0 255
0 0.066256508 0 255 0 0 255
0 0.55920577 0 255 0 0 255
0 0.60938561 0 255 0 0 255
0 0.27023217 0 255 0 0 255
0 0.012466475 0 255 0 0 255
0 0.19231257 0 255 0 0 255
0 0.66904581 0 255 0 0 255
0 0.35511163 0 255 0 0 255
0 0.22809939 0 255 0 0 255
0 0.00013266364 0 255 0 0 255
0 0.49372911 0 255 0 0 255
0 0.30235621 0 255 0 0 255
0 0.39177006 0 255 0 0 255
0 0.51056963 0 255 0 0 255
0 0.80566847 0 255 0 0 255
0 0.76126415 0 255 0 0 255
0 0.61097658 0 255 0 0 255
0 0.86624229 0 255 0 0 255
0 0.51043487 0 255 0 0 255
0 0.037912346 0 255 0 0 255
0 0.86381567 0 255 0 0 255
0 0.72929597 0 255 0 0 255
0 0.40277779 0 255 0 0 255
0 0.20661496 0 255 0 0 255
0 0.33675519 0 255 0 0 255
0 0.63633376 0 255 0 0 255
0 0.86477083 0 255 0 0 255
0 0.097316429 0 255 0 0 255
0 0.97537577 0 255 0 0 255
0 0.43921876 0 255 0 0 255
0 0.2841202 0 255 0 0 255
0 0.041632261 0 255 0 0 255
0 0.99842453 0 255 0 0 255
0 0.89350581 0 255 0 0 255
0 0.31186444 0 255 0 0 255
0 0.010890989 0 255 0 0 255
0 0.08581838 0 255 0 0 255
0 0.98091024 0 255 0 0 255
0 0.36600262 0 255 0 0 255
0 0.31391779 0 255 0 0 255
0 0.98104292 0 255 0 0 255
0 0.85973173 0 255 0 0 255
0 0.616274 0 255 0 0 255
0 0.37281299 0 255 0 0 255
0 0.3703014 0 255 0 0 255
0 0.42194247 0 255 0 0 255
0 0.13407715 0 255 0 0 255
0 0.981278 0 255 0 0 255
0 0.28818479 0 255 0 0 255
0 0.644512 0 255 0 0 255
0 0.019190328 0 255 0 0 255
0 0.15200046 0 255 0 0 255
0 0.373808 0 255 0 0 255
0 0.42196813 0 255 0 0 255
0 0.35861543 0 255 0 0 255
0 0.71056318 0 255 0 0 255
0 0.058301881 0 255 0 0 255
0 0.22338623 0 255 0 0 255
0 0.80787963 0 255 0 0 255
0 0.03367763 0 255 0 0 255
0 0.66260499 0 255 0 0 255
0 0.091999829 0 255 0 0 255
0 0.075309888 0 255 0 0 255
0 0.66102946 0 255 0 0 255
0 0.98550564 0 255 0 0 255
0 0.38717434 0 255 0 0 255
0 0.67192048 0 255 0 0 255
0 0.071324021 0 255 0 0 255
0 0.36808458 0 255 0 0 255
0 0.037923101 0 255 0 0 255
0 0.38524181 0 255 0 0 255
0 0.34912753 0 255 0 0 255
0 0.89765483 0 255 0 0 255
0 0.0015157727 0 255 0 0 255
0 0.72194052 0 255 0 0 255
0 0.26795623 0 255 0 0 255
0 0.42345825 0 255 0 0 255
0 0.85601765 0 255 0 0 255
0 0.2492342 0 255 0 0 255
0 0.71164304 0 255 0 0 255
0 0.50052965 0 255 0 0 255
0 0.26842454 0 255 0 0 255
0 0.86364347 0 255 0 0 255
0 0.87433767 0 255 0 0 255
0 0.69039267 0 255 0 0 255
0 0.2222589 0 255 0 0 255
0 0.58490086 0 255 0 0 255
0 0.74869454 0 255 0 0 255
0 0.44564512 0 255 0 0 255
0 0.39278048 0 255 0 0 255
0 0.78237218 0 255 0 0 255
0 0.1082501 0 255 0 0 255
0 0.48478034 0 255 0 0 255
0 0.85768205 0 255 0 0 255
0 0.7692796 0 255 0 0 255
0 0.47028598 0 255 0 0 255
0 0.24485639 0 255 0 0 255
0 0.44120008 0 255 0 0 255
0 0.54161 0 255 0 0 255
0 0.61294097 0 255 0 0 255
0 0.47912318 0 255 0 0 255
0 0.92685181 0 255 0 0 255
0 0.9620685 0 255 0 0 255
0 0.37677801 0 255 0 0 255
0 0.92836756 0 255 0 0 255
0 0.68400902 0 255 0 0 255
0 0.6447342 0 255 0 0 255
0 0.3518258 0 255 0 0 255
0 0.54002666 0 255 0 0 255
0 0.8939684 0 255 0 0 255
0 0.063468814 0 255 0 0 255
0 0.040556323 0 255 0 0 255
0 0.16239296 0 255 0 0 255
0 0.92711228 0 255 0 0 255
0 0.91489398 0 255 0 0 255
0 0.85278559 0 255 0 0 255
0 0.14937119 0 255 0 0 255
0 0.49979487 0 255 0 0 255
0 0.60148013 0 255 0 0 255
0 0.5950163 0 255 0 0 255
0 0.89257538 0 255 0 0 255
0 0.3838523 0 255 0 0 255
0 0.70326644 0 255 0 0 255
0 0.37735569 0 255 0 0 255
0 0.24153437 0 255 0 0 255
0 0.47254601 0 255 0 0 255
0 0.84764165 0 255 0 0 255
0 0.48639074 0 255 0 0 255
0 0.91374612 0 255 0 0 255
0 0.38925165 0 255 0 0 255
0 0.099331722 0 255 0 0 255
0 0.39286926 0 255 0 0 255
0 0.31610343 0 255 0 0 255
0 0.061400216 0 255 0 0 255
0 0.76964724 0 255 0 0 255
0 0.24447098 0 255 0 0 255
0 0.74540919 0 255 0 0 255
0 0.41438147 0 255 0 0 255
0 0.59629679 0 255 0 0 255
0 0.28543589 0 255 0 0 255
0 0.30834991 0 255 0 0 255
0 0.6597656 0 255 0 0 255
0 0.3259922 0 255 0 0 255
0 0.47074288 0 255 0 0 255
0 0.58687788 0 255 0 0 255
0 0.2408862 0 255 0 0 255
0 0.32352847 0 255 0 0 255
0 0.73624909 0 255 0 0 255
0 0.74068105 0 255 0 0 255
0 0.92500865 0 255 0 0 255
0 0.33126539 0 255 0 0 255
0 0.63325644 0 255 0 0 255
0 0.30886093 0 255 0 0 255
0 0.034531824 0 255 0 0 255
0 0.010612097 0 255 0 0 255
0 0.55039531 0 255 0 0 255
0 0.50707787 0 255 0 0 255
0 0.85825378 0 255 0 0 255
0 0.036786046 0 255 0 0 255
0 0.42082393 0 255 0 0 255
0 0.2475054 0 255 0 0 255
0 0.13611777 0 255 0 0 255
0 0.81369317 0 255 0 0 255
0 0.56360883 0 255 0 0 255
0 0.19751799 0 255 0 0 255
0 0.58334047 0 255 0 0 255
0 0.80807978 0 255 0 0 255
0 0.94292718 0 255 0 0 255
0 0.99772197 0 255 0 0 255
0 0.40437657 0 255 0 0 255
0 0.22836308 0 255 0 0 255
0 0.30607188 0 255 0 0 255
0 0.06414216 0 255 0 0 255
0 0.55435526 0 255 0 0 255
0 0.77681476 0 255 0 0 255
0 0.65102005 0 255 0 0 255
0 0.79524148 0 255 0 0 255
0 0.10034322 0 255 0 0 255
0 0.38726911 0 255 0 0 255
0 0.53592253 0 255 0 0 255
0 0.025351845 0 255 0 0 255
0 0.71853453 0 255 0 0 255
0 0.16917895 0 255 0 0 255
0 0.33421278 0 255 0 0 255
0 0.75306636 0 255 0 0 255
0 0.17979105 0 255 0 0 255
0 0.88460809 0 255 0 0 255
0 0.26014417 0 255 0 0 255
0 0.038044795 0 255 0 0 255
0 0.92139411 0 255 0 0 255
0 0.68096811 0 255 0 0 255
0 0.28555021 0 255 0 0 255
0 0.057511892 0 255 0 0 255
0 0.4946613 0 255 0 0 255
0 0.849159 0 255 0 0 255
0 0.25502989 0 255 0 0 255
0 0.078001767 0 255 0 0 255
0 0.65723884 0 255 0 0 255
0 0.19795708 0 255 0 0 255
0 0.075723715 0 255 0 0 255
0 0.061615393 0 255 0 0 255
0 0.42632017 0 255 0 0 255
0 0.38179559 0 255 0 0 255
0 0.12575755 0 255 0 0 255
0 0.98067546 0 255 0 0 255
0 0.15861031 0 255 0 0 255
0 0.77677757 0 255 0 0 255
0 0.77591693 0 255 0 0 255
0 0.25895354 0 255 0 0 255
0 0.16404669 0 255 0 0 255
0 0.31183946 0 255 0 0 255
0 0.28430536 0 255 0 0 255
0 0.88258117 0 255 0 0 255
0 0.48101842 0 255 0 0 255
0 0.61851817 0 255 0 0 255
0 0.63564754 0 255 0 0 255
0 0.66080946 0 255 0 0 255
0 0.50312626 0 255 0 0 255
0 0.89579171 0 255 0 0 255
0 0.69885427 0 255 0 0 255
0 0.42452037 0 255 0 0 255
0 0.57675982 0 255 0 0 255
0 0.98440444 0 255 0 0 255
0 0.48203224 0 255 0 0 255
0 0.071421139 0 255 0 0 255
0 0.83356345 0 255 0 0 255
0 0.73706216 0 255 0 0 255
0 0.1494229 0 255 0 0 255
0 0.49080229 0 255 0 0 255
0 0.9350192 0 255 0 0 255
0 0.22514662 0 255 0 0 255
0 0.5524177 0 255 0 0 255
0 0.36133936 0 255 0 0 255
0 0.60694218 0 255 0 0 255
0 0.67817521 0 255 0 0 255
0 0.34201482 0 255 0 0 255
0 0.76555252 0 255 0 0 255
0 0.45495281 0 255 0 0 255
0 0.11793177 0 255 0 0 255
0 0.02450604 0 255 0 0 255
0 0.61899948 0 255 0 0 255
0 0.42977124 0 255 0 0 255
0 0.30881143 0 255 0 0 255
0 0.50158072 0 255 0 0 255
0 0.91078967 0 255 0 0 255
0 0.9273296 0 255 0 0 255
0 0.13722824 0 255 0 0 255
0 0.57159913 0 255 0 0 255
0 0.4304558 0 255 0 0 255
0 0.033019956 0 255 0 0 255
0 0.27045339 0 255 0 0 255
0 0.85497618 0 255 0 0 255
0 0.60977978 0 255 0 0 255
0 0.25485784 0 255 0 0 255
0 0.33700842 0 255 0 0 255
0 0.68120092 0 255 0 0 255
0 0.0884213 0 255 0 0 255
0 0.074070543 0 255 0 0 255
0 0.83062381 0 255 0 0 255
0 0.57922357 0 255 0 0 255
0 0.0090897512 0 255 0 0 255
0 0.055770446 0 255 0 0 255
0 0.13164127 0 255 0 0 255
0 0.37042913 0 255 0 0 255
0 0.66271263 0 255 0 0 255
0 0.80981648 0 255 0 0 255
0 0.71244395 0 255 0 0 255
0 0.42826515 0 255 0 0 255
0 0.26476932 0 255 0 0 255
0 0.83037573 0 255 0 0 255
0 0.45277119 0 255 0 0 255
0 0.8837688 0 255 0 0 255
0 0.26014695 0 255 0 0 255
0 0.76158261 0 255 0 0 255
0 0.38534951 0 255 0 0 255
0 0.17093661 0 255 0 0 255
0 0.68891215 0 255 0 0 255
0 0.52257776 0 255 0 0 255
0 0.74253577 0 255 0 0 255
0 0.11936799 0 255 0 0 255
0 0.55559772 0 255 0 0 255
0 0.012989123 0 255 0 0 255
0 0.97434413 0 255 0 0 255
0 0.1653775 0 255 0 0 255
0 0.26784697 0 255 0 0 255
0 0.31135258 0 255 0 0 255
0 0.84657842 0 255 0 0 255
0 0.35626826 0 255 0 0 255
0 0.38542312 0 255 0 0 255
0 0.67720222 0 255 0 0 255
0 0.93549186 0 255 0 0 255
0 0.39451286 0 255 0 0 255
0 0.73297268 0 255 0 0 255
0 0.067133121 0 255 0 0 255
0 0.76494199 0 255 0 0 255
0 0.39568534 0 255 0 0 255
0 0.87694961 0 255 0 0 255
0 0.47738594 0 255 0 0 255
0 0.82395047 0 255 0 0 255
0 0.14171892 0 255 0 0 255
0 0.30776167 0 255 0 0 255
0 0.27672169 0 255 0 0 255
0 0.025487732 0 255 0 0 255
0 0.56790864 0 255 0 0 255
0 0.038304295 0 255 0 0 255
0 0.41083726 0 255 0 0 255
0 0.73884523 0 255 0 0 255
0 0.72721648 0 255 0 0 255
0 0.933415 0 255 0 0 255
0 0.481381 0 255 0 0 255
0 0.84658444 0 255 0 0 255
0 0.48901275 0 255 0 0 255
0 0.4943701 0 255 0 0 255
0 0.82092863 0 255 0 0 255
0 0.65439022 0 255 0 0 255
0 0.76221704 0 255 0 0 255
0 0.13228118 0 255 0 0 255
0 0.50096869 0 255 0 0 255
0 0.11848533 0 255 0 0 255
0 0.51770431 0 255 0 0 255
0 0.17817092 0 255 0 0 255
0 0.05397718 0 255 0 0 255
0 0.91221714 0 255 0 0 255
0 0.9111436 0 255 0 0 255
0 0.1211103 0 255 0 0 255
0 0.67715913 0 255 0 0 255
0 0.30682895 0 255 0 0 255
0 0.99805993 0 255 0 0 255
0 0.1545451 0 255 0 0 255
0 0.13077945 0 255 0 0 255
0 0.13977884 0 255 0 0 255
0 0.46230677 0 255 0 0 255
0 0.40750113 0 255 0 0 255
0 0.16526656 0 255 0 0 255
0 0.030215384 0 255 0 0 255
0 0.44580543 0 255 0 0 255
0 0.57610381 0 255 0 0 255
0 0.76906061 0 255 0 0 255
0 0.1730219 0 255 0 0 255
0 0.50951886 0 255 0 0 255
0 0.25044161 0 255 0 0 255
0 0.019606367 0 255 0 0 255
0 0.99853158 0 255 0 0 255
0 0.74481171 0 255 0 0 255
0 0.84053499 0 255 0 0 255
0 0.6529218 0 255 0 0 255
0 0.50702882 0 255 0 0 255
0 0.97281617 0 255 0 0 255
0 0.15389048 0 255 0 0 255
0 0.62551409 0 255 0 0 255
0 0.49052048 0 255 0 0 255
0 0.33206138 0 255 0 0 255
0 0.67949128 0 255 0 0 255
0 0.40273765 0 255 0 0 255
0 0.243205 0 255 0 0 255
0 0.8006016 0 255 0 0 255
0 0.079896785 0 255 0 0 255
0 0.55003393 0 255 0 0 255
0 0.79866153 0 255 0 0 255
0 0.23444188 0 255 0 0 255
0 0.68081337 0 255 0 0 255
0 0.93844032 0 255 0 0 255
0 0.69674861 0 255 0 0 255
0 0.088314526 0 255 0 0 255
0 0.10370691 0 255 0 0 255
0 0.726964 0 255 0 0 255
0 0.53411996 0 255 0 0 255
0 0.6798107 0 255 0 0 255
0 0.49602464 0 255 0 0 255
0 0.70714188 0 255 0 0 255
0 0.18932956 0 255 0 0 255
0 0.74646628 0 255 0 0 255
0 0.72674823 0 255 0 0 255
0 0.18786113 0 255 0 0 255
0 0.49127799 0 255 0 0 255
0 0.56728321 0 255 0 0 255
0 0.84078294 0 255 0 0 255
0 0.99830675 0 255 0 0 255
0 0.54009938 0 255 0 0 255
0 0.99467343 0 255 0 0 255
0 0.6238209 0 255 0 0 255
0 0.030619854 0 255 0 0 255
0 0.32673481 0 255 0 0 255
0 0.30331218 0 255 0 0 255
0 0.43335748 0 255 0 0 255
0 0.56993979 0 255 0 0 255
0 0.10391378 0 255 0 0 255
0 0.51325428 0 255 0 0 255
0 0.11997376 0 255 0 0 255
0 0.90257531 0 255 0 0 255
0 0.74769616 0 255 0 0 255
0 0.80078715 0 255 0 0 255
0 0.84101564 0 255 0 0 255
0 0.44444478 0 255 0 0 255
0 0.88910168 0 255 0 0 255
0 0.94472253 0 255 0 0 255
0 0.17140882 0 255 0 0 255
0 0.42322165 0 255 0 0 255
0 0.6245333 0 255 0 0 255
0 0.66743344 0 255 0 0 255
0 0.13036349 0 255 0 0 255
0 0.81386286 0 255 0 0 255
0 0.41389972 0 255 0 0 255
0 0.85711169 0 255 0 0 255
0 0.0017239642 0 255 0 0 255
0 0.90517771 0 255 0 0 255
0 0.42439494 0 255 0 0 255
0 0.84250689 0 255 0 0 255
0 0.90348446 0 255 0 0 255
0 0.96449429 0 255 0 0 255
0 0.83718032 0 255 0 0 255
0 0.52730536 0 255 0 0 255
0 0.99511415 0 255 0 0 255
0 0.16391511 0 255 0 0 255
0 0.83061755 0 255 0 0 255
0 0.42847165 0 255 0 0 255
0 0.73385489 0 255 0 0 255
0 0.93453133 0 255 0 0 255
0 0.94172591 0 255 0 0 255
0 0.85382867 0 255 0 0 255
0 0.83710665 0 255 0 0 255
0 0.68942207 0 255 0 0 255
0 0.65461582 0 255 0 0 255
0 0.67812228 0 255 0 0 255
0 0.13386686 0 255 0 0 255
0 0.5437175 0 255 0 0 255
0 0.62284487 0 255 0 0 255
0 0.30527568 0 255 0 0 255
0 0.96693915 0 255 0 0 255
0 0.24737813 0 255 0 0 255
0 0.97270912 0 255 0 0 255
0 0.097302631 0 255 0 0 255
0 0.06124096 0 255 0 0 255
0 0.38660887 0 255 0 0 255
0 0.95441437 0 255 0 0 255
0 0.062964924 0 255 0 0 255
0 0.29178655 0 255 0 0 255
0 0.37880927 0 255 0 0 255
0 0.9054718 0 255 0 0 255
0 0.19527104 0 255 0 0 255
0 0.34330356 0 255 0 0 255
0 0.74265212 0 255 0 0 255
0 0.72257644 0 255 0 0 255
0 0.33841774 0 255 0 0 255
0 0.90656722 0 255 0 0 255
0 0.55319399 0 255 0 0 255
0 0.76688939 0 255 0 0 255
0 0.64042217 0 255 0 0 255
0 0.48772532 0 255 0 0 255
0 0.7086153 0 255 0 0 255
0 0.4942508 0 255 0 0 255
0 0.32483199 0 255 0 0 255
0 0.39803737 0 255 0 0 255
0 0.14886662 0 255 0 0 255
0 0.0029542753 0 255 0 0 255
0 0.53190422 0 255 0 0 255
0 0.6925841 0 255 0 0 255
0 0.62579912 0 255 0 0 255
0 0.8371799 0 255 0 0 255
0 0.65952325 0 255 0 0 255
0 0.87317723 0 255 0 0 255
0 0.80988902 0 255 0 0 255
0 0.75682586 0 255 0 0 255
0 0.9344182 0 255 0 0 255
0 0.1964979 0 255 0 0 255
0 0.71124023 0 255 0 0 255
0 0.99738312 0 255 0 0 255
0 0.48828447 0 255 0 0 255
0 0.090049505 0 255 0 0 255
0 0.90285498 0 255 0 0 255
0 0.68355548 0 255 0 0 255
0 0.43335307 0 255 0 0 255
0 0.6455071 0 255 0 0 255
0 0.40613192 0 255 0 0 255
0 0.77177083 0 255 0 0 255
0 0.55207431 0 255 0 0 255
0 0.95932591 0 255 0 0 255
0 0.53866017 0 255 0 0 255
0 0.19249648 0 255 0 0 255
0 0.44705123 0 255 0 0 255
0 0.2472755 0 255 0 0 255
0 0.68674725 0 255 0 0 255
0 0.77188319 0 255 0 0 255
0 0.64531285 0 255 0 0 255
0 0.83561391 0 255 0 0 255
0 0.77483749 0 255 0 0 255
0 0.17721711 0 255 0 0 255
0 0.528198 0 255 0 0 255
0 0.40063661 0 255 0 0 255
0 0.014397019 0 255 0 0 255
0 0.18772128 0 255 0 0 255
0 0.27381387 0 255 0 0 255
0 0.82428604 0 255 0 0 255
0 0.94454718 0 255 0 0 255
0 0.20823206 0 255 0 0 255
0 0.020783961 0 255 0 0 255
0 0.65578741 0 255 0 0 255
0 0.20561519 0 255 0 0 255
0 0.50906843 0 255 0 0 255
0 0.74583691 0 255 0 0 255
0 0.10847015 0 255 0 0 255
0 0.19262393 0 255 0 0 255
0 0.17919001 0 255 0 0 255
0 0.75397724 0 255 0 0 255
0 0.59875584 0 255 0 0 255
0 0.95096081 0 255 0 0 255
0 0.30605158 0 255 0 0 255
0 0.55808175 0 255 0 0 255
0 0.48962101 0 255 0 0 255
0 0 0 1 0 0 0 1 0 0 0 1 0 0 0 0 0 801 1 0 0
