ply
format ascii 1.0
comment PCL generated
element vertex 1206
property float x
property float y
property float z
property uchar red
property uchar green
property uchar blue
property uchar alpha
element camera 1
property float view_px
property float view_py
property float view_pz
property float x_axisx
property float x_axisy
property float x_axisz
property float y_axisx
property float y_axisy
property float y_axisz
property float z_axisx
property float z_axisy
property float z_axisz
property float focal
property float scalex
property float scaley
property float centerx
property float centery
property int viewportx
property int viewporty
property float k1
property float k2
end_header
0 0.069190152 0.93080986 255 0 0 255
0 0.96261108 0.037388921 255 0 0 255
0 0.63140571 0.36859429 255 0 0 255
0 0.45117432 0.54882568 255 0 0 255
0 0.18079452 0.81920546 255 0 0 255
0 0.41884601 0.58115399 255 0 0 255
0 0.545259 0.454741 255 0 0 255
0 0.37688789 0.62311208 255 0 0 255
0 0.74410206 0.25589794 255 0 0 255
0 0.91186517 0.088134825 255 0 0 255
0 0.42044908 0.57955092 255 0 0 255
0 0.42735484 0.57264519 255 0 0 255
0 0.023715431 0.97628456 255 0 0 255
0 0.46540782 0.53459215 255 0 0 255
0 0.15509097 0.84490901 255 0 0 255
0 0.078577362 0.92142266 255 0 0 255
0 0.71940976 0.28059024 255 0 0 255
0 0.62330174 0.37669826 255 0 0 255
0 0.25138941 0.74861062 255 0 0 255
0 0.26109231 0.73890769 255 0 0 255
0 0.3085739 0.6914261 255 0 0 255
0 0.042069517 0.95793051 255 0 0 255
0 0.05104788 0.94895214 255 0 0 255
0 0.49923787 0.5007621 255 0 0 255
0 0.070146099 0.92985392 255 0 0 255
0 0.29129842 0.70870161 255 0 0 255
0 0.27080205 0.72919798 255 0 0 255
0 0.91374177 0.086258233 255 0 0 255
0 0.98275924 0.017240763 255 0 0 255
0 0.58530861 0.41469139 255 0 0 255
0 0.24796583 0.75203419 255 0 0 255
0 0.051949412 0.94805062 255 0 0 255
0 0.54791975 0.45208025 255 0 0 255
0 0.87937152 0.12062848 255 0 0 255
0 0.5031237 0.4968763 255 0 0 255
0 0.72871423 0.27128577 255 0 0 255
0 0.29821756 0.70178246 255 0 0 255
0 0.048382707 0.9516173 255 0 0 255
0 0.10560214 0.89439785 255 0 0 255
0 0.042319603 0.9576804 255 0 0 255
0 0.96024787 0.039752126 255 0 0 255
0 0.52605122 0.47394878 255 0 0 255
0 0.46967447 0.53032553 255 0 0 255
0 0.98396331 0.016036689 255 0 0 255
0 0.99145907 0.0085409284 255 0 0 255
0 0.6247654 0.3752346 255 0 0 255
0 0.062540665 0.93745935 255 0 0 255
0 0.71086878 0.28913122 255 0 0 255
0 0.24806719 0.7519328 255 0 0 255
0 0.31393009 0.68606991 255 0 0 255
0 0.97196108 0.028038919 255 0 0 255
0 0.5566411 0.4433589 255 0 0 255
0 0.35599959 0.64400041 255 0 0 255
0 0.023008961 0.97699106 255 0 0 255
0 0.055878941 0.94412106 255 0 0 255
0 0.4261457 0.57385433 255 0 0 255
0 0.31430736 0.68569267 255 0 0 255
0 0.32668099 0.67331898 255 0 0 255
0 0.33988747 0.6601125 255 0 0 255
0 0.29706663 0.70293337 255 0 0 255
0 0.91198963 0.088010371 255 0 0 255
0 0.58785331 0.41214669 255 0 0 255
0 0.34901604 0.65098393 255 0 0 255
0 0.45990932 0.54009068 255 0 0 255
0 0.46722484 0.53277516 255 0 0 255
0 0.85213977 0.14786023 255 0 0 255
0 0.18862356 0.81137645 255 0 0 255
0 0.76544243 0.23455757 255 0 0 255
0 0.90052247 0.09947753 255 0 0 255
0 0.29422572 0.70577431 255 0 0 255
0 0.80776203 0.19223797 255 0 0 255
0 0.86077034 0.13922966 255 0 0 255
0 0.82027692 0.17972308 255 0 0 255
0 0.27743647 0.72256351 255 0 0 255
0 0.84473366 0.15526634 255 0 0 255
0 0.81173599 0.18826401 255 0 0 255
0 0.90220189 0.097798109 255 0 0 255
0 0.90727431 0.092725694 255 0 0 255
0 0.52260476 0.47739524 255 0 0 255
0 0.15026906 0.84973097 255 0 0 255
0 0.22120439 0.7787956 255 0 0 255
0 0.49456584 0.50543416 255 0 0 255
0 0.70691013 0.29308987 255 0 0 255
0 0.57720399 0.42279601 255 0 0 255
0 0.51757479 0.48242521 255 0 0 255
0 0.76278907 0.23721093 255 0 0 255
0 0.0033496907 0.99665034 255 0 0 255
0 0.83188218 0.16811782 255 0 0 255
0 0.089470074 0.91052991 255 0 0 255
0 0.34323716 0.65676284 255 0 0 255
0 0.12894882 0.87105119 255 0 0 255
0 0.0014596782 0.99854034 255 0 0 255
0 0.93109047 0.068909526 255 0 0 255
0 0.47796485 0.52203512 255 0 0 255
0 0.46136901 0.53863096 255 0 0 255
0 0.39831531 0.60168469 255 0 0 255
0 0.33010462 0.66989541 255 0 0 255
0 0.64999259 0.35000741 255 0 0 255
0 0.16375773 0.83624226 255 0 0 255
0 0.2306271 0.76937288 255 0 0 255
0 0.94421828 0.055781722 255 0 0 255
0 0.97151971 0.028480291 255 0 0 255
0 0.091397449 0.90860254 255 0 0 255
0 0.76449519 0.23550481 255 0 0 255
0 0.24895619 0.7510438 255 0 0 255
0 0.93613112 0.06386888 255 0 0 255
0 0.57623118 0.42376882 255 0 0 255
0 0.15115806 0.84884191 255 0 0 255
0 0.84340543 0.15659457 255 0 0 255
0 0.098835967 0.90116405 255 0 0 255
0 0.30142713 0.69857287 255 0 0 255
0 0.064609796 0.93539023 255 0 0 255
0 0.59340179 0.40659821 255 0 0 255
0 0.0083372872 0.99166274 255 0 0 255
0 0.64181381 0.35818619 255 0 0 255
0 0.11097662 0.88902336 255 0 0 255
0 0.77112639 0.22887361 255 0 0 255
0 0.64516348 0.35483652 255 0 0 255
0 0.94285882 0.057141185 255 0 0 255
0 0.86059648 0.13940352 255 0 0 255
0 0.98840064 0.011599362 255 0 0 255
0 0.071807623 0.92819238 255 0 0 255
0 0.86205614 0.13794386 255 0 0 255
0 0.91949111 0.080508888 255 0 0 255
0 0.5497725 0.4502275 255 0 0 255
0 0.32342514 0.67657483 255 0 0 255
0 0.31780645 0.68219352 255 0 0 255
0 0.87987709 0.12012291 255 0 0 255
0 0.9734177 0.026582301 255 0 0 255
0 0.48156419 0.51843584 255 0 0 255
0 0.11050422 0.88949579 255 0 0 255
0 0.91763598 0.082364023 255 0 0 255
0 0.4530839 0.54691613 255 0 0 255
0 0.20190167 0.79809833 255 0 0 255
0 0.68213123 0.31786877 255 0 0 255
0 0.70204008 0.29795992 255 0 0 255
0 0.13803276 0.86196721 255 0 0 255
0 0.25836241 0.74163759 255 0 0 255
0 0.85319817 0.14680183 255 0 0 255
0 0.98143816 0.01856184 255 0 0 255
0 0.35719839 0.64280164 255 0 0 255
0 0.15462531 0.8453747 255 0 0 255
0 0.046047963 0.95395201 255 0 0 255
0 0.95060021 0.049399793 255 0 0 255
0 0.1629626 0.83703738 255 0 0 255
0 0.68786174 0.31213826 255 0 0 255
0 0.061576817 0.93842316 255 0 0 255
0 0.934089 0.065910995 255 0 0 255
0 0.33302522 0.66697478 255 0 0 255
0 0.0044356263 0.9955644 255 0 0 255
0 0.79468542 0.20531458 255 0 0 255
0 0.32142588 0.67857409 255 0 0 255
0 0.076243252 0.92375672 255 0 0 255
0 0.65674156 0.34325844 255 0 0 255
0 0.24091701 0.75908297 255 0 0 255
0 0.62601572 0.37398428 255 0 0 255
0 0.98016667 0.019833326 255 0 0 255
0 0.55872345 0.44127655 255 0 0 255
0 0.50589287 0.49410713 255 0 0 255
0 0.95358437 0.046415627 255 0 0 255
0 0.040287644 0.95971239 255 0 0 255
0 0.61639708 0.38360292 255 0 0 255
0 0.87122041 0.12877959 255 0 0 255
0 0.49337155 0.50662845 255 0 0 255
0 0.81829876 0.18170124 255 0 0 255
0 0.55335158 0.44664842 255 0 0 255
0 0.19541165 0.80458832 255 0 0 255
0 0.95633149 0.043668509 255 0 0 255
0 0.81171399 0.18828601 255 0 0 255
0 0.04860983 0.95139015 255 0 0 255
0 0.93776965 0.062230349 255 0 0 255
0 0.16891241 0.83108759 255 0 0 255
0 0.20323515 0.79676485 255 0 0 255
0 0.98381764 0.016182363 255 0 0 255
0 0.1195126 0.88048738 255 0 0 255
0 0.36619774 0.63380229 255 0 0 255
0 0.67167938 0.32832062 255 0 0 255
0 0.18108942 0.8189106 255 0 0 255
0 0.30028671 0.69971329 255 0 0 255
0 0.0047046174 0.99529541 255 0 0 255
0 0.18552504 0.81447494 255 0 0 255
0 0.094972149 0.90502787 255 0 0 255
0 0.32613051 0.67386949 255 0 0 255
0 0.26176828 0.73823172 255 0 0 255
0 0.75171369 0.24828631 255 0 0 255
0 0.56704754 0.43295246 255 0 0 255
0 0.887784 0.112216 255 0 0 255
0 0.73188037 0.26811963 255 0 0 255
0 0.12577097 0.87422901 255 0 0 255
0 0.39367688 0.60632312 255 0 0 255
0 0.6854648 0.3145352 255 0 0 255
0 0.16605861 0.8339414 255 0 0 255
0 0.010073949 0.98992604 255 0 0 255
0 0.55668515 0.44331485 255 0 0 255
0 0.65943015 0.34056985 255 0 0 255
0 0.82837266 0.17162734 255 0 0 255
0 0.11003679 0.88996321 255 0 0 255
0 0.85484183 0.14515817 255 0 0 255
0 0.78470421 0.21529579 255 0 0 255
0 0.92175078 0.078249216 255 0 0 255
0 0.90345168 0.096548319 255 0 0 255
0.069190152 0 0.93080986 255 0 0 255
0.96261108 0 0.037388921 255 0 0 255
0.63140571 0 0.36859429 255 0 0 255
0.45117432 0 0.54882568 255 0 0 255
0.18079452 0 0.81920546 255 0 0 255
0.41884601 0 0.58115399 255 0 0 255
0.545259 0 0.454741 255 0 0 255
0.37688789 0 0.62311208 255 0 0 255
0.74410206 0 0.25589794 255 0 0 255
0.91186517 0 0.088134825 255 0 0 255
0.42044908 0 0.57955092 255 0 0 255
0.42735484 0 0.57264519 255 0 0 255
0.023715431 0 0.97628456 255 0 0 255
0.46540782 0 0.53459215 255 0 0 255
0.15509097 0 0.84490901 255 0 0 255
0.078577362 0 0.92142266 255 0 0 255
0.71940976 0 0.28059024 255 0 0 255
0.62330174 0 0.37669826 255 0 0 255
0.25138941 0 0.74861062 255 0 0 255
0.26109231 0 0.73890769 255 0 0 255
0.3085739 0 0.6914261 255 0 0 255
0.042069517 0 0.95793051 255 0 0 255
0.05104788 0 0.94895214 255 0 0 255
0.49923787 0 0.5007621 255 0 0 255
0.070146099 0 0.92985392 255 0 0 255
0.29129842 0 0.70870161 255 0 0 255
0.27080205 0 0.72919798 255 0 0 255
0.91374177 0 0.086258233 255 0 0 255
0.98275924 0 0.017240763 255 0 0 255
0.58530861 0 0.41469139 255 0 0 255
0.24796583 0 0.75203419 255 0 0 255
0.051949412 0 0.94805062 255 0 0 255
0.54791975 0 0.45208025 255 0 0 255
0.87937152 0 0.12062848 255 0 0 255
0.5031237 0 0.4968763 255 0 0 255
0.72871423 0 0.27128577 255 0 0 255
0.29821756 0 0.70178246 255 0 0 255
0.048382707 0 0.9516173 255 0 0 255
0.10560214 0 0.89439785 255 0 0 255
0.042319603 0 0.9576804 255 0 0 255
0.96024787 0 0.039752126 255 0 0 255
0.52605122 0 0.47394878 255 0 0 255
0.46967447 0 0.53032553 255 0 0 255
0.98396331 0 0.016036689 255 0 0 255
0.99145907 0 0.0085409284 255 0 0 255
0.6247654 0 0.3752346 255 0 0 255
0.062540665 0 0.93745935 255 0 0 255
0.71086878 0 0.28913122 255 0 0 255
0.24806719 0 0.7519328 255 0 0 255
0.31393009 0 0.68606991 255 0 0 255
0.97196108 0 0.028038919 255 0 0 255
0.5566411 0 0.4433589 255 0 0 255
0.35599959 0 0.64400041 255 0 0 255
0.023008961 0 0.97699106 255 0 0 255
0.055878941 0 0.94412106 255 0 0 255
0.4261457 0 0.57385433 255 0 0 255
0.31430736 0 0.68569267 255 0 0 255
0.32668099 0 0.67331898 255 0 0 255
0.33988747 0 0.6601125 255 0 0 255
0.29706663 0 0.70293337 255 0 0 255
0.91198963 0 0.088010371 255 0 0 255
0.58785331 0 0.41214669 255 0 0 255
0.34901604 0 0.65098393 255 0 0 255
0.45990932 0 0.54009068 255 0 0 255
0.46722484 0 0.53277516 255 0 0 255
0.85213977 0 0.14786023 255 0 0 255
0.18862356 0 0.81137645 255 0 0 255
0.76544243 0 0.23455757 255 0 0 255
0.90052247 0 0.09947753 255 0 0 255
0.29422572 0 0.70577431 255 0 0 255
0.80776203 0 0.19223797 255 0 0 255
0.86077034 0 0.13922966 255 0 0 255
0.82027692 0 0.17972308 255 0 0 255
0.27743647 0 0.72256351 255 0 0 255
0.84473366 0 0.15526634 255 0 0 255
0.81173599 0 0.18826401 255 0 0 255
0.90220189 0 0.097798109 255 0 0 255
0.90727431 0 0.092725694 255 0 0 255
0.52260476 0 0.47739524 255 0 0 255
0.15026906 0 0.84973097 255 0 0 255
0.22120439 0 0.7787956 255 0 0 255
0.49456584 0 0.50543416 255 0 0 255
0.70691013 0 0.29308987 255 0 0 255
0.57720399 0 0.42279601 255 0 0 255
0.51757479 0 0.48242521 255 0 0 255
0.76278907 0 0.23721093 255 0 0 255
0.0033496907 0 0.99665034 255 0 0 255
0.83188218 0 0.16811782 255 0 0 255
0.089470074 0 0.91052991 255 0 0 255
0.34323716 0 0.65676284 255 0 0 255
0.12894882 0 0.87105119 255 0 0 255
0.0014596782 0 0.99854034 255 0 0 255
0.93109047 0 0.068909526 255 0 0 255
0.47796485 0 0.52203512 255 0 0 255
0.46136901 0 0.53863096 255 0 0 255
0.39831531 0 0.60168469 255 0 0 255
0.33010462 0 0.66989541 255 0 0 255
0.64999259 0 0.35000741 255 0 0 255
0.16375773 0 0.83624226 255 0 0 255
0.2306271 0 0.76937288 255 0 0 255
0.94421828 0 0.055781722 255 0 0 255
0.97151971 0 0.028480291 255 0 0 255
0.091397449 0 0.90860254 255 0 0 255
0.76449519 0 0.23550481 255 0 0 255
0.24895619 0 0.7510438 255 0 0 255
0.93613112 0 0.06386888 255 0 0 255
0.57623118 0 0.42376882 255 0 0 255
0.15115806 0 0.84884191 255 0 0 255
0.84340543 0 0.15659457 255 0 0 255
0.098835967 0 0.90116405 255 0 0 255
0.30142713 0 0.69857287 255 0 0 255
0.064609796 0 0.93539023 255 0 0 255
0.59340179 0 0.40659821 255 0 0 255
0.0083372872 0 0.99166274 255 0 0 255
0.64181381 0 0.35818619 255 0 0 255
0.11097662 0 0.88902336 255 0 0 255
0.77112639 0 0.22887361 255 0 0 255
0.64516348 0 0.35483652 255 0 0 255
0.94285882 0 0.057141185 255 0 0 255
0.86059648 0 0.13940352 255 0 0 255
0.98840064 0 0.011599362 255 0 0 255
0.071807623 0 0.92819238 255 0 0 255
0.86205614 0 0.13794386 255 0 0 255
0.91949111 0 0.080508888 255 0 0 255
0.5497725 0 0.4502275 255 0 0 255
0.32342514 0 0.67657483 255 0 0 255
0.31780645 0 0.68219352 255 0 0 255
0.87987709 0 0.12012291 255 0 0 255
0.9734177 0 0.026582301 255 0 0 255
0.48156419 0 0.51843584 255 0 0 255
0.11050422 0 0.88949579 255 0 0 255
0.91763598 0 0.082364023 255 0 0 255
0.4530839 0 0.54691613 255 0 0 255
0.20190167 0 0.79809833 255 0 0 255
0.68213123 0 0.31786877 255 0 0 255
0.70204008 0 0.29795992 255 0 0 255
0.13803276 0 0.86196721 255 0 0 255
0.25836241 0 0.74163759 255 0 0 255
0.85319817 0 0.14680183 255 0 0 255
0.98143816 0 0.01856184 255 0 0 255
0.35719839 0 0.64280164 255 0 0 255
0.15462531 0 0.8453747 255 0 0 255
0.046047963 0 0.95395201 255 0 0 255
0.95060021 0 0.049399793 255 0 0 255
0.1629626 0 0.83703738 255 0 0 255
0.68786174 0 0.31213826 255 0 0 255
0.061576817 0 0.93842316 255 0 0 255
0.934089 0 0.065910995 255 0 0 255
0.33302522 0 0.66697478 255 0 0 255
0.0044356263 0 0.9955644 255 0 0 255
0.79468542 0 0.20531458 255 0 0 255
0.32142588 0 0.67857409 255 0 0 255
0.076243252 0 0.92375672 255 0 0 255
0.65674156 0 0.34325844 255 0 0 255
0.24091701 0 0.75908297 255 0 0 255
0.62601572 0 0.37398428 255 0 0 255
0.98016667 0 0.019833326 255 0 0 255
0.55872345 0 0.44127655 255 0 0 255
0.50589287 0 0.49410713 255 0 0 255
0.95358437 0 0.046415627 255 0 0 255
0.040287644 0 0.95971239 255 0 0 255
0.61639708 0 0.38360292 255 0 0 255
0.87122041 0 0.12877959 255 0 0 255
0.49337155 0 0.50662845 255 0 0 255
0.81829876 0 0.18170124 255 0 0 255
0.55335158 0 0.44664842 255 0 0 255
0.19541165 0 0.80458832 255 0 0 255
0.95633149 0 0.043668509 255 0 0 255
0.81171399 0 0.18828601 255 0 0 255
0.04860983 0 0.95139015 255 0 0 255
0.93776965 0 0.062230349 255 0 0 255
0.16891241 0 0.83108759 255 0 0 255
0.20323515 0 0.79676485 255 0 0 255
0.98381764 0 0.016182363 255 0 0 255
0.1195126 0 0.88048738 255 0 0 255
0.36619774 0 0.63380229 255 0 0 255
0.67167938 0 0.32832062 255 0 0 255
0.18108942 0 0.8189106 255 0 0 255
0.30028671 0 0.69971329 255 0 0 255
0.0047046174 0 0.99529541 255 0 0 255
0.18552504 0 0.81447494 255 0 0 255
0.094972149 0 0.90502787 255 0 0 255
0.32613051 0 0.67386949 255 0 0 255
0.26176828 0 0.73823172 255 0 0 255
0.75171369 0 0.24828631 255 0 0 255
0.56704754 0 0.43295246 255 0 0 255
0.887784 0 0.112216 255 0 0 255
0.73188037 0 0.26811963 255 0 0 255
0.12577097 0 0.87422901 255 0 0 255
0.39367688 0 0.60632312 255 0 0 255
0.6854648 0 0.3145352 255 0 0 255
0.16605861 0 0.8339414 255 0 0 255
0.010073949 0 0.98992604 255 0 0 255
0.55668515 0 0.44331485 255 0 0 255
0.65943015 0 0.34056985 255 0 0 255
0.82837266 0 0.17162734 255 0 0 255
0.11003679 0 0.88996321 255 0 0 255
0.85484183 0 0.14515817 255 0 0 255
0.78470421 0 0.21529579 255 0 0 255
0.92175078 0 0.078249216 255 0 0 255
0.90345168 0 0.096548319 255 0 0 255
0.069190152 0.93080986 0 255 0 0 255
0.96261108 0.037388921 0 255 0 0 255
0.63140571 0.36859429 0 255 0 0 255
0.45117432 0.54882568 0 255 0 0 255
0.18079452 0.81920546 0 255 0 0 255
0.41884601 0.58115399 0 255 0 0 255
0.545259 0.454741 0 255 0 0 255
0.37688789 0.62311208 0 255 0 0 255
0.74410206 0.25589794 0 255 0 0 255
0.91186517 0.088134825 0 255 0 0 255
0.42044908 0.57955092 0 255 0 0 255
0.42735484 0.57264519 0 255 0 0 255
0.023715431 0.97628456 0 255 0 0 255
0.46540782 0.53459215 0 255 0 0 255
0.15509097 0.84490901 0 255 0 0 255
0.078577362 0.92142266 0 255 0 0 255
0.71940976 0.28059024 0 255 0 0 255
0.62330174 0.37669826 0 255 0 0 255
0.25138941 0.74861062 0 255 0 0 255
0.26109231 0.73890769 0 255 0 0 255
0.3085739 0.6914261 0 255 0 0 255
0.042069517 0.95793051 0 255 0 0 255
0.05104788 0.94895214 0 255 0 0 255
0.49923787 0.5007621 0 255 0 0 255
0.070146099 0.92985392 0 255 0 0 255
0.29129842 0.70870161 0 255 0 0 255
0.27080205 0.72919798 0 255 0 0 255
0.91374177 0.086258233 0 255 0 0 255
0.98275924 0.017240763 0 255 0 0 255
0.58530861 0.41469139 0 255 0 0 255
0.24796583 0.75203419 0 255 0 0 255
0.051949412 0.94805062 0 255 0 0 255
0.54791975 0.45208025 0 255 0 0 255
0.87937152 0.12062848 0 255 0 0 255
0.5031237 0.4968763 0 255 0 0 255
0.72871423 0.27128577 0 255 0 0 255
0.29821756 0.70178246 0 255 0 0 255
0.048382707 0.9516173 0 255 0 0 255
0.10560214 0.89439785 0 255 0 0 255
0.042319603 0.9576804 0 255 0 0 255
0.96024787 0.039752126 0 255 0 0 255
0.52605122 0.47394878 0 255 0 0 255
0.46967447 0.53032553 0 255 0 0 255
0.98396331 0.016036689 0 255 0 0 255
0.99145907 0.0085409284 0 255 0 0 255
0.6247654 0.3752346 0 255 0 0 255
0.062540665 0.93745935 0 255 0 0 255
0.71086878 0.28913122 0 255 0 0 255
0.24806719 0.7519328 0 255 0 0 255
0.31393009 0.68606991 0 255 0 0 255
0.97196108 0.028038919 0 255 0 0 255
0.5566411 0.4433589 0 255 0 0 255
0.35599959 0.64400041 0 255 0 0 255
0.023008961 0.97699106 0 255 0 0 255
0.055878941 0.94412106 0 255 0 0 255
0.4261457 0.57385433 0 255 0 0 255
0.31430736 0.68569267 0 255 0 0 255
0.32668099 0.67331898 0 255 0 0 255
0.33988747 0.6601125 0 255 0 0 255
0.29706663 0.70293337 0 255 0 0 255
0.91198963 0.088010371 0 255 0 0 255
0.58785331 0.41214669 0 255 0 0 255
0.34901604 0.65098393 0 255 0 0 255
0.45990932 0.54009068 0 255 0 0 255
0.46722484 0.53277516 0 255 0 0 255
0.85213977 0.14786023 0 255 0 0 255
0.18862356 0.81137645 0 255 0 0 255
0.76544243 0.23455757 0 255 0 0 255
0.90052247 0.09947753 0 255 0 0 255
0.29422572 0.70577431 0 255 0 0 255
0.80776203 0.19223797 0 255 0 0 255
0.86077034 0.13922966 0 255 0 0 255
0.82027692 0.17972308 0 255 0 0 255
0.27743647 0.72256351 0 255 0 0 255
0.84473366 0.15526634 0 255 0 0 255
0.81173599 0.18826401 0 255 0 0 255
0.90220189 0.097798109 0 255 0 0 255
0.90727431 0.092725694 0 255 0 0 255
0.52260476 0.47739524 0 255 0 0 255
0.15026906 0.84973097 0 255 0 0 255
0.22120439 0.7787956 0 255 0 0 255
0.49456584 0.50543416 0 255 0 0 255
0.70691013 0.29308987 0 255 0 0 255
0.57720399 0.42279601 0 255 0 0 255
0.51757479 0.48242521 0 255 0 0 255
0.76278907 0.23721093 0 255 0 0 255
0.0033496907 0.99665034 0 255 0 0 255
0.83188218 0.16811782 0 255 0 0 255
0.089470074 0.91052991 0 255 0 0 255
0.34323716 0.65676284 0 255 0 0 255
0.12894882 0.87105119 0 255 0 0 255
0.0014596782 0.99854034 0 255 0 0 255
0.93109047 0.068909526 0 255 0 0 255
0.47796485 0.52203512 0 255 0 0 255
0.46136901 0.53863096 0 255 0 0 255
0.39831531 0.60168469 0 255 0 0 255
0.33010462 0.66989541 0 255 0 0 255
0.64999259 0.35000741 0 255 0 0 255
0.16375773 0.83624226 0 255 0 0 255
0.2306271 0.76937288 0 255 0 0 255
0.94421828 0.055781722 0 255 0 0 255
0.97151971 0.028480291 0 255 0 0 255
0.091397449 0.90860254 0 255 0 0 255
0.76449519 0.23550481 0 255 0 0 255
0.24895619 0.7510438 0 255 0 0 255
0.93613112 0.06386888 0 255 0 0 255
0.57623118 0.42376882 0 255 0 0 255
0.15115806 0.84884191 0 255 0 0 255
0.84340543 0.15659457 0 255 0 0 255
0.098835967 0.90116405 0 255 0 0 255
0.30142713 0.69857287 0 255 0 0 255
0.064609796 0.93539023 0 255 0 0 255
0.59340179 0.40659821 0 255 0 0 255
0.0083372872 0.99166274 0 255 0 0 255
0.64181381 0.35818619 0 255 0 0 255
0.11097662 0.88902336 0 255 0 0 255
0.77112639 0.22887361 0 255 0 0 255
0.64516348 0.35483652 0 255 0 0 255
0.94285882 0.057141185 0 255 0 0 255
0.86059648 0.13940352 0 255 0 0 255
0.98840064 0.011599362 0 255 0 0 255
0.071807623 0.92819238 0 255 0 0 255
0.86205614 0.13794386 0 255 0 0 255
0.91949111 0.080508888 0 255 0 0 255
0.5497725 0.4502275 0 255 0 0 255
0.32342514 0.67657483 0 255 0 0 255
0.31780645 0.68219352 0 255 0 0 255
0.87987709 0.12012291 0 255 0 0 255
0.9734177 0.026582301 0 255 0 0 255
0.48156419 0.51843584 0 255 0 0 255
0.11050422 0.88949579 0 255 0 0 255
0.91763598 0.082364023 0 255 0 0 255
0.4530839 0.54691613 0 255 0 0 255
0.20190167 0.79809833 0 255 0 0 255
0.68213123 0.31786877 0 255 0 0 255
0.70204008 0.29795992 0 255 0 0 255
0.13803276 0.86196721 0 255 0 0 255
0.25836241 0.74163759 0 255 0 0 255
0.85319817 0.14680183 0 255 0 0 255
0.98143816 0.01856184 0 255 0 0 255
0.35719839 0.64280164 0 255 0 0 255
0.15462531 0.8453747 0 255 0 0 255
0.046047963 0.95395201 0 255 0 0 255
0.95060021 0.049399793 0 255 0 0 255
0.1629626 0.83703738 0 255 0 0 255
0.68786174 0.31213826 0 255 0 0 255
0.061576817 0.93842316 0 255 0 0 255
0.934089 0.065910995 0 255 0 0 255
0.33302522 0.66697478 0 255 0 0 255
0.0044356263 0.9955644 0 255 0 0 255
0.79468542 0.20531458 0 255 0 0 255
0.32142588 0.67857409 0 255 0 0 255
0.076243252 0.92375672 0 255 0 0 255
0.65674156 0.34325844 0 255 0 0 255
0.24091701 0.75908297 0 255 0 0 255
0.62601572 0.37398428 0 255 0 0 255
0.98016667 0.019833326 0 255 0 0 255
0.55872345 0.44127655 0 255 0 0 255
0.50589287 0.49410713 0 255 0 0 255
0.95358437 0.046415627 0 255 0 0 255
0.040287644 0.95971239 0 255 0 0 255
0.61639708 0.38360292 0 255 0 0 255
0.87122041 0.12877959 0 255 0 0 255
0.49337155 0.50662845 0 255 0 0 255
0.81829876 0.18170124 0 255 0 0 255
0.55335158 0.44664842 0 255 0 0 255
0.19541165 0.80458832 0 255 0 0 255
0.95633149 0.043668509 0 255 0 0 255
0.81171399 0.18828601 0 255 0 0 255
0.04860983 0.95139015 0 255 0 0 255
0.93776965 0.062230349 0 255 0 0 255
0.16891241 0.83108759 0 255 0 0 255
0.20323515 0.79676485 0 255 0 0 255
0.98381764 0.016182363 0 255 0 0 255
0.1195126 0.88048738 0 255 0 0 255
0.36619774 0.63380229 0 255 0 0 255
0.67167938 0.32832062 0 255 0 0 255
0.18108942 0.8189106 0 255 0 0 255
0.30028671 0.69971329 0 255 0 0 255
0.0047046174 0.99529541 0 255 0 0 255
0.18552504 0.81447494 0 255 0 0 255
0.094972149 0.90502787 0 255 0 0 255
0.32613051 0.67386949 0 255 0 0 255
0.26176828 0.73823172 0 255 0 0 255
0.75171369 0.24828631 0 255 0 0 255
0.56704754 0.43295246 0 255 0 0 255
0.887784 0.112216 0 255 0 0 255
0.73188037 0.26811963 0 255 0 0 255
0.12577097 0.87422901 0 255 0 0 255
0.39367688 0.60632312 0 255 0 0 255
0.6854648 0.3145352 0 255 0 0 255
0.16605861 0.8339414 0 255 0 0 255
0.010073949 0.98992604 0 255 0 0 255
0.55668515 0.44331485 0 255 0 0 255
0.65943015 0.34056985 0 255 0 0 255
0.82837266 0.17162734 0 255 0 0 255
0.11003679 0.88996321 0 255 0 0 255
0.85484183 0.14515817 0 255 0 0 255
0.78470421 0.21529579 0 255 0 0 255
0.92175078 0.078249216 0 255 0 0 255
0.90345168 0.096548319 0 255 0 0 255
0.069190152 0 0 255 0 0 255
0.96261108 0 0 255 0 0 255
0.63140571 0 0 255 0 0 255
0.45117432 0 0 255 0 0 255
0.18079452 0 0 255 0 0 255
0.41884601 0 0 255 0 0 255
0.545259 0 0 255 0 0 255
0.37688789 0 0 255 0 0 255
0.74410206 0 0 255 0 0 255
0.91186517 0 0 255 0 0 255
0.42044908 0 0 255 0 0 255
0.42735484 0 0 255 0 0 255
0.023715431 0 0 255 0 0 255
0.46540782 0 0 255 0 0 255
0.15509097 0 0 255 0 0 255
0.078577362 0 0 255 0 0 255
0.71940976 0 0 255 0 0 255
0.62330174 0 0 255 0 0 255
0.25138941 0 0 255 0 0 255
0.26109231 0 0 255 0 0 255
0.3085739 0 0 255 0 0 255
0.042069517 0 0 255 0 0 255
0.05104788 0 0 255 0 0 255
0.49923787 0 0 255 0 0 255
0.070146099 0 0 255 0 0 255
0.29129842 0 0 255 0 0 255
0.27080205 0 0 255 0 0 255
0.91374177 0 0 255 0 0 255
0.98275924 0 0 255 0 0 255
0.58530861 0 0 255 0 0 255
0.24796583 0 0 255 0 0 255
0.051949412 0 0 255 0 0 255
0.54791975 0 0 255 0 0 255
0.87937152 0 0 255 0 0 255
0.5031237 0 0 255 0 0 255
0.72871423 0 0 255 0 0 255
0.29821756 0 0 255 0 0 255
0.048382707 0 0 255 0 0 255
0.10560214 0 0 255 0 0 255
0.042319603 0 0 255 0 0 255
0.96024787 0 0 255 0 0 255
0.52605122 0 0 255 0 0 255
0.46967447 0 0 255 0 0 255
0.98396331 0 0 255 0 0 255
0.99145907 0 0 255 0 0 255
0.6247654 0 0 255 0 0 255
0.062540665 0 0 255 0 0 255
0.71086878 0 0 255 0 0 255
0.24806719 0 0 255 0 0 255
0.31393009 0 0 255 0 0 255
0.97196108 0 0 255 0 0 255
0.5566411 0 0 255 0 0 255
0.35599959 0 0 255 0 0 255
0.023008961 0 0 255 0 0 255
0.055878941 0 0 255 0 0 255
0.4261457 0 0 255 0 0 255
0.31430736 0 0 255 0 0 255
0.32668099 0 0 255 0 0 255
0.33988747 0 0 255 0 0 255
0.29706663 0 0 255 0 0 255
0.91198963 0 0 255 0 0 255
0.58785331 0 0 255 0 0 255
0.34901604 0 0 255 0 0 255
0.45990932 0 0 255 0 0 255
0.46722484 0 0 255 0 0 255
0.85213977 0 0 255 0 0 255
0.18862356 0 0 255 0 0 255
0.76544243 0 0 255 0 0 255
0.90052247 0 0 255 0 0 255
0.29422572 0 0 255 0 0 255
0.80776203 0 0 255 0 0 255
0.86077034 0 0 255 0 0 255
0.82027692 0 0 255 0 0 255
0.27743647 0 0 255 0 0 255
0.84473366 0 0 255 0 0 255
0.81173599 0 0 255 0 0 255
0.90220189 0 0 255 0 0 255
0.90727431 0 0 255 0 0 255
0.52260476 0 0 255 0 0 255
0.15026906 0 0 255 0 0 255
0.22120439 0 0 255 0 0 255
0.49456584 0 0 255 0 0 255
0.70691013 0 0 255 0 0 255
0.57720399 0 0 255 0 0 255
0.51757479 0 0 255 0 0 255
0.76278907 0 0 255 0 0 255
0.0033496907 0 0 255 0 0 255
0.83188218 0 0 255 0 0 255
0.089470074 0 0 255 0 0 255
0.34323716 0 0 255 0 0 255
0.12894882 0 0 255 0 0 255
0.0014596782 0 0 255 0 0 255
0.93109047 0 0 255 0 0 255
0.47796485 0 0 255 0 0 255
0.46136901 0 0 255 0 0 255
0.39831531 0 0 255 0 0 255
0.33010462 0 0 255 0 0 255
0.64999259 0 0 255 0 0 255
0.16375773 0 0 255 0 0 255
0.2306271 0 0 255 0 0 255
0.94421828 0 0 255 0 0 255
0.97151971 0 0 255 0 0 255
0.091397449 0 0 255 0 0 255
0.76449519 0 0 255 0 0 255
0.24895619 0 0 255 0 0 255
0.93613112 0 0 255 0 0 255
0.57623118 0 0 255 0 0 255
0.15115806 0 0 255 0 0 255
0.84340543 0 0 255 0 0 255
0.098835967 0 0 255 0 0 255
0.30142713 0 0 255 0 0 255
0.064609796 0 0 255 0 0 255
0.59340179 0 0 255 0 0 255
0.0083372872 0 0 255 0 0 255
0.64181381 0 0 255 0 0 255
0.11097662 0 0 255 0 0 255
0.77112639 0 0 255 0 0 255
0.64516348 0 0 255 0 0 255
0.94285882 0 0 255 0 0 255
0.86059648 0 0 255 0 0 255
0.98840064 0 0 255 0 0 255
0.071807623 0 0 255 0 0 255
0.86205614 0 0 255 0 0 255
0.91949111 0 0 255 0 0 255
0.5497725 0 0 255 0 0 255
0.32342514 0 0 255 0 0 255
0.31780645 0 0 255 0 0 255
0.87987709 0 0 255 0 0 255
0.9734177 0 0 255 0 0 255
0.48156419 0 0 255 0 0 255
0.11050422 0 0 255 0 0 255
0.91763598 0 0 255 0 0 255
0.4530839 0 0 255 0 0 255
0.20190167 0 0 255 0 0 255
0.68213123 0 0 255 0 0 255
0.70204008 0 0 255 0 0 255
0.13803276 0 0 255 0 0 255
0.25836241 0 0 255 0 0 255
0.85319817 0 0 255 0 0 255
0.98143816 0 0 255 0 0 255
0.35719839 0 0 255 0 0 255
0.15462531 0 0 255 0 0 255
0.046047963 0 0 255 0 0 255
0.95060021 0 0 255 0 0 255
0.1629626 0 0 255 0 0 255
0.68786174 0 0 255 0 0 255
0.061576817 0 0 255 0 0 255
0.934089 0 0 255 0 0 255
0.33302522 0 0 255 0 0 255
0.0044356263 0 0 255 0 0 255
0.79468542 0 0 255 0 0 255
0.32142588 0 0 255 0 0 255
0.076243252 0 0 255 0 0 255
0.65674156 0 0 255 0 0 255
0.24091701 0 0 255 0 0 255
0.62601572 0 0 255 0 0 255
0.98016667 0 0 255 0 0 255
0.55872345 0 0 255 0 0 255
0.50589287 0 0 255 0 0 255
0.95358437 0 0 255 0 0 255
0.040287644 0 0 255 0 0 255
0.61639708 0 0 255 0 0 255
0.87122041 0 0 255 0 0 255
0.49337155 0 0 255 0 0 255
0.81829876 0 0 255 0 0 255
0.55335158 0 0 255 0 0 255
0.19541165 0 0 255 0 0 255
0.95633149 0 0 255 0 0 255
0.81171399 0 0 255 0 0 255
0.04860983 0 0 255 0 0 255
0.93776965 0 0 255 0 0 255
0.16891241 0 0 255 0 0 255
0.20323515 0 0 255 0 0 255
0.98381764 0 0 255 0 0 255
0.1195126 0 0 255 0 0 255
0.36619774 0 0 255 0 0 255
0.67167938 0 0 255 0 0 255
0.18108942 0 0 255 0 0 255
0.30028671 0 0 255 0 0 255
0.0047046174 0 0 255 0 0 255
0.18552504 0 0 255 0 0 255
0.094972149 0 0 255 0 0 255
0.32613051 0 0 255 0 0 255
0.26176828 0 0 255 0 0 255
0.75171369 0 0 255 0 0 255
0.56704754 0 0 255 0 0 255
0.887784 0 0 255 0 0 255
0.73188037 0 0 255 0 0 255
0.12577097 0 0 255 0 0 255
0.39367688 0 0 255 0 0 255
0.6854648 0 0 255 0 0 255
0.16605861 0 0 255 0 0 255
0.010073949 0 0 255 0 0 255
0.55668515 0 0 255 0 0 255
0.65943015 0 0 255 0 0 255
0.82837266 0 0 255 0 0 255
0.11003679 0 0 255 0 0 255
0.85484183 0 0 255 0 0 255
0.78470421 0 0 255 0 0 255
0.92175078 0 0 255 0 0 255
0.90345168 0 0 255 0 0 255
0 0.069190152 0 255 0 0 255
0 0.96261108 0 255 0 0 255
0 0.63140571 0 255 0 0 255
0 0.45117432 0 255 0 0 255
0 0.18079452 0 255 0 0 255
0 0.41884601 0 255 0 0 255
0 0.545259 0 255 0 0 255
0 0.37688789 0 255 0 0 255
0 0.74410206 0 255 0 0 255
0 0.91186517 0 255 0 0 255
0 0.42044908 0 255 0 0 255
0 0.42735484 0 255 0 0 255
0 0.023715431 0 255 0 0 255
0 0.46540782 0 255 0 0 255
0 0.15509097 0 255 0 0 255
0 0.078577362 0 255 0 0 255
0 0.71940976 0 255 0 0 255
0 0.62330174 0 255 0 0 255
0 0.25138941 0 255 0 0 255
0 0.26109231 0 255 0 0 255
0 0.3085739 0 255 0 0 255
0 0.042069517 0 255 0 0 255
0 0.05104788 0 255 0 0 255
0 0.49923787 0 255 0 0 255
0 0.070146099 0 255 0 0 255
0 0.29129842 0 255 0 0 255
0 0.27080205 0 255 0 0 255
0 0.91374177 0 255 0 0 255
0 0.98275924 0 255 0 0 255
0 0.58530861 0 255 0 0 255
0 0.24796583 0 255 0 0 255
0 0.051949412 0 255 0 0 255
0 0.54791975 0 255 0 0 255
0 0.87937152 0 255 0 0 255
0 0.5031237 0 255 0 0 255
0 0.72871423 0 255 0 0 255
0 0.29821756 0 255 0 0 255
0 0.048382707 0 255 0 0 255
0 0.10560214 0 255 0 0 255
0 0.042319603 0 255 0 0 255
0 0.96024787 0 255 0 0 255
0 0.52605122 0 255 0 0 255
0 0.46967447 0 255 0 0 255
0 0.98396331 0 255 0 0 255
0 0.99145907 0 255 0 0 255
0 0.6247654 0 255 0 0 255
0 0.062540665 0 255 0 0 255
0 0.71086878 0 255 0 0 255
0 0.24806719 0 255 0 0 255
0 0.31393009 0 255 0 0 255
0 0.97196108 0 255 0 0 255
0 0.5566411 0 255 0 0 255
0 0.35599959 0 255 0 0 255
0 0.023008961 0 255 0 0 255
0 0.055878941 0 255 0 0 255
0 0.4261457 0 255 0 0 255
0 0.31430736 0 255 0 0 255
0 0.32668099 0 255 0 0 255
0 0.33988747 0 255 0 0 255
0 0.29706663 0 255 0 0 255
0 0.91198963 0 255 0 0 255
0 0.58785331 0 255 0 0 255
0 0.34901604 0 255 0 0 255
0 0.45990932 0 255 0 0 255
0 0.46722484 0 255 0 0 255
0 0.85213977 0 255 0 0 255
0 0.18862356 0 255 0 0 255
0 0.76544243 0 255 0 0 255
0 0.90052247 0 255 0 0 255
0 0.29422572 0 255 0 0 255
0 0.80776203 0 255 0 0 255
0 0.86077034 0 255 0 0 255
0 0.82027692 0 255 0 0 255
0 0.27743647 0 255 0 0 255
0 0.84473366 0 255 0 0 255
0 0.81173599 0 255 0 0 255
0 0.90220189 0 255 0 0 255
0 0.90727431 0 255 0 0 255
0 0.52260476 0 255 0 0 255
0 0.15026906 0 255 0 0 255
0 0.22120439 0 255 0 0 255
0 0.49456584 0 255 0 0 255
0 0.70691013 0 255 0 0 255
0 0.57720399 0 255 0 0 255
0 0.51757479 0 255 0 0 255
0 0.76278907 0 255 0 0 255
0 0.0033496907 0 255 0 0 255
0 0.83188218 0 255 0 0 255
0 0.089470074 0 255 0 0 255
0 0.34323716 0 255 0 0 255
0 0.12894882 0 255 0 0 255
0 0.0014596782 0 255 0 0 255
0 0.93109047 0 255 0 0 255
0 0.47796485 0 255 0 0 255
0 0.46136901 0 255 0 0 255
0 0.39831531 0 255 0 0 255
0 0.33010462 0 255 0 0 255
0 0.64999259 0 255 0 0 255
0 0.16375773 0 255 0 0 255
0 0.2306271 0 255 0 0 255
0 0.94421828 0 255 0 0 255
0 0.97151971 0 255 0 0 255
0 0.091397449 0 255 0 0 255
0 0.76449519 0 255 0 0 255
0 0.24895619 0 255 0 0 255
0 0.93613112 0 255 0 0 255
0 0.57623118 0 255 0 0 255
0 0.15115806 0 255 0 0 255
0 0.84340543 0 255 0 0 255
0 0.098835967 0 255 0 0 255
0 0.30142713 0 255 0 0 255
0 0.064609796 0 255 0 0 255
0 0.59340179 0 255 0 0 255
0 0.0083372872 0 255 0 0 255
0 0.64181381 0 255 0 0 255
0 0.11097662 0 255 0 0 255
0 0.77112639 0 255 0 0 255
0 0.64516348 0 255 0 0 255
0 0.94285882 0 255 0 0 255
0 0.86059648 0 255 0 0 255
0 0.98840064 0 255 0 0 255
0 0.071807623 0 255 0 0 255
0 0.86205614 0 255 0 0 255
0 0.91949111 0 255 0 0 255
0 0.5497725 0 255 0 0 255
0 0.32342514 0 255 0 0 255
0 0.31780645 0 255 0 0 255
0 0.87987709 0 255 0 0 255
0 0.9734177 0 255 0 0 255
0 0.48156419 0 255 0 0 255
0 0.11050422 0 255 0 0 255
0 0.91763598 0 255 0 0 255
0 0.4530839 0 255 0 0 255
0 0.20190167 0 255 0 0 255
0 0.68213123 0 255 0 0 255
0 0.70204008 0 255 0 0 255
0 0.13803276 0 255 0 0 255
0 0.25836241 0 255 0 0 255
0 0.85319817 0 255 0 0 255
0 0.98143816 0 255 0 0 255
0 0.35719839 0 255 0 0 255
0 0.15462531 0 255 0 0 255
0 0.046047963 0 255 0 0 255
0 0.95060021 0 255 0 0 255
0 0.1629626 0 255 0 0 255
0 0.68786174 0 255 0 0 255
0 0.061576817 0 255 0 0 255
0 0.934089 0 255 0 0 255
0 0.33302522 0 255 0 0 255
0 0.0044356263 0 255 0 0 255
0 0.79468542 0 255 0 0 255
0 0.32142588 0 255 0 0 255
0 0.076243252 0 255 0 0 255
0 0.65674156 0 255 0 0 255
0 0.24091701 0 255 0 0 255
0 0.62601572 0 255 0 0 255
0 0.98016667 0 255 0 0 255
0 0.55872345 0 255 0 0 255
0 0.50589287 0 255 0 0 255
0 0.95358437 0 255 0 0 255
0 0.040287644 0 255 0 0 255
0 0.61639708 0 255 0 0 255
0 0.87122041 0 255 0 0 255
0 0.49337155 0 255 0 0 255
0 0.81829876 0 255 0 0 255
0 0.55335158 0 255 0 0 255
0 0.19541165 0 255 0 0 255
0 0.95633149 0 255 0 0 255
0 0.81171399 0 255 0 0 255
0 0.04860983 0 255 0 0 255
0 0.93776965 0 255 0 0 255
0 0.16891241 0 255 0 0 255
0 0.20323515 0 255 0 0 255
0 0.98381764 0 255 0 0 255
0 0.1195126 0 255 0 0 255
0 0.36619774 0 255 0 0 255
0 0.67167938 0 255 0 0 255
0 0.18108942 0 255 0 0 255
0 0.30028671 0 255 0 0 255
0 0.0047046174 0 255 0 0 255
0 0.18552504 0 255 0 0 255
0 0.094972149 0 255 0 0 255
0 0.32613051 0 255 0 0 255
0 0.26176828 0 255 0 0 255
0 0.75171369 0 255 0 0 255
0 0.56704754 0 255 0 0 255
0 0.887784 0 255 0 0 255
0 0.73188037 0 255 0 0 255
0 0.12577097 0 255 0 0 255
0 0.39367688 0 255 0 0 255
0 0.6854648 0 255 0 0 255
0 0.16605861 0 255 0 0 255
0 0.010073949 0 255 0 0 255
0 0.55668515 0 255 0 0 255
0 0.65943015 0 255 0 0 255
0 0.82837266 0 255 0 0 255
0 0.11003679 0 255 0 0 255
0 0.85484183 0 255 0 0 255
0 0.78470421 0 255 0 0 255
0 0.92175078 0 255 0 0 255
0 0.90345168 0 255 0 0 255
0 0 0.069190152 255 0 0 255
0 0 0.96261108 255 0 0 255
0 0 0.63140571 255 0 0 255
0 0 0.45117432 255 0 0 255
0 0 0.18079452 255 0 0 255
0 0 0.41884601 255 0 0 255
0 0 0.545259 255 0 0 255
0 0 0.37688789 255 0 0 255
0 0 0.74410206 255 0 0 255
0 0 0.91186517 255 0 0 255
0 0 0.42044908 255 0 0 255
0 0 0.42735484 255 0 0 255
0 0 0.023715431 255 0 0 255
0 0 0.46540782 255 0 0 255
0 0 0.15509097 255 0 0 255
0 0 0.078577362 255 0 0 255
0 0 0.71940976 255 0 0 255
0 0 0.62330174 255 0 0 255
0 0 0.25138941 255 0 0 255
0 0 0.26109231 255 0 0 255
0 0 0.3085739 255 0 0 255
0 0 0.042069517 255 0 0 255
0 0 0.05104788 255 0 0 255
0 0 0.49923787 255 0 0 255
0 0 0.070146099 255 0 0 255
0 0 0.29129842 255 0 0 255
0 0 0.27080205 255 0 0 255
0 0 0.91374177 255 0 0 255
0 0 0.98275924 255 0 0 255
0 0 0.58530861 255 0 0 255
0 0 0.24796583 255 0 0 255
0 0 0.051949412 255 0 0 255
0 0 0.54791975 255 0 0 255
0 0 0.87937152 255 0 0 255
0 0 0.5031237 255 0 0 255
0 0 0.72871423 255 0 0 255
0 0 0.29821756 255 0 0 255
0 0 0.048382707 255 0 0 255
0 0 0.10560214 255 0 0 255
0 0 0.042319603 255 0 0 255
0 0 0.96024787 255 0 0 255
0 0 0.52605122 255 0 0 255
0 0 0.46967447 255 0 0 255
0 0 0.98396331 255 0 0 255
0 0 0.99145907 255 0 0 255
0 0 0.6247654 255 0 0 255
0 0 0.062540665 255 0 0 255
0 0 0.71086878 255 0 0 255
0 0 0.24806719 255 0 0 255
0 0 0.31393009 255 0 0 255
0 0 0.97196108 255 0 0 255
0 0 0.5566411 255 0 0 255
0 0 0.35599959 255 0 0 255
0 0 0.023008961 255 0 0 255
0 0 0.055878941 255 0 0 255
0 0 0.4261457 255 0 0 255
0 0 0.31430736 255 0 0 255
0 0 0.32668099 255 0 0 255
0 0 0.33988747 255 0 0 255
0 0 0.29706663 255 0 0 255
0 0 0.91198963 255 0 0 255
0 0 0.58785331 255 0 0 255
0 0 0.34901604 255 0 0 255
0 0 0.45990932 255 0 0 255
0 0 0.46722484 255 0 0 255
0 0 0.85213977 255 0 0 255
0 0 0.18862356 255 0 0 255
0 0 0.76544243 255 0 0 255
0 0 0.90052247 255 0 0 255
0 0 0.29422572 255 0 0 255
0 0 0.80776203 255 0 0 255
0 0 0.86077034 255 0 0 255
0 0 0.82027692 255 0 0 255
0 0 0.27743647 255 0 0 255
0 0 0.84473366 255 0 0 255
0 0 0.81173599 255 0 0 255
0 0 0.90220189 255 0 0 255
0 0 0.90727431 255 0 0 255
0 0 0.52260476 255 0 0 255
0 0 0.15026906 255 0 0 255
0 0 0.22120439 255 0 0 255
0 0 0.49456584 255 0 0 255
0 0 0.70691013 255 0 0 255
0 0 0.57720399 255 0 0 255
0 0 0.51757479 255 0 0 255
0 0 0.76278907 255 0 0 255
0 0 0.0033496907 255 0 0 255
0 0 0.83188218 255 0 0 255
0 0 0.089470074 255 0 0 255
0 0 0.34323716 255 0 0 255
0 0 0.12894882 255 0 0 255
0 0 0.0014596782 255 0 0 255
0 0 0.93109047 255 0 0 255
0 0 0.47796485 255 0 0 255
0 0 0.46136901 255 0 0 255
0 0 0.39831531 255 0 0 255
0 0 0.33010462 255 0 0 255
0 0 0.64999259 255 0 0 255
0 0 0.16375773 255 0 0 255
0 0 0.2306271 255 0 0 255
0 0 0.94421828 255 0 0 255
0 0 0.97151971 255 0 0 255
0 0 0.091397449 255 0 0 255
0 0 0.76449519 255 0 0 255
0 0 0.24895619 255 0 0 255
0 0 0.93613112 255 0 0 255
0 0 0.57623118 255 0 0 255
0 0 0.15115806 255 0 0 255
0 0 0.84340543 255 0 0 255
0 0 0.098835967 255 0 0 255
0 0 0.30142713 255 0 0 255
0 0 0.064609796 255 0 0 255
0 0 0.59340179 255 0 0 255
0 0 0.0083372872 255 0 0 255
0 0 0.64181381 255 0 0 255
0 0 0.11097662 255 0 0 255
0 0 0.77112639 255 0 0 255
0 0 0.64516348 255 0 0 255
0 0 0.94285882 255 0 0 255
0 0 0.86059648 255 0 0 255
0 0 0.98840064 255 0 0 255
0 0 0.071807623 255 0 0 255
0 0 0.86205614 255 0 0 255
0 0 0.91949111 255 0 0 255
0 0 0.5497725 255 0 0 255
0 0 0.32342514 255 0 0 255
0 0 0.31780645 255 0 0 255
0 0 0.87987709 255 0 0 255
0 0 0.9734177 255 0 0 255
0 0 0.48156419 255 0 0 255
0 0 0.11050422 255 0 0 255
0 0 0.91763598 255 0 0 255
0 0 0.4530839 255 0 0 255
0 0 0.20190167 255 0 0 255
0 0 0.68213123 255 0 0 255
0 0 0.70204008 255 0 0 255
0 0 0.13803276 255 0 0 255
0 0 0.25836241 255 0 0 255
0 0 0.85319817 255 0 0 255
0 0 0.98143816 255 0 0 255
0 0 0.35719839 255 0 0 255
0 0 0.15462531 255 0 0 255
0 0 0.046047963 255 0 0 255
0 0 0.95060021 255 0 0 255
0 0 0.1629626 255 0 0 255
0 0 0.68786174 255 0 0 255
0 0 0.061576817 255 0 0 255
0 0 0.934089 255 0 0 255
0 0 0.33302522 255 0 0 255
0 0 0.0044356263 255 0 0 255
0 0 0.79468542 255 0 0 255
0 0 0.32142588 255 0 0 255
0 0 0.076243252 255 0 0 255
0 0 0.65674156 255 0 0 255
0 0 0.24091701 255 0 0 255
0 0 0.62601572 255 0 0 255
0 0 0.98016667 255 0 0 255
0 0 0.55872345 255 0 0 255
0 0 0.50589287 255 0 0 255
0 0 0.95358437 255 0 0 255
0 0 0.040287644 255 0 0 255
0 0 0.61639708 255 0 0 255
0 0 0.87122041 255 0 0 255
0 0 0.49337155 255 0 0 255
0 0 0.81829876 255 0 0 255
0 0 0.55335158 255 0 0 255
0 0 0.19541165 255 0 0 255
0 0 0.95633149 255 0 0 255
0 0 0.81171399 255 0 0 255
0 0 0.04860983 255 0 0 255
0 0 0.93776965 255 0 0 255
0 0 0.16891241 255 0 0 255
0 0 0.20323515 255 0 0 255
0 0 0.98381764 255 0 0 255
0 0 0.1195126 255 0 0 255
0 0 0.36619774 255 0 0 255
0 0 0.67167938 255 0 0 255
0 0 0.18108942 255 0 0 255
0 0 0.30028671 255 0 0 255
0 0 0.0047046174 255 0 0 255
0 0 0.18552504 255 0 0 255
0 0 0.094972149 255 0 0 255
0 0 0.32613051 255 0 0 255
0 0 0.26176828 255 0 0 255
0 0 0.75171369 255 0 0 255
0 0 0.56704754 255 0 0 255
0 0 0.887784 255 0 0 255
0 0 0.73188037 255 0 0 255
0 0 0.12577097 255 0 0 255
0 0 0.39367688 255 0 0 255
0 0 0.6854648 255 0 0 255
0 0 0.16605861 255 0 0 255
0 0 0.010073949 255 0 0 255
0 0 0.55668515 255 0 0 255
0 0 0.65943015 255 0 0 255
0 0 0.82837266 255 0 0 255
0 0 0.11003679 255 0 0 255
0 0 0.85484183 255 0 0 255
0 0 0.78470421 255 0 0 255
0 0 0.92175078 255 0 0 255
0 0 0.90345168 255 0 0 255
0 0 0 1 0 0 0 1 0 0 0 1 0 0 0 0 0 1206 1 0 0
