ply
format ascii 1.0
comment VCGLIB generated
element vertex 1639
property float x
property float y
property float z
property uchar red
property uchar green
property uchar blue
property uchar alpha
element face 0
property list uchar int vertex_indices
end_header
0 0 0.418568 255 0 0 255 
0 0 0.0288134 255 0 0 255 
0 0 0.407827 255 0 0 255 
0 0 0.446478 255 0 0 255 
0 0 0.123018 255 0 0 255 
0 0 0.391231 255 0 0 255 
0 0 0.153602 255 0 0 255 
0 0 0.259771 255 0 0 255 
0 0 0.0207126 255 0 0 255 
0 0 0.0501356 255 0 0 255 
0 0 0.441938 255 0 0 255 
0 0 0.481784 255 0 0 255 
0 0 0.0856847 255 0 0 255 
0 0 0.154783 255 0 0 255 
0 0 0.439094 255 0 0 255 
0 0 0.0864837 255 0 0 255 
0 0 0.197087 255 0 0 255 
0 0 0.383354 255 0 0 255 
0 0 0.435995 255 0 0 255 
0 0 0.0547073 255 0 0 255 
0 0 0.285246 255 0 0 255 
0 0 0.048313 255 0 0 255 
0 0 0.171441 255 0 0 255 
0 0 0.0190267 255 0 0 255 
0 0 0.301498 255 0 0 255 
0 0 0.475769 255 0 0 255 
0 0 0.451733 255 0 0 255 
0 0 0.310112 255 0 0 255 
0 0 0.217493 255 0 0 255 
0 0 0.408024 255 0 0 255 
0 0 0.293429 255 0 0 255 
0 0 0.136061 255 0 0 255 
0 0 0.436838 255 0 0 255 
0 0 0.201257 255 0 0 255 
0 0 0.0825389 255 0 0 255 
0 0 0.0598562 255 0 0 255 
0 0 0.0924878 255 0 0 255 
0 0 0.23614 255 0 0 255 
0 0 0.319627 255 0 0 255 
0 0 0.1132 255 0 0 255 
0 0 0.286276 255 0 0 255 
0 0 0.261566 255 0 0 255 
0 0 0.0949839 255 0 0 255 
0 0 0.371961 255 0 0 255 
0 0 0.416349 255 0 0 255 
0 0 0.0340783 255 0 0 255 
0 0 0.458445 255 0 0 255 
0 0 0.113436 255 0 0 255 
0 0 0.417432 255 0 0 255 
0 0 0.394439 255 0 0 255 
0 0 0.168143 255 0 0 255 
0 0 0.202679 255 0 0 255 
0 0 0.442752 255 0 0 255 
0 0 0.339584 255 0 0 255 
0 0 0.221706 255 0 0 255 
0 0 0.244251 255 0 0 255 
0 0 0.315353 255 0 0 255 
0 0 0.173439 255 0 0 255 
0 0 0.0543628 255 0 0 255 
0 0 0.0328456 255 0 0 255 
0 0 0.0814631 255 0 0 255 
0 0 0.347792 255 0 0 255 
0 0 0.168907 255 0 0 255 
0 0 0.0183009 255 0 0 255 
0 0 0.049049 255 0 0 255 
0 0 0.251445 255 0 0 255 
0 0 0.0781571 255 0 0 255 
0 0 0.141537 255 0 0 255 
0 0 0.487586 255 0 0 255 
0 0 0.397784 255 0 0 255 
0 0 0.254737 255 0 0 255 
0 0 0.273862 255 0 0 255 
0 0 0.15935 255 0 0 255 
0 0 0.349721 255 0 0 255 
0 0 0.145823 255 0 0 255 
0 0 0.0756987 255 0 0 255 
0 0 0.383799 255 0 0 255 
0 0 0.104267 255 0 0 255 
0 0 0.189134 255 0 0 255 
0 0 0.301232 255 0 0 255 
0 0 0.498706 255 0 0 255 
0 0 0.357277 255 0 0 255 
0 0 0.00391045 255 0 0 255 
0 0 0.441459 255 0 0 255 
0 0 0.196861 255 0 0 255 
0 0 0.225616 255 0 0 255 
0 0 0.185709 255 0 0 255 
0 0 0.0122142 255 0 0 255 
0 0 0.399055 255 0 0 255 
0 0 0.240072 255 0 0 255 
0 0 0.0450598 255 0 0 255 
0 0 0.480518 255 0 0 255 
0 0 0.0878641 255 0 0 255 
0 0 0.213966 255 0 0 255 
0 0 0.498819 255 0 0 255 
0 0 0.136913 255 0 0 255 
0 0 0.465412 255 0 0 255 
0 0 0.0769759 255 0 0 255 
0 0 0.27845 255 0 0 255 
0 0 0.452998 255 0 0 255 
0 0 0.47476 255 0 0 255 
0 0.418568 0 255 0 0 255 
0 0.0288134 0 255 0 0 255 
0 0.407827 0 255 0 0 255 
0 0.446478 0 255 0 0 255 
0 0.123018 0 255 0 0 255 
0 0.391231 0 255 0 0 255 
0 0.153602 0 255 0 0 255 
0 0.259771 0 255 0 0 255 
0 0.0207126 0 255 0 0 255 
0 0.0501356 0 255 0 0 255 
0 0.441938 0 255 0 0 255 
0 0.481784 0 255 0 0 255 
0 0.0856847 0 255 0 0 255 
0 0.154783 0 255 0 0 255 
0 0.439094 0 255 0 0 255 
0 0.0864837 0 255 0 0 255 
0 0.197087 0 255 0 0 255 
0 0.383354 0 255 0 0 255 
0 0.435995 0 255 0 0 255 
0 0.0547073 0 255 0 0 255 
0 0.285246 0 255 0 0 255 
0 0.048313 0 255 0 0 255 
0 0.171441 0 255 0 0 255 
0 0.0190267 0 255 0 0 255 
0 0.301498 0 255 0 0 255 
0 0.475769 0 255 0 0 255 
0 0.451733 0 255 0 0 255 
0 0.310112 0 255 0 0 255 
0 0.217493 0 255 0 0 255 
0 0.408024 0 255 0 0 255 
0 0.293429 0 255 0 0 255 
0 0.136061 0 255 0 0 255 
0 0.436838 0 255 0 0 255 
0 0.201257 0 255 0 0 255 
0 0.0825389 0 255 0 0 255 
0 0.0598562 0 255 0 0 255 
0 0.0924878 0 255 0 0 255 
0 0.23614 0 255 0 0 255 
0 0.319627 0 255 0 0 255 
0 0.1132 0 255 0 0 255 
0 0.286276 0 255 0 0 255 
0 0.261566 0 255 0 0 255 
0 0.0949839 0 255 0 0 255 
0 0.371961 0 255 0 0 255 
0 0.416349 0 255 0 0 255 
0 0.0340783 0 255 0 0 255 
0 0.458445 0 255 0 0 255 
0 0.113436 0 255 0 0 255 
0 0.417432 0 255 0 0 255 
0 0.394439 0 255 0 0 255 
0 0.168143 0 255 0 0 255 
0 0.202679 0 255 0 0 255 
0 0.442752 0 255 0 0 255 
0 0.339584 0 255 0 0 255 
0 0.221706 0 255 0 0 255 
0 0.244251 0 255 0 0 255 
0 0.315353 0 255 0 0 255 
0 0.173439 0 255 0 0 255 
0 0.0543628 0 255 0 0 255 
0 0.0328456 0 255 0 0 255 
0 0.0814631 0 255 0 0 255 
0 0.347792 0 255 0 0 255 
0 0.168907 0 255 0 0 255 
0 0.0183009 0 255 0 0 255 
0 0.049049 0 255 0 0 255 
0 0.251445 0 255 0 0 255 
0 0.0781571 0 255 0 0 255 
0 0.141537 0 255 0 0 255 
0 0.487586 0 255 0 0 255 
0 0.397784 0 255 0 0 255 
0 0.254737 0 255 0 0 255 
0 0.273862 0 255 0 0 255 
0 0.15935 0 255 0 0 255 
0 0.349721 0 255 0 0 255 
0 0.145823 0 255 0 0 255 
0 0.0756987 0 255 0 0 255 
0 0.383799 0 255 0 0 255 
0 0.104267 0 255 0 0 255 
0 0.189134 0 255 0 0 255 
0 0.301232 0 255 0 0 255 
0 0.498706 0 255 0 0 255 
0 0.357277 0 255 0 0 255 
0 0.00391045 0 255 0 0 255 
0 0.441459 0 255 0 0 255 
0 0.196861 0 255 0 0 255 
0 0.225616 0 255 0 0 255 
0 0.185709 0 255 0 0 255 
0 0.0122142 0 255 0 0 255 
0 0.399055 0 255 0 0 255 
0 0.240072 0 255 0 0 255 
0 0.0450598 0 255 0 0 255 
0 0.480518 0 255 0 0 255 
0 0.0878641 0 255 0 0 255 
0 0.213966 0 255 0 0 255 
0 0.498819 0 255 0 0 255 
0 0.136913 0 255 0 0 255 
0 0.465412 0 255 0 0 255 
0 0.0769759 0 255 0 0 255 
0 0.27845 0 255 0 0 255 
0 0.452998 0 255 0 0 255 
0 0.47476 0 255 0 0 255 
0 0.5 0.418568 255 0 0 255 
0 0.5 0.0288134 255 0 0 255 
0 0.5 0.407827 255 0 0 255 
0 0.5 0.446478 255 0 0 255 
0 0.5 0.123018 255 0 0 255 
0 0.5 0.391231 255 0 0 255 
0 0.5 0.153602 255 0 0 255 
0 0.5 0.259771 255 0 0 255 
0 0.5 0.0207126 255 0 0 255 
0 0.5 0.0501356 255 0 0 255 
0 0.5 0.441938 255 0 0 255 
0 0.5 0.481784 255 0 0 255 
0 0.5 0.0856847 255 0 0 255 
0 0.5 0.154783 255 0 0 255 
0 0.5 0.439094 255 0 0 255 
0 0.5 0.0864837 255 0 0 255 
0 0.5 0.197087 255 0 0 255 
0 0.5 0.383354 255 0 0 255 
0 0.5 0.435995 255 0 0 255 
0 0.5 0.0547073 255 0 0 255 
0 0.5 0.285246 255 0 0 255 
0 0.5 0.048313 255 0 0 255 
0 0.5 0.171441 255 0 0 255 
0 0.5 0.0190267 255 0 0 255 
0 0.5 0.301498 255 0 0 255 
0 0.5 0.475769 255 0 0 255 
0 0.5 0.451733 255 0 0 255 
0 0.5 0.310112 255 0 0 255 
0 0.5 0.217493 255 0 0 255 
0 0.5 0.408024 255 0 0 255 
0 0.5 0.293429 255 0 0 255 
0 0.5 0.136061 255 0 0 255 
0 0.5 0.436838 255 0 0 255 
0 0.5 0.201257 255 0 0 255 
0 0.5 0.0825389 255 0 0 255 
0 0.5 0.0598562 255 0 0 255 
0 0.5 0.0924878 255 0 0 255 
0 0.5 0.23614 255 0 0 255 
0 0.5 0.319627 255 0 0 255 
0 0.5 0.1132 255 0 0 255 
0 0.5 0.286276 255 0 0 255 
0 0.5 0.261566 255 0 0 255 
0 0.5 0.0949839 255 0 0 255 
0 0.5 0.371961 255 0 0 255 
0 0.5 0.416349 255 0 0 255 
0 0.5 0.0340783 255 0 0 255 
0 0.5 0.458445 255 0 0 255 
0 0.5 0.113436 255 0 0 255 
0 0.5 0.417432 255 0 0 255 
0 0.5 0.394439 255 0 0 255 
0 0.5 0.168143 255 0 0 255 
0 0.5 0.202679 255 0 0 255 
0 0.5 0.442752 255 0 0 255 
0 0.5 0.339584 255 0 0 255 
0 0.5 0.221706 255 0 0 255 
0 0.5 0.244251 255 0 0 255 
0 0.5 0.315353 255 0 0 255 
0 0.5 0.173439 255 0 0 255 
0 0.5 0.0543628 255 0 0 255 
0 0.5 0.0328456 255 0 0 255 
0 0.5 0.0814631 255 0 0 255 
0 0.5 0.347792 255 0 0 255 
0 0.5 0.168907 255 0 0 255 
0 0.5 0.0183009 255 0 0 255 
0 0.5 0.049049 255 0 0 255 
0 0.5 0.251445 255 0 0 255 
0 0.5 0.0781571 255 0 0 255 
0 0.5 0.141537 255 0 0 255 
0 0.5 0.487586 255 0 0 255 
0 0.5 0.397784 255 0 0 255 
0 0.5 0.254737 255 0 0 255 
0 0.5 0.273862 255 0 0 255 
0 0.5 0.15935 255 0 0 255 
0 0.5 0.349721 255 0 0 255 
0 0.5 0.145823 255 0 0 255 
0 0.5 0.0756987 255 0 0 255 
0 0.5 0.383799 255 0 0 255 
0 0.5 0.104267 255 0 0 255 
0 0.5 0.189134 255 0 0 255 
0 0.5 0.301232 255 0 0 255 
0 0.5 0.498706 255 0 0 255 
0 0.5 0.357277 255 0 0 255 
0 0.5 0.00391045 255 0 0 255 
0 0.5 0.441459 255 0 0 255 
0 0.5 0.196861 255 0 0 255 
0 0.5 0.225616 255 0 0 255 
0 0.5 0.185709 255 0 0 255 
0 0.5 0.0122142 255 0 0 255 
0 0.5 0.399055 255 0 0 255 
0 0.5 0.240072 255 0 0 255 
0 0.5 0.0450598 255 0 0 255 
0 0.5 0.480518 255 0 0 255 
0 0.5 0.0878641 255 0 0 255 
0 0.5 0.213966 255 0 0 255 
0 0.5 0.498819 255 0 0 255 
0 0.5 0.136913 255 0 0 255 
0 0.5 0.465412 255 0 0 255 
0 0.5 0.0769759 255 0 0 255 
0 0.5 0.27845 255 0 0 255 
0 0.5 0.452998 255 0 0 255 
0 0.5 0.47476 255 0 0 255 
0 0.418568 0.5 255 0 0 255 
0 0.0288134 0.5 255 0 0 255 
0 0.407827 0.5 255 0 0 255 
0 0.446478 0.5 255 0 0 255 
0 0.123018 0.5 255 0 0 255 
0 0.391231 0.5 255 0 0 255 
0 0.153602 0.5 255 0 0 255 
0 0.259771 0.5 255 0 0 255 
0 0.0207126 0.5 255 0 0 255 
0 0.0501356 0.5 255 0 0 255 
0 0.441938 0.5 255 0 0 255 
0 0.481784 0.5 255 0 0 255 
0 0.0856847 0.5 255 0 0 255 
0 0.154783 0.5 255 0 0 255 
0 0.439094 0.5 255 0 0 255 
0 0.0864837 0.5 255 0 0 255 
0 0.197087 0.5 255 0 0 255 
0 0.383354 0.5 255 0 0 255 
0 0.435995 0.5 255 0 0 255 
0 0.0547073 0.5 255 0 0 255 
0 0.285246 0.5 255 0 0 255 
0 0.048313 0.5 255 0 0 255 
0 0.171441 0.5 255 0 0 255 
0 0.0190267 0.5 255 0 0 255 
0 0.301498 0.5 255 0 0 255 
0 0.475769 0.5 255 0 0 255 
0 0.451733 0.5 255 0 0 255 
0 0.310112 0.5 255 0 0 255 
0 0.217493 0.5 255 0 0 255 
0 0.408024 0.5 255 0 0 255 
0 0.293429 0.5 255 0 0 255 
0 0.136061 0.5 255 0 0 255 
0 0.436838 0.5 255 0 0 255 
0 0.201257 0.5 255 0 0 255 
0 0.0825389 0.5 255 0 0 255 
0 0.0598562 0.5 255 0 0 255 
0 0.0924878 0.5 255 0 0 255 
0 0.23614 0.5 255 0 0 255 
0 0.319627 0.5 255 0 0 255 
0 0.1132 0.5 255 0 0 255 
0 0.286276 0.5 255 0 0 255 
0 0.261566 0.5 255 0 0 255 
0 0.0949839 0.5 255 0 0 255 
0 0.371961 0.5 255 0 0 255 
0 0.416349 0.5 255 0 0 255 
0 0.0340783 0.5 255 0 0 255 
0 0.458445 0.5 255 0 0 255 
0 0.113436 0.5 255 0 0 255 
0 0.417432 0.5 255 0 0 255 
0 0.394439 0.5 255 0 0 255 
0 0.168143 0.5 255 0 0 255 
0 0.202679 0.5 255 0 0 255 
0 0.442752 0.5 255 0 0 255 
0 0.339584 0.5 255 0 0 255 
0 0.221706 0.5 255 0 0 255 
0 0.244251 0.5 255 0 0 255 
0 0.315353 0.5 255 0 0 255 
0 0.173439 0.5 255 0 0 255 
0 0.0543628 0.5 255 0 0 255 
0 0.0328456 0.5 255 0 0 255 
0 0.0814631 0.5 255 0 0 255 
0 0.347792 0.5 255 0 0 255 
0 0.168907 0.5 255 0 0 255 
0 0.0183009 0.5 255 0 0 255 
0 0.049049 0.5 255 0 0 255 
0 0.251445 0.5 255 0 0 255 
0 0.0781571 0.5 255 0 0 255 
0 0.141537 0.5 255 0 0 255 
0 0.487586 0.5 255 0 0 255 
0 0.397784 0.5 255 0 0 255 
0 0.254737 0.5 255 0 0 255 
0 0.273862 0.5 255 0 0 255 
0 0.15935 0.5 255 0 0 255 
0 0.349721 0.5 255 0 0 255 
0 0.145823 0.5 255 0 0 255 
0 0.0756987 0.5 255 0 0 255 
0 0.383799 0.5 255 0 0 255 
0 0.104267 0.5 255 0 0 255 
0 0.189134 0.5 255 0 0 255 
0 0.301232 0.5 255 0 0 255 
0 0.498706 0.5 255 0 0 255 
0 0.357277 0.5 255 0 0 255 
0 0.00391045 0.5 255 0 0 255 
0 0.441459 0.5 255 0 0 255 
0 0.196861 0.5 255 0 0 255 
0 0.225616 0.5 255 0 0 255 
0 0.185709 0.5 255 0 0 255 
0 0.0122142 0.5 255 0 0 255 
0 0.399055 0.5 255 0 0 255 
0 0.240072 0.5 255 0 0 255 
0 0.0450598 0.5 255 0 0 255 
0 0.480518 0.5 255 0 0 255 
0 0.0878641 0.5 255 0 0 255 
0 0.213966 0.5 255 0 0 255 
0 0.498819 0.5 255 0 0 255 
0 0.136913 0.5 255 0 0 255 
0 0.465412 0.5 255 0 0 255 
0 0.0769759 0.5 255 0 0 255 
0 0.27845 0.5 255 0 0 255 
0 0.452998 0.5 255 0 0 255 
0 0.47476 0.5 255 0 0 255 
0.5 0 0.418568 255 0 0 255 
0.5 0 0.0288134 255 0 0 255 
0.5 0 0.407827 255 0 0 255 
0.5 0 0.446478 255 0 0 255 
0.5 0 0.123018 255 0 0 255 
0.5 0 0.391231 255 0 0 255 
0.5 0 0.153602 255 0 0 255 
0.5 0 0.259771 255 0 0 255 
0.5 0 0.0207126 255 0 0 255 
0.5 0 0.0501356 255 0 0 255 
0.5 0 0.441938 255 0 0 255 
0.5 0 0.481784 255 0 0 255 
0.5 0 0.0856847 255 0 0 255 
0.5 0 0.154783 255 0 0 255 
0.5 0 0.439094 255 0 0 255 
0.5 0 0.0864837 255 0 0 255 
0.5 0 0.197087 255 0 0 255 
0.5 0 0.383354 255 0 0 255 
0.5 0 0.435995 255 0 0 255 
0.5 0 0.0547073 255 0 0 255 
0.5 0 0.285246 255 0 0 255 
0.5 0 0.048313 255 0 0 255 
0.5 0 0.171441 255 0 0 255 
0.5 0 0.0190267 255 0 0 255 
0.5 0 0.301498 255 0 0 255 
0.5 0 0.475769 255 0 0 255 
0.5 0 0.451733 255 0 0 255 
0.5 0 0.310112 255 0 0 255 
0.5 0 0.217493 255 0 0 255 
0.5 0 0.408024 255 0 0 255 
0.5 0 0.293429 255 0 0 255 
0.5 0 0.136061 255 0 0 255 
0.5 0 0.436838 255 0 0 255 
0.5 0 0.201257 255 0 0 255 
0.5 0 0.0825389 255 0 0 255 
0.5 0 0.0598562 255 0 0 255 
0.5 0 0.0924878 255 0 0 255 
0.5 0 0.23614 255 0 0 255 
0.5 0 0.319627 255 0 0 255 
0.5 0 0.1132 255 0 0 255 
0.5 0 0.286276 255 0 0 255 
0.5 0 0.261566 255 0 0 255 
0.5 0 0.0949839 255 0 0 255 
0.5 0 0.371961 255 0 0 255 
0.5 0 0.416349 255 0 0 255 
0.5 0 0.0340783 255 0 0 255 
0.5 0 0.458445 255 0 0 255 
0.5 0 0.113436 255 0 0 255 
0.5 0 0.417432 255 0 0 255 
0.5 0 0.394439 255 0 0 255 
0.5 0 0.168143 255 0 0 255 
0.5 0 0.202679 255 0 0 255 
0.5 0 0.442752 255 0 0 255 
0.5 0 0.339584 255 0 0 255 
0.5 0 0.221706 255 0 0 255 
0.5 0 0.244251 255 0 0 255 
0.5 0 0.315353 255 0 0 255 
0.5 0 0.173439 255 0 0 255 
0.5 0 0.0543628 255 0 0 255 
0.5 0 0.0328456 255 0 0 255 
0.5 0 0.0814631 255 0 0 255 
0.5 0 0.347792 255 0 0 255 
0.5 0 0.168907 255 0 0 255 
0.5 0 0.0183009 255 0 0 255 
0.5 0 0.049049 255 0 0 255 
0.5 0 0.251445 255 0 0 255 
0.5 0 0.0781571 255 0 0 255 
0.5 0 0.141537 255 0 0 255 
0.5 0 0.487586 255 0 0 255 
0.5 0 0.397784 255 0 0 255 
0.5 0 0.254737 255 0 0 255 
0.5 0 0.273862 255 0 0 255 
0.5 0 0.15935 255 0 0 255 
0.5 0 0.349721 255 0 0 255 
0.5 0 0.145823 255 0 0 255 
0.5 0 0.0756987 255 0 0 255 
0.5 0 0.383799 255 0 0 255 
0.5 0 0.104267 255 0 0 255 
0.5 0 0.189134 255 0 0 255 
0.5 0 0.301232 255 0 0 255 
0.5 0 0.498706 255 0 0 255 
0.5 0 0.357277 255 0 0 255 
0.5 0 0.00391045 255 0 0 255 
0.5 0 0.441459 255 0 0 255 
0.5 0 0.196861 255 0 0 255 
0.5 0 0.225616 255 0 0 255 
0.5 0 0.185709 255 0 0 255 
0.5 0 0.0122142 255 0 0 255 
0.5 0 0.399055 255 0 0 255 
0.5 0 0.240072 255 0 0 255 
0.5 0 0.0450598 255 0 0 255 
0.5 0 0.480518 255 0 0 255 
0.5 0 0.0878641 255 0 0 255 
0.5 0 0.213966 255 0 0 255 
0.5 0 0.498819 255 0 0 255 
0.5 0 0.136913 255 0 0 255 
0.5 0 0.465412 255 0 0 255 
0.5 0 0.0769759 255 0 0 255 
0.5 0 0.27845 255 0 0 255 
0.5 0 0.452998 255 0 0 255 
0.5 0 0.47476 255 0 0 255 
0.5 0.5 0.418568 255 0 0 255 
0.5 0.5 0.0288134 255 0 0 255 
0.5 0.5 0.407827 255 0 0 255 
0.5 0.5 0.446478 255 0 0 255 
0.5 0.5 0.123018 255 0 0 255 
0.5 0.5 0.391231 255 0 0 255 
0.5 0.5 0.153602 255 0 0 255 
0.5 0.5 0.259771 255 0 0 255 
0.5 0.5 0.0207126 255 0 0 255 
0.5 0.5 0.0501356 255 0 0 255 
0.5 0.5 0.441938 255 0 0 255 
0.5 0.5 0.481784 255 0 0 255 
0.5 0.5 0.0856847 255 0 0 255 
0.5 0.5 0.154783 255 0 0 255 
0.5 0.5 0.439094 255 0 0 255 
0.5 0.5 0.0864837 255 0 0 255 
0.5 0.5 0.197087 255 0 0 255 
0.5 0.5 0.383354 255 0 0 255 
0.5 0.5 0.435995 255 0 0 255 
0.5 0.5 0.0547073 255 0 0 255 
0.5 0.5 0.285246 255 0 0 255 
0.5 0.5 0.048313 255 0 0 255 
0.5 0.5 0.171441 255 0 0 255 
0.5 0.5 0.0190267 255 0 0 255 
0.5 0.5 0.301498 255 0 0 255 
0.5 0.5 0.475769 255 0 0 255 
0.5 0.5 0.451733 255 0 0 255 
0.5 0.5 0.310112 255 0 0 255 
0.5 0.5 0.217493 255 0 0 255 
0.5 0.5 0.408024 255 0 0 255 
0.5 0.5 0.293429 255 0 0 255 
0.5 0.5 0.136061 255 0 0 255 
0.5 0.5 0.436838 255 0 0 255 
0.5 0.5 0.201257 255 0 0 255 
0.5 0.5 0.0825389 255 0 0 255 
0.5 0.5 0.0598562 255 0 0 255 
0.5 0.5 0.0924878 255 0 0 255 
0.5 0.5 0.23614 255 0 0 255 
0.5 0.5 0.319627 255 0 0 255 
0.5 0.5 0.1132 255 0 0 255 
0.5 0.5 0.286276 255 0 0 255 
0.5 0.5 0.261566 255 0 0 255 
0.5 0.5 0.0949839 255 0 0 255 
0.5 0.5 0.371961 255 0 0 255 
0.5 0.5 0.416349 255 0 0 255 
0.5 0.5 0.0340783 255 0 0 255 
0.5 0.5 0.458445 255 0 0 255 
0.5 0.5 0.113436 255 0 0 255 
0.5 0.5 0.417432 255 0 0 255 
0.5 0.5 0.394439 255 0 0 255 
0.5 0.5 0.168143 255 0 0 255 
0.5 0.5 0.202679 255 0 0 255 
0.5 0.5 0.442752 255 0 0 255 
0.5 0.5 0.339584 255 0 0 255 
0.5 0.5 0.221706 255 0 0 255 
0.5 0.5 0.244251 255 0 0 255 
0.5 0.5 0.315353 255 0 0 255 
0.5 0.5 0.173439 255 0 0 255 
0.5 0.5 0.0543628 255 0 0 255 
0.5 0.5 0.0328456 255 0 0 255 
0.5 0.5 0.0814631 255 0 0 255 
0.5 0.5 0.347792 255 0 0 255 
0.5 0.5 0.168907 255 0 0 255 
0.5 0.5 0.0183009 255 0 0 255 
0.5 0.5 0.049049 255 0 0 255 
0.5 0.5 0.251445 255 0 0 255 
0.5 0.5 0.0781571 255 0 0 255 
0.5 0.5 0.141537 255 0 0 255 
0.5 0.5 0.487586 255 0 0 255 
0.5 0.5 0.397784 255 0 0 255 
0.5 0.5 0.254737 255 0 0 255 
0.5 0.5 0.273862 255 0 0 255 
0.5 0.5 0.15935 255 0 0 255 
0.5 0.5 0.349721 255 0 0 255 
0.5 0.5 0.145823 255 0 0 255 
0.5 0.5 0.0756987 255 0 0 255 
0.5 0.5 0.383799 255 0 0 255 
0.5 0.5 0.104267 255 0 0 255 
0.5 0.5 0.189134 255 0 0 255 
0.5 0.5 0.301232 255 0 0 255 
0.5 0.5 0.498706 255 0 0 255 
0.5 0.5 0.357277 255 0 0 255 
0.5 0.5 0.00391045 255 0 0 255 
0.5 0.5 0.441459 255 0 0 255 
0.5 0.5 0.196861 255 0 0 255 
0.5 0.5 0.225616 255 0 0 255 
0.5 0.5 0.185709 255 0 0 255 
0.5 0.5 0.0122142 255 0 0 255 
0.5 0.5 0.399055 255 0 0 255 
0.5 0.5 0.240072 255 0 0 255 
0.5 0.5 0.0450598 255 0 0 255 
0.5 0.5 0.480518 255 0 0 255 
0.5 0.5 0.0878641 255 0 0 255 
0.5 0.5 0.213966 255 0 0 255 
0.5 0.5 0.498819 255 0 0 255 
0.5 0.5 0.136913 255 0 0 255 
0.5 0.5 0.465412 255 0 0 255 
0.5 0.5 0.0769759 255 0 0 255 
0.5 0.5 0.27845 255 0 0 255 
0.5 0.5 0.452998 255 0 0 255 
0.5 0.5 0.47476 255 0 0 255 
0.5 0.418568 0 255 0 0 255 
0.5 0.0288134 0 255 0 0 255 
0.5 0.407827 0 255 0 0 255 
0.5 0.446478 0 255 0 0 255 
0.5 0.123018 0 255 0 0 255 
0.5 0.391231 0 255 0 0 255 
0.5 0.153602 0 255 0 0 255 
0.5 0.259771 0 255 0 0 255 
0.5 0.0207126 0 255 0 0 255 
0.5 0.0501356 0 255 0 0 255 
0.5 0.441938 0 255 0 0 255 
0.5 0.481784 0 255 0 0 255 
0.5 0.0856847 0 255 0 0 255 
0.5 0.154783 0 255 0 0 255 
0.5 0.439094 0 255 0 0 255 
0.5 0.0864837 0 255 0 0 255 
0.5 0.197087 0 255 0 0 255 
0.5 0.383354 0 255 0 0 255 
0.5 0.435995 0 255 0 0 255 
0.5 0.0547073 0 255 0 0 255 
0.5 0.285246 0 255 0 0 255 
0.5 0.048313 0 255 0 0 255 
0.5 0.171441 0 255 0 0 255 
0.5 0.0190267 0 255 0 0 255 
0.5 0.301498 0 255 0 0 255 
0.5 0.475769 0 255 0 0 255 
0.5 0.451733 0 255 0 0 255 
0.5 0.310112 0 255 0 0 255 
0.5 0.217493 0 255 0 0 255 
0.5 0.408024 0 255 0 0 255 
0.5 0.293429 0 255 0 0 255 
0.5 0.136061 0 255 0 0 255 
0.5 0.436838 0 255 0 0 255 
0.5 0.201257 0 255 0 0 255 
0.5 0.0825389 0 255 0 0 255 
0.5 0.0598562 0 255 0 0 255 
0.5 0.0924878 0 255 0 0 255 
0.5 0.23614 0 255 0 0 255 
0.5 0.319627 0 255 0 0 255 
0.5 0.1132 0 255 0 0 255 
0.5 0.286276 0 255 0 0 255 
0.5 0.261566 0 255 0 0 255 
0.5 0.0949839 0 255 0 0 255 
0.5 0.371961 0 255 0 0 255 
0.5 0.416349 0 255 0 0 255 
0.5 0.0340783 0 255 0 0 255 
0.5 0.458445 0 255 0 0 255 
0.5 0.113436 0 255 0 0 255 
0.5 0.417432 0 255 0 0 255 
0.5 0.394439 0 255 0 0 255 
0.5 0.168143 0 255 0 0 255 
0.5 0.202679 0 255 0 0 255 
0.5 0.442752 0 255 0 0 255 
0.5 0.339584 0 255 0 0 255 
0.5 0.221706 0 255 0 0 255 
0.5 0.244251 0 255 0 0 255 
0.5 0.315353 0 255 0 0 255 
0.5 0.173439 0 255 0 0 255 
0.5 0.0543628 0 255 0 0 255 
0.5 0.0328456 0 255 0 0 255 
0.5 0.0814631 0 255 0 0 255 
0.5 0.347792 0 255 0 0 255 
0.5 0.168907 0 255 0 0 255 
0.5 0.0183009 0 255 0 0 255 
0.5 0.049049 0 255 0 0 255 
0.5 0.251445 0 255 0 0 255 
0.5 0.0781571 0 255 0 0 255 
0.5 0.141537 0 255 0 0 255 
0.5 0.487586 0 255 0 0 255 
0.5 0.397784 0 255 0 0 255 
0.5 0.254737 0 255 0 0 255 
0.5 0.273862 0 255 0 0 255 
0.5 0.15935 0 255 0 0 255 
0.5 0.349721 0 255 0 0 255 
0.5 0.145823 0 255 0 0 255 
0.5 0.0756987 0 255 0 0 255 
0.5 0.383799 0 255 0 0 255 
0.5 0.104267 0 255 0 0 255 
0.5 0.189134 0 255 0 0 255 
0.5 0.301232 0 255 0 0 255 
0.5 0.498706 0 255 0 0 255 
0.5 0.357277 0 255 0 0 255 
0.5 0.00391045 0 255 0 0 255 
0.5 0.441459 0 255 0 0 255 
0.5 0.196861 0 255 0 0 255 
0.5 0.225616 0 255 0 0 255 
0.5 0.185709 0 255 0 0 255 
0.5 0.0122142 0 255 0 0 255 
0.5 0.399055 0 255 0 0 255 
0.5 0.240072 0 255 0 0 255 
0.5 0.0450598 0 255 0 0 255 
0.5 0.480518 0 255 0 0 255 
0.5 0.0878641 0 255 0 0 255 
0.5 0.213966 0 255 0 0 255 
0.5 0.498819 0 255 0 0 255 
0.5 0.136913 0 255 0 0 255 
0.5 0.465412 0 255 0 0 255 
0.5 0.0769759 0 255 0 0 255 
0.5 0.27845 0 255 0 0 255 
0.5 0.452998 0 255 0 0 255 
0.5 0.47476 0 255 0 0 255 
0.5 0.418568 0.5 255 0 0 255 
0.5 0.0288134 0.5 255 0 0 255 
0.5 0.407827 0.5 255 0 0 255 
0.5 0.446478 0.5 255 0 0 255 
0.5 0.123018 0.5 255 0 0 255 
0.5 0.391231 0.5 255 0 0 255 
0.5 0.153602 0.5 255 0 0 255 
0.5 0.259771 0.5 255 0 0 255 
0.5 0.0207126 0.5 255 0 0 255 
0.5 0.0501356 0.5 255 0 0 255 
0.5 0.441938 0.5 255 0 0 255 
0.5 0.481784 0.5 255 0 0 255 
0.5 0.0856847 0.5 255 0 0 255 
0.5 0.154783 0.5 255 0 0 255 
0.5 0.439094 0.5 255 0 0 255 
0.5 0.0864837 0.5 255 0 0 255 
0.5 0.197087 0.5 255 0 0 255 
0.5 0.383354 0.5 255 0 0 255 
0.5 0.435995 0.5 255 0 0 255 
0.5 0.0547073 0.5 255 0 0 255 
0.5 0.285246 0.5 255 0 0 255 
0.5 0.048313 0.5 255 0 0 255 
0.5 0.171441 0.5 255 0 0 255 
0.5 0.0190267 0.5 255 0 0 255 
0.5 0.301498 0.5 255 0 0 255 
0.5 0.475769 0.5 255 0 0 255 
0.5 0.451733 0.5 255 0 0 255 
0.5 0.310112 0.5 255 0 0 255 
0.5 0.217493 0.5 255 0 0 255 
0.5 0.408024 0.5 255 0 0 255 
0.5 0.293429 0.5 255 0 0 255 
0.5 0.136061 0.5 255 0 0 255 
0.5 0.436838 0.5 255 0 0 255 
0.5 0.201257 0.5 255 0 0 255 
0.5 0.0825389 0.5 255 0 0 255 
0.5 0.0598562 0.5 255 0 0 255 
0.5 0.0924878 0.5 255 0 0 255 
0.5 0.23614 0.5 255 0 0 255 
0.5 0.319627 0.5 255 0 0 255 
0.5 0.1132 0.5 255 0 0 255 
0.5 0.286276 0.5 255 0 0 255 
0.5 0.261566 0.5 255 0 0 255 
0.5 0.0949839 0.5 255 0 0 255 
0.5 0.371961 0.5 255 0 0 255 
0.5 0.416349 0.5 255 0 0 255 
0.5 0.0340783 0.5 255 0 0 255 
0.5 0.458445 0.5 255 0 0 255 
0.5 0.113436 0.5 255 0 0 255 
0.5 0.417432 0.5 255 0 0 255 
0.5 0.394439 0.5 255 0 0 255 
0.5 0.168143 0.5 255 0 0 255 
0.5 0.202679 0.5 255 0 0 255 
0.5 0.442752 0.5 255 0 0 255 
0.5 0.339584 0.5 255 0 0 255 
0.5 0.221706 0.5 255 0 0 255 
0.5 0.244251 0.5 255 0 0 255 
0.5 0.315353 0.5 255 0 0 255 
0.5 0.173439 0.5 255 0 0 255 
0.5 0.0543628 0.5 255 0 0 255 
0.5 0.0328456 0.5 255 0 0 255 
0.5 0.0814631 0.5 255 0 0 255 
0.5 0.347792 0.5 255 0 0 255 
0.5 0.168907 0.5 255 0 0 255 
0.5 0.0183009 0.5 255 0 0 255 
0.5 0.049049 0.5 255 0 0 255 
0.5 0.251445 0.5 255 0 0 255 
0.5 0.0781571 0.5 255 0 0 255 
0.5 0.141537 0.5 255 0 0 255 
0.5 0.487586 0.5 255 0 0 255 
0.5 0.397784 0.5 255 0 0 255 
0.5 0.254737 0.5 255 0 0 255 
0.5 0.273862 0.5 255 0 0 255 
0.5 0.15935 0.5 255 0 0 255 
0.5 0.349721 0.5 255 0 0 255 
0.5 0.145823 0.5 255 0 0 255 
0.5 0.0756987 0.5 255 0 0 255 
0.5 0.383799 0.5 255 0 0 255 
0.5 0.104267 0.5 255 0 0 255 
0.5 0.189134 0.5 255 0 0 255 
0.5 0.301232 0.5 255 0 0 255 
0.5 0.498706 0.5 255 0 0 255 
0.5 0.357277 0.5 255 0 0 255 
0.5 0.00391045 0.5 255 0 0 255 
0.5 0.441459 0.5 255 0 0 255 
0.5 0.196861 0.5 255 0 0 255 
0.5 0.225616 0.5 255 0 0 255 
0.5 0.185709 0.5 255 0 0 255 
0.5 0.0122142 0.5 255 0 0 255 
0.5 0.399055 0.5 255 0 0 255 
0.5 0.240072 0.5 255 0 0 255 
0.5 0.0450598 0.5 255 0 0 255 
0.5 0.480518 0.5 255 0 0 255 
0.5 0.0878641 0.5 255 0 0 255 
0.5 0.213966 0.5 255 0 0 255 
0.5 0.498819 0.5 255 0 0 255 
0.5 0.136913 0.5 255 0 0 255 
0.5 0.465412 0.5 255 0 0 255 
0.5 0.0769759 0.5 255 0 0 255 
0.5 0.27845 0.5 255 0 0 255 
0.5 0.452998 0.5 255 0 0 255 
0.5 0.47476 0.5 255 0 0 255 
0.418568 0 0.5 255 0 0 255 
0.0288134 0 0.5 255 0 0 255 
0.407827 0 0.5 255 0 0 255 
0.446478 0 0.5 255 0 0 255 
0.123018 0 0.5 255 0 0 255 
0.391231 0 0.5 255 0 0 255 
0.153602 0 0.5 255 0 0 255 
0.259771 0 0.5 255 0 0 255 
0.0207126 0 0.5 255 0 0 255 
0.0501356 0 0.5 255 0 0 255 
0.441938 0 0.5 255 0 0 255 
0.481784 0 0.5 255 0 0 255 
0.0856847 0 0.5 255 0 0 255 
0.154783 0 0.5 255 0 0 255 
0.439094 0 0.5 255 0 0 255 
0.0864837 0 0.5 255 0 0 255 
0.197087 0 0.5 255 0 0 255 
0.383354 0 0.5 255 0 0 255 
0.435995 0 0.5 255 0 0 255 
0.0547073 0 0.5 255 0 0 255 
0.285246 0 0.5 255 0 0 255 
0.048313 0 0.5 255 0 0 255 
0.171441 0 0.5 255 0 0 255 
0.0190267 0 0.5 255 0 0 255 
0.301498 0 0.5 255 0 0 255 
0.475769 0 0.5 255 0 0 255 
0.451733 0 0.5 255 0 0 255 
0.310112 0 0.5 255 0 0 255 
0.217493 0 0.5 255 0 0 255 
0.408024 0 0.5 255 0 0 255 
0.293429 0 0.5 255 0 0 255 
0.136061 0 0.5 255 0 0 255 
0.436838 0 0.5 255 0 0 255 
0.201257 0 0.5 255 0 0 255 
0.0825389 0 0.5 255 0 0 255 
0.0598562 0 0.5 255 0 0 255 
0.0924878 0 0.5 255 0 0 255 
0.23614 0 0.5 255 0 0 255 
0.319627 0 0.5 255 0 0 255 
0.1132 0 0.5 255 0 0 255 
0.286276 0 0.5 255 0 0 255 
0.261566 0 0.5 255 0 0 255 
0.0949839 0 0.5 255 0 0 255 
0.371961 0 0.5 255 0 0 255 
0.416349 0 0.5 255 0 0 255 
0.0340783 0 0.5 255 0 0 255 
0.458445 0 0.5 255 0 0 255 
0.113436 0 0.5 255 0 0 255 
0.417432 0 0.5 255 0 0 255 
0.394439 0 0.5 255 0 0 255 
0.168143 0 0.5 255 0 0 255 
0.202679 0 0.5 255 0 0 255 
0.442752 0 0.5 255 0 0 255 
0.339584 0 0.5 255 0 0 255 
0.221706 0 0.5 255 0 0 255 
0.244251 0 0.5 255 0 0 255 
0.315353 0 0.5 255 0 0 255 
0.173439 0 0.5 255 0 0 255 
0.0543628 0 0.5 255 0 0 255 
0.0328456 0 0.5 255 0 0 255 
0.0814631 0 0.5 255 0 0 255 
0.347792 0 0.5 255 0 0 255 
0.168907 0 0.5 255 0 0 255 
0.0183009 0 0.5 255 0 0 255 
0.049049 0 0.5 255 0 0 255 
0.251445 0 0.5 255 0 0 255 
0.0781571 0 0.5 255 0 0 255 
0.141537 0 0.5 255 0 0 255 
0.487586 0 0.5 255 0 0 255 
0.397784 0 0.5 255 0 0 255 
0.254737 0 0.5 255 0 0 255 
0.273862 0 0.5 255 0 0 255 
0.15935 0 0.5 255 0 0 255 
0.349721 0 0.5 255 0 0 255 
0.145823 0 0.5 255 0 0 255 
0.0756987 0 0.5 255 0 0 255 
0.383799 0 0.5 255 0 0 255 
0.104267 0 0.5 255 0 0 255 
0.189134 0 0.5 255 0 0 255 
0.301232 0 0.5 255 0 0 255 
0.498706 0 0.5 255 0 0 255 
0.357277 0 0.5 255 0 0 255 
0.00391045 0 0.5 255 0 0 255 
0.441459 0 0.5 255 0 0 255 
0.196861 0 0.5 255 0 0 255 
0.225616 0 0.5 255 0 0 255 
0.185709 0 0.5 255 0 0 255 
0.0122142 0 0.5 255 0 0 255 
0.399055 0 0.5 255 0 0 255 
0.240072 0 0.5 255 0 0 255 
0.0450598 0 0.5 255 0 0 255 
0.480518 0 0.5 255 0 0 255 
0.0878641 0 0.5 255 0 0 255 
0.213966 0 0.5 255 0 0 255 
0.498819 0 0.5 255 0 0 255 
0.136913 0 0.5 255 0 0 255 
0.465412 0 0.5 255 0 0 255 
0.0769759 0 0.5 255 0 0 255 
0.27845 0 0.5 255 0 0 255 
0.452998 0 0.5 255 0 0 255 
0.47476 0 0.5 255 0 0 255 
0.418568 0 0 255 0 0 255 
0.0288134 0 0 255 0 0 255 
0.407827 0 0 255 0 0 255 
0.446478 0 0 255 0 0 255 
0.123018 0 0 255 0 0 255 
0.391231 0 0 255 0 0 255 
0.153602 0 0 255 0 0 255 
0.259771 0 0 255 0 0 255 
0.0207126 0 0 255 0 0 255 
0.0501356 0 0 255 0 0 255 
0.441938 0 0 255 0 0 255 
0.481784 0 0 255 0 0 255 
0.0856847 0 0 255 0 0 255 
0.154783 0 0 255 0 0 255 
0.439094 0 0 255 0 0 255 
0.0864837 0 0 255 0 0 255 
0.197087 0 0 255 0 0 255 
0.383354 0 0 255 0 0 255 
0.435995 0 0 255 0 0 255 
0.0547073 0 0 255 0 0 255 
0.285246 0 0 255 0 0 255 
0.048313 0 0 255 0 0 255 
0.171441 0 0 255 0 0 255 
0.0190267 0 0 255 0 0 255 
0.301498 0 0 255 0 0 255 
0.475769 0 0 255 0 0 255 
0.451733 0 0 255 0 0 255 
0.310112 0 0 255 0 0 255 
0.217493 0 0 255 0 0 255 
0.408024 0 0 255 0 0 255 
0.293429 0 0 255 0 0 255 
0.136061 0 0 255 0 0 255 
0.436838 0 0 255 0 0 255 
0.201257 0 0 255 0 0 255 
0.0825389 0 0 255 0 0 255 
0.0598562 0 0 255 0 0 255 
0.0924878 0 0 255 0 0 255 
0.23614 0 0 255 0 0 255 
0.319627 0 0 255 0 0 255 
0.1132 0 0 255 0 0 255 
0.286276 0 0 255 0 0 255 
0.261566 0 0 255 0 0 255 
0.0949839 0 0 255 0 0 255 
0.371961 0 0 255 0 0 255 
0.416349 0 0 255 0 0 255 
0.0340783 0 0 255 0 0 255 
0.458445 0 0 255 0 0 255 
0.113436 0 0 255 0 0 255 
0.417432 0 0 255 0 0 255 
0.394439 0 0 255 0 0 255 
0.168143 0 0 255 0 0 255 
0.202679 0 0 255 0 0 255 
0.442752 0 0 255 0 0 255 
0.339584 0 0 255 0 0 255 
0.221706 0 0 255 0 0 255 
0.244251 0 0 255 0 0 255 
0.315353 0 0 255 0 0 255 
0.173439 0 0 255 0 0 255 
0.0543628 0 0 255 0 0 255 
0.0328456 0 0 255 0 0 255 
0.0814631 0 0 255 0 0 255 
0.347792 0 0 255 0 0 255 
0.168907 0 0 255 0 0 255 
0.0183009 0 0 255 0 0 255 
0.049049 0 0 255 0 0 255 
0.251445 0 0 255 0 0 255 
0.0781571 0 0 255 0 0 255 
0.141537 0 0 255 0 0 255 
0.487586 0 0 255 0 0 255 
0.397784 0 0 255 0 0 255 
0.254737 0 0 255 0 0 255 
0.273862 0 0 255 0 0 255 
0.15935 0 0 255 0 0 255 
0.349721 0 0 255 0 0 255 
0.145823 0 0 255 0 0 255 
0.0756987 0 0 255 0 0 255 
0.383799 0 0 255 0 0 255 
0.104267 0 0 255 0 0 255 
0.189134 0 0 255 0 0 255 
0.301232 0 0 255 0 0 255 
0.498706 0 0 255 0 0 255 
0.357277 0 0 255 0 0 255 
0.00391045 0 0 255 0 0 255 
0.441459 0 0 255 0 0 255 
0.196861 0 0 255 0 0 255 
0.225616 0 0 255 0 0 255 
0.185709 0 0 255 0 0 255 
0.0122142 0 0 255 0 0 255 
0.399055 0 0 255 0 0 255 
0.240072 0 0 255 0 0 255 
0.0450598 0 0 255 0 0 255 
0.480518 0 0 255 0 0 255 
0.0878641 0 0 255 0 0 255 
0.213966 0 0 255 0 0 255 
0.498819 0 0 255 0 0 255 
0.136913 0 0 255 0 0 255 
0.465412 0 0 255 0 0 255 
0.0769759 0 0 255 0 0 255 
0.27845 0 0 255 0 0 255 
0.452998 0 0 255 0 0 255 
0.47476 0 0 255 0 0 255 
0.418568 0.5 0.5 255 0 0 255 
0.0288134 0.5 0.5 255 0 0 255 
0.407827 0.5 0.5 255 0 0 255 
0.446478 0.5 0.5 255 0 0 255 
0.123018 0.5 0.5 255 0 0 255 
0.391231 0.5 0.5 255 0 0 255 
0.153602 0.5 0.5 255 0 0 255 
0.259771 0.5 0.5 255 0 0 255 
0.0207126 0.5 0.5 255 0 0 255 
0.0501356 0.5 0.5 255 0 0 255 
0.441938 0.5 0.5 255 0 0 255 
0.481784 0.5 0.5 255 0 0 255 
0.0856847 0.5 0.5 255 0 0 255 
0.154783 0.5 0.5 255 0 0 255 
0.439094 0.5 0.5 255 0 0 255 
0.0864837 0.5 0.5 255 0 0 255 
0.197087 0.5 0.5 255 0 0 255 
0.383354 0.5 0.5 255 0 0 255 
0.435995 0.5 0.5 255 0 0 255 
0.0547073 0.5 0.5 255 0 0 255 
0.285246 0.5 0.5 255 0 0 255 
0.048313 0.5 0.5 255 0 0 255 
0.171441 0.5 0.5 255 0 0 255 
0.0190267 0.5 0.5 255 0 0 255 
0.301498 0.5 0.5 255 0 0 255 
0.475769 0.5 0.5 255 0 0 255 
0.451733 0.5 0.5 255 0 0 255 
0.310112 0.5 0.5 255 0 0 255 
0.217493 0.5 0.5 255 0 0 255 
0.408024 0.5 0.5 255 0 0 255 
0.293429 0.5 0.5 255 0 0 255 
0.136061 0.5 0.5 255 0 0 255 
0.436838 0.5 0.5 255 0 0 255 
0.201257 0.5 0.5 255 0 0 255 
0.0825389 0.5 0.5 255 0 0 255 
0.0598562 0.5 0.5 255 0 0 255 
0.0924878 0.5 0.5 255 0 0 255 
0.23614 0.5 0.5 255 0 0 255 
0.319627 0.5 0.5 255 0 0 255 
0.1132 0.5 0.5 255 0 0 255 
0.286276 0.5 0.5 255 0 0 255 
0.261566 0.5 0.5 255 0 0 255 
0.0949839 0.5 0.5 255 0 0 255 
0.371961 0.5 0.5 255 0 0 255 
0.416349 0.5 0.5 255 0 0 255 
0.0340783 0.5 0.5 255 0 0 255 
0.458445 0.5 0.5 255 0 0 255 
0.113436 0.5 0.5 255 0 0 255 
0.417432 0.5 0.5 255 0 0 255 
0.394439 0.5 0.5 255 0 0 255 
0.168143 0.5 0.5 255 0 0 255 
0.202679 0.5 0.5 255 0 0 255 
0.442752 0.5 0.5 255 0 0 255 
0.339584 0.5 0.5 255 0 0 255 
0.221706 0.5 0.5 255 0 0 255 
0.244251 0.5 0.5 255 0 0 255 
0.315353 0.5 0.5 255 0 0 255 
0.173439 0.5 0.5 255 0 0 255 
0.0543628 0.5 0.5 255 0 0 255 
0.0328456 0.5 0.5 255 0 0 255 
0.0814631 0.5 0.5 255 0 0 255 
0.347792 0.5 0.5 255 0 0 255 
0.168907 0.5 0.5 255 0 0 255 
0.0183009 0.5 0.5 255 0 0 255 
0.049049 0.5 0.5 255 0 0 255 
0.251445 0.5 0.5 255 0 0 255 
0.0781571 0.5 0.5 255 0 0 255 
0.141537 0.5 0.5 255 0 0 255 
0.487586 0.5 0.5 255 0 0 255 
0.397784 0.5 0.5 255 0 0 255 
0.254737 0.5 0.5 255 0 0 255 
0.273862 0.5 0.5 255 0 0 255 
0.15935 0.5 0.5 255 0 0 255 
0.349721 0.5 0.5 255 0 0 255 
0.145823 0.5 0.5 255 0 0 255 
0.0756987 0.5 0.5 255 0 0 255 
0.383799 0.5 0.5 255 0 0 255 
0.104267 0.5 0.5 255 0 0 255 
0.189134 0.5 0.5 255 0 0 255 
0.301232 0.5 0.5 255 0 0 255 
0.498706 0.5 0.5 255 0 0 255 
0.357277 0.5 0.5 255 0 0 255 
0.00391045 0.5 0.5 255 0 0 255 
0.441459 0.5 0.5 255 0 0 255 
0.196861 0.5 0.5 255 0 0 255 
0.225616 0.5 0.5 255 0 0 255 
0.185709 0.5 0.5 255 0 0 255 
0.0122142 0.5 0.5 255 0 0 255 
0.399055 0.5 0.5 255 0 0 255 
0.240072 0.5 0.5 255 0 0 255 
0.0450598 0.5 0.5 255 0 0 255 
0.480518 0.5 0.5 255 0 0 255 
0.0878641 0.5 0.5 255 0 0 255 
0.213966 0.5 0.5 255 0 0 255 
0.498819 0.5 0.5 255 0 0 255 
0.136913 0.5 0.5 255 0 0 255 
0.465412 0.5 0.5 255 0 0 255 
0.0769759 0.5 0.5 255 0 0 255 
0.27845 0.5 0.5 255 0 0 255 
0.452998 0.5 0.5 255 0 0 255 
0.47476 0.5 0.5 255 0 0 255 
0.418568 0.5 0 255 0 0 255 
0.0288134 0.5 0 255 0 0 255 
0.407827 0.5 0 255 0 0 255 
0.446478 0.5 0 255 0 0 255 
0.123018 0.5 0 255 0 0 255 
0.391231 0.5 0 255 0 0 255 
0.153602 0.5 0 255 0 0 255 
0.259771 0.5 0 255 0 0 255 
0.0207126 0.5 0 255 0 0 255 
0.0501356 0.5 0 255 0 0 255 
0.441938 0.5 0 255 0 0 255 
0.481784 0.5 0 255 0 0 255 
0.0856847 0.5 0 255 0 0 255 
0.154783 0.5 0 255 0 0 255 
0.439094 0.5 0 255 0 0 255 
0.0864837 0.5 0 255 0 0 255 
0.197087 0.5 0 255 0 0 255 
0.383354 0.5 0 255 0 0 255 
0.435995 0.5 0 255 0 0 255 
0.0547073 0.5 0 255 0 0 255 
0.285246 0.5 0 255 0 0 255 
0.048313 0.5 0 255 0 0 255 
0.171441 0.5 0 255 0 0 255 
0.0190267 0.5 0 255 0 0 255 
0.301498 0.5 0 255 0 0 255 
0.475769 0.5 0 255 0 0 255 
0.451733 0.5 0 255 0 0 255 
0.310112 0.5 0 255 0 0 255 
0.217493 0.5 0 255 0 0 255 
0.408024 0.5 0 255 0 0 255 
0.293429 0.5 0 255 0 0 255 
0.136061 0.5 0 255 0 0 255 
0.436838 0.5 0 255 0 0 255 
0.201257 0.5 0 255 0 0 255 
0.0825389 0.5 0 255 0 0 255 
0.0598562 0.5 0 255 0 0 255 
0.0924878 0.5 0 255 0 0 255 
0.23614 0.5 0 255 0 0 255 
0.319627 0.5 0 255 0 0 255 
0.1132 0.5 0 255 0 0 255 
0.286276 0.5 0 255 0 0 255 
0.261566 0.5 0 255 0 0 255 
0.0949839 0.5 0 255 0 0 255 
0.371961 0.5 0 255 0 0 255 
0.416349 0.5 0 255 0 0 255 
0.0340783 0.5 0 255 0 0 255 
0.458445 0.5 0 255 0 0 255 
0.113436 0.5 0 255 0 0 255 
0.417432 0.5 0 255 0 0 255 
0.394439 0.5 0 255 0 0 255 
0.168143 0.5 0 255 0 0 255 
0.202679 0.5 0 255 0 0 255 
0.442752 0.5 0 255 0 0 255 
0.339584 0.5 0 255 0 0 255 
0.221706 0.5 0 255 0 0 255 
0.244251 0.5 0 255 0 0 255 
0.315353 0.5 0 255 0 0 255 
0.173439 0.5 0 255 0 0 255 
0.0543628 0.5 0 255 0 0 255 
0.0328456 0.5 0 255 0 0 255 
0.0814631 0.5 0 255 0 0 255 
0.347792 0.5 0 255 0 0 255 
0.168907 0.5 0 255 0 0 255 
0.0183009 0.5 0 255 0 0 255 
0.049049 0.5 0 255 0 0 255 
0.251445 0.5 0 255 0 0 255 
0.0781571 0.5 0 255 0 0 255 
0.141537 0.5 0 255 0 0 255 
0.487586 0.5 0 255 0 0 255 
0.397784 0.5 0 255 0 0 255 
0.254737 0.5 0 255 0 0 255 
0.273862 0.5 0 255 0 0 255 
0.15935 0.5 0 255 0 0 255 
0.349721 0.5 0 255 0 0 255 
0.145823 0.5 0 255 0 0 255 
0.0756987 0.5 0 255 0 0 255 
0.383799 0.5 0 255 0 0 255 
0.104267 0.5 0 255 0 0 255 
0.189134 0.5 0 255 0 0 255 
0.301232 0.5 0 255 0 0 255 
0.498706 0.5 0 255 0 0 255 
0.357277 0.5 0 255 0 0 255 
0.00391045 0.5 0 255 0 0 255 
0.441459 0.5 0 255 0 0 255 
0.196861 0.5 0 255 0 0 255 
0.225616 0.5 0 255 0 0 255 
0.185709 0.5 0 255 0 0 255 
0.0122142 0.5 0 255 0 0 255 
0.399055 0.5 0 255 0 0 255 
0.240072 0.5 0 255 0 0 255 
0.0450598 0.5 0 255 0 0 255 
0.480518 0.5 0 255 0 0 255 
0.0878641 0.5 0 255 0 0 255 
0.213966 0.5 0 255 0 0 255 
0.498819 0.5 0 255 0 0 255 
0.136913 0.5 0 255 0 0 255 
0.465412 0.5 0 255 0 0 255 
0.0769759 0.5 0 255 0 0 255 
0.27845 0.5 0 255 0 0 255 
0.452998 0.5 0 255 0 0 255 
0.47476 0.5 0 255 0 0 255 
0.334 0.334 0.306802 255 0 0 255 
0.334 0.334 0.176624 255 0 0 255 
0.334 0.334 0.303214 255 0 0 255 
0.334 0.334 0.316124 255 0 0 255 
0.334 0.334 0.208088 255 0 0 255 
0.334 0.334 0.297671 255 0 0 255 
0.334 0.334 0.218303 255 0 0 255 
0.334 0.334 0.253764 255 0 0 255 
0.334 0.334 0.173918 255 0 0 255 
0.334 0.334 0.183745 255 0 0 255 
0.334 0.334 0.314607 255 0 0 255 
0.334 0.334 0.327916 255 0 0 255 
0.334 0.334 0.195619 255 0 0 255 
0.334 0.334 0.218697 255 0 0 255 
0.334 0.334 0.313658 255 0 0 255 
0.334 0.334 0.195886 255 0 0 255 
0.334 0.334 0.232827 255 0 0 255 
0.334 0.334 0.29504 255 0 0 255 
0.334 0.334 0.312622 255 0 0 255 
0.334 0.334 0.185272 255 0 0 255 
0.334 0.334 0.262272 255 0 0 255 
0.334 0.334 0.183137 255 0 0 255 
0.334 0.334 0.224261 255 0 0 255 
0.334 0.334 0.173355 255 0 0 255 
0.334 0.334 0.2677 255 0 0 255 
0.334 0.334 0.325907 255 0 0 255 
0.334 0.334 0.317879 255 0 0 255 
0.334 0.334 0.270577 255 0 0 255 
0.334 0.334 0.239643 255 0 0 255 
0.334 0.334 0.30328 255 0 0 255 
0.334 0.334 0.265005 255 0 0 255 
0.334 0.334 0.212444 255 0 0 255 
0.334 0.334 0.312904 255 0 0 255 
0.334 0.334 0.23422 255 0 0 255 
0.334 0.334 0.194568 255 0 0 255 
0.334 0.334 0.186992 255 0 0 255 
0.334 0.334 0.197891 255 0 0 255 
0.334 0.334 0.245871 255 0 0 255 
0.334 0.334 0.273756 255 0 0 255 
0.334 0.334 0.204809 255 0 0 255 
0.334 0.334 0.262616 255 0 0 255 
0.334 0.334 0.254363 255 0 0 255 
0.334 0.334 0.198725 255 0 0 255 
0.334 0.334 0.291235 255 0 0 255 
0.334 0.334 0.30606 255 0 0 255 
0.334 0.334 0.178382 255 0 0 255 
0.334 0.334 0.32012 255 0 0 255 
0.334 0.334 0.204887 255 0 0 255 
0.334 0.334 0.306422 255 0 0 255 
0.334 0.334 0.298743 255 0 0 255 
0.334 0.334 0.22316 255 0 0 255 
0.334 0.334 0.234695 255 0 0 255 
0.334 0.334 0.314879 255 0 0 255 
0.334 0.334 0.280421 255 0 0 255 
0.334 0.334 0.24105 255 0 0 255 
0.334 0.334 0.24858 255 0 0 255 
0.334 0.334 0.272328 255 0 0 255 
0.334 0.334 0.224929 255 0 0 255 
0.334 0.334 0.185157 255 0 0 255 
0.334 0.334 0.17797 255 0 0 255 
0.334 0.334 0.194209 255 0 0 255 
0.334 0.334 0.283163 255 0 0 255 
0.334 0.334 0.223415 255 0 0 255 
0.334 0.334 0.173113 255 0 0 255 
0.334 0.334 0.183382 255 0 0 255 
0.334 0.334 0.250983 255 0 0 255 
0.334 0.334 0.193104 255 0 0 255 
0.334 0.334 0.214273 255 0 0 255 
0.334 0.334 0.329854 255 0 0 255 
0.334 0.334 0.29986 255 0 0 255 
0.334 0.334 0.252082 255 0 0 255 
0.334 0.334 0.25847 255 0 0 255 
0.334 0.334 0.220223 255 0 0 255 
0.334 0.334 0.283807 255 0 0 255 
0.334 0.334 0.215705 255 0 0 255 
0.334 0.334 0.192283 255 0 0 255 
0.334 0.334 0.295189 255 0 0 255 
0.334 0.334 0.201825 255 0 0 255 
0.334 0.334 0.230171 255 0 0 255 
0.334 0.334 0.267611 255 0 0 255 
0.334 0.334 0.333568 255 0 0 255 
0.334 0.334 0.286331 255 0 0 255 
0.334 0.334 0.168306 255 0 0 255 
0.334 0.334 0.314447 255 0 0 255 
0.334 0.334 0.232752 255 0 0 255 
0.334 0.334 0.242356 255 0 0 255 
0.334 0.334 0.229027 255 0 0 255 
0.334 0.334 0.17108 255 0 0 255 
0.334 0.334 0.300284 255 0 0 255 
0.334 0.334 0.247184 255 0 0 255 
0.334 0.334 0.18205 255 0 0 255 
0.334 0.334 0.327493 255 0 0 255 
0.334 0.334 0.196347 255 0 0 255 
0.334 0.334 0.238465 255 0 0 255 
0.334 0.334 0.333605 255 0 0 255 
0.334 0.334 0.212729 255 0 0 255 
0.334 0.334 0.322448 255 0 0 255 
0.334 0.334 0.19271 255 0 0 255 
0.334 0.334 0.260002 255 0 0 255 
0.334 0.334 0.318301 255 0 0 255 
0.334 0.334 0.32557 255 0 0 255 
0.334 0.167 0.306802 255 0 0 255 
0.334 0.167 0.176624 255 0 0 255 
0.334 0.167 0.303214 255 0 0 255 
0.334 0.167 0.316124 255 0 0 255 
0.334 0.167 0.208088 255 0 0 255 
0.334 0.167 0.297671 255 0 0 255 
0.334 0.167 0.218303 255 0 0 255 
0.334 0.167 0.253764 255 0 0 255 
0.334 0.167 0.173918 255 0 0 255 
0.334 0.167 0.183745 255 0 0 255 
0.334 0.167 0.314607 255 0 0 255 
0.334 0.167 0.327916 255 0 0 255 
0.334 0.167 0.195619 255 0 0 255 
0.334 0.167 0.218697 255 0 0 255 
0.334 0.167 0.313658 255 0 0 255 
0.334 0.167 0.195886 255 0 0 255 
0.334 0.167 0.232827 255 0 0 255 
0.334 0.167 0.29504 255 0 0 255 
0.334 0.167 0.312622 255 0 0 255 
0.334 0.167 0.185272 255 0 0 255 
0.334 0.167 0.262272 255 0 0 255 
0.334 0.167 0.183137 255 0 0 255 
0.334 0.167 0.224261 255 0 0 255 
0.334 0.167 0.173355 255 0 0 255 
0.334 0.167 0.2677 255 0 0 255 
0.334 0.167 0.325907 255 0 0 255 
0.334 0.167 0.317879 255 0 0 255 
0.334 0.167 0.270577 255 0 0 255 
0.334 0.167 0.239643 255 0 0 255 
0.334 0.167 0.30328 255 0 0 255 
0.334 0.167 0.265005 255 0 0 255 
0.334 0.167 0.212444 255 0 0 255 
0.334 0.167 0.312904 255 0 0 255 
0.334 0.167 0.23422 255 0 0 255 
0.334 0.167 0.194568 255 0 0 255 
0.334 0.167 0.186992 255 0 0 255 
0.334 0.167 0.197891 255 0 0 255 
0.334 0.167 0.245871 255 0 0 255 
0.334 0.167 0.273756 255 0 0 255 
0.334 0.167 0.204809 255 0 0 255 
0.334 0.167 0.262616 255 0 0 255 
0.334 0.167 0.254363 255 0 0 255 
0.334 0.167 0.198725 255 0 0 255 
0.334 0.167 0.291235 255 0 0 255 
0.334 0.167 0.30606 255 0 0 255 
0.334 0.167 0.178382 255 0 0 255 
0.334 0.167 0.32012 255 0 0 255 
0.334 0.167 0.204887 255 0 0 255 
0.334 0.167 0.306422 255 0 0 255 
0.334 0.167 0.298743 255 0 0 255 
0.334 0.167 0.22316 255 0 0 255 
0.334 0.167 0.234695 255 0 0 255 
0.334 0.167 0.314879 255 0 0 255 
0.334 0.167 0.280421 255 0 0 255 
0.334 0.167 0.24105 255 0 0 255 
0.334 0.167 0.24858 255 0 0 255 
0.334 0.167 0.272328 255 0 0 255 
0.334 0.167 0.224929 255 0 0 255 
0.334 0.167 0.185157 255 0 0 255 
0.334 0.167 0.17797 255 0 0 255 
0.334 0.167 0.194209 255 0 0 255 
0.334 0.167 0.283163 255 0 0 255 
0.334 0.167 0.223415 255 0 0 255 
0.334 0.167 0.173113 255 0 0 255 
0.334 0.167 0.183382 255 0 0 255 
0.334 0.167 0.250983 255 0 0 255 
0.334 0.167 0.193104 255 0 0 255 
0.334 0.167 0.214273 255 0 0 255 
0.334 0.167 0.329854 255 0 0 255 
0.334 0.167 0.29986 255 0 0 255 
0.334 0.167 0.252082 255 0 0 255 
0.334 0.167 0.25847 255 0 0 255 
0.334 0.167 0.220223 255 0 0 255 
0.334 0.167 0.283807 255 0 0 255 
0.334 0.167 0.215705 255 0 0 255 
0.334 0.167 0.192283 255 0 0 255 
0.334 0.167 0.295189 255 0 0 255 
0.334 0.167 0.201825 255 0 0 255 
0.334 0.167 0.230171 255 0 0 255 
0.334 0.167 0.267611 255 0 0 255 
0.334 0.167 0.333568 255 0 0 255 
0.334 0.167 0.286331 255 0 0 255 
0.334 0.167 0.168306 255 0 0 255 
0.334 0.167 0.314447 255 0 0 255 
0.334 0.167 0.232752 255 0 0 255 
0.334 0.167 0.242356 255 0 0 255 
0.334 0.167 0.229027 255 0 0 255 
0.334 0.167 0.17108 255 0 0 255 
0.334 0.167 0.300284 255 0 0 255 
0.334 0.167 0.247184 255 0 0 255 
0.334 0.167 0.18205 255 0 0 255 
0.334 0.167 0.327493 255 0 0 255 
0.334 0.167 0.196347 255 0 0 255 
0.334 0.167 0.238465 255 0 0 255 
0.334 0.167 0.333605 255 0 0 255 
0.334 0.167 0.212729 255 0 0 255 
0.334 0.167 0.322448 255 0 0 255 
0.334 0.167 0.19271 255 0 0 255 
0.334 0.167 0.260002 255 0 0 255 
0.334 0.167 0.318301 255 0 0 255 
0.334 0.167 0.32557 255 0 0 255 
0.334 0.333568 0.334 255 0 0 255 
0.334 0.168306 0.334 255 0 0 255 
0.334 0.333605 0.334 255 0 0 255 
0.334 0.333568 0.167 255 0 0 255 
0.334 0.168306 0.167 255 0 0 255 
0.334 0.333605 0.167 255 0 0 255 
0.167 0.334 0.306802 255 0 0 255 
0.167 0.334 0.176624 255 0 0 255 
0.167 0.334 0.303214 255 0 0 255 
0.167 0.334 0.316124 255 0 0 255 
0.167 0.334 0.208088 255 0 0 255 
0.167 0.334 0.297671 255 0 0 255 
0.167 0.334 0.218303 255 0 0 255 
0.167 0.334 0.253764 255 0 0 255 
0.167 0.334 0.173918 255 0 0 255 
0.167 0.334 0.183745 255 0 0 255 
0.167 0.334 0.314607 255 0 0 255 
0.167 0.334 0.327916 255 0 0 255 
0.167 0.334 0.195619 255 0 0 255 
0.167 0.334 0.218697 255 0 0 255 
0.167 0.334 0.313658 255 0 0 255 
0.167 0.334 0.195886 255 0 0 255 
0.167 0.334 0.232827 255 0 0 255 
0.167 0.334 0.29504 255 0 0 255 
0.167 0.334 0.312622 255 0 0 255 
0.167 0.334 0.185272 255 0 0 255 
0.167 0.334 0.262272 255 0 0 255 
0.167 0.334 0.183137 255 0 0 255 
0.167 0.334 0.224261 255 0 0 255 
0.167 0.334 0.173355 255 0 0 255 
0.167 0.334 0.2677 255 0 0 255 
0.167 0.334 0.325907 255 0 0 255 
0.167 0.334 0.317879 255 0 0 255 
0.167 0.334 0.270577 255 0 0 255 
0.167 0.334 0.239643 255 0 0 255 
0.167 0.334 0.30328 255 0 0 255 
0.167 0.334 0.265005 255 0 0 255 
0.167 0.334 0.212444 255 0 0 255 
0.167 0.334 0.312904 255 0 0 255 
0.167 0.334 0.23422 255 0 0 255 
0.167 0.334 0.194568 255 0 0 255 
0.167 0.334 0.186992 255 0 0 255 
0.167 0.334 0.197891 255 0 0 255 
0.167 0.334 0.245871 255 0 0 255 
0.167 0.334 0.273756 255 0 0 255 
0.167 0.334 0.204809 255 0 0 255 
0.167 0.334 0.262616 255 0 0 255 
0.167 0.334 0.254363 255 0 0 255 
0.167 0.334 0.198725 255 0 0 255 
0.167 0.334 0.291235 255 0 0 255 
0.167 0.334 0.30606 255 0 0 255 
0.167 0.334 0.178382 255 0 0 255 
0.167 0.334 0.32012 255 0 0 255 
0.167 0.334 0.204887 255 0 0 255 
0.167 0.334 0.306422 255 0 0 255 
0.167 0.334 0.298743 255 0 0 255 
0.167 0.334 0.22316 255 0 0 255 
0.167 0.334 0.234695 255 0 0 255 
0.167 0.334 0.314879 255 0 0 255 
0.167 0.334 0.280421 255 0 0 255 
0.167 0.334 0.24105 255 0 0 255 
0.167 0.334 0.24858 255 0 0 255 
0.167 0.334 0.272328 255 0 0 255 
0.167 0.334 0.224929 255 0 0 255 
0.167 0.334 0.185157 255 0 0 255 
0.167 0.334 0.17797 255 0 0 255 
0.167 0.334 0.194209 255 0 0 255 
0.167 0.334 0.283163 255 0 0 255 
0.167 0.334 0.223415 255 0 0 255 
0.167 0.334 0.173113 255 0 0 255 
0.167 0.334 0.183382 255 0 0 255 
0.167 0.334 0.250983 255 0 0 255 
0.167 0.334 0.193104 255 0 0 255 
0.167 0.334 0.214273 255 0 0 255 
0.167 0.334 0.329854 255 0 0 255 
0.167 0.334 0.29986 255 0 0 255 
0.167 0.334 0.252082 255 0 0 255 
0.167 0.334 0.25847 255 0 0 255 
0.167 0.334 0.220223 255 0 0 255 
0.167 0.334 0.283807 255 0 0 255 
0.167 0.334 0.215705 255 0 0 255 
0.167 0.334 0.192283 255 0 0 255 
0.167 0.334 0.295189 255 0 0 255 
0.167 0.334 0.201825 255 0 0 255 
0.167 0.334 0.230171 255 0 0 255 
0.167 0.334 0.267611 255 0 0 255 
0.167 0.334 0.333568 255 0 0 255 
0.167 0.334 0.286331 255 0 0 255 
0.167 0.334 0.168306 255 0 0 255 
0.167 0.334 0.314447 255 0 0 255 
0.167 0.334 0.232752 255 0 0 255 
0.167 0.334 0.242356 255 0 0 255 
0.167 0.334 0.229027 255 0 0 255 
0.167 0.334 0.17108 255 0 0 255 
0.167 0.334 0.300284 255 0 0 255 
0.167 0.334 0.247184 255 0 0 255 
0.167 0.334 0.18205 255 0 0 255 
0.167 0.334 0.327493 255 0 0 255 
0.167 0.334 0.196347 255 0 0 255 
0.167 0.334 0.238465 255 0 0 255 
0.167 0.334 0.333605 255 0 0 255 
0.167 0.334 0.212729 255 0 0 255 
0.167 0.334 0.322448 255 0 0 255 
0.167 0.334 0.19271 255 0 0 255 
0.167 0.334 0.260002 255 0 0 255 
0.167 0.334 0.318301 255 0 0 255 
0.167 0.334 0.32557 255 0 0 255 
0.167 0.167 0.306802 255 0 0 255 
0.167 0.167 0.176624 255 0 0 255 
0.167 0.167 0.303214 255 0 0 255 
0.167 0.167 0.316124 255 0 0 255 
0.167 0.167 0.208088 255 0 0 255 
0.167 0.167 0.297671 255 0 0 255 
0.167 0.167 0.218303 255 0 0 255 
0.167 0.167 0.253764 255 0 0 255 
0.167 0.167 0.173918 255 0 0 255 
0.167 0.167 0.183745 255 0 0 255 
0.167 0.167 0.314607 255 0 0 255 
0.167 0.167 0.327916 255 0 0 255 
0.167 0.167 0.195619 255 0 0 255 
0.167 0.167 0.218697 255 0 0 255 
0.167 0.167 0.313658 255 0 0 255 
0.167 0.167 0.195886 255 0 0 255 
0.167 0.167 0.232827 255 0 0 255 
0.167 0.167 0.29504 255 0 0 255 
0.167 0.167 0.312622 255 0 0 255 
0.167 0.167 0.185272 255 0 0 255 
0.167 0.167 0.262272 255 0 0 255 
0.167 0.167 0.183137 255 0 0 255 
0.167 0.167 0.224261 255 0 0 255 
0.167 0.167 0.173355 255 0 0 255 
0.167 0.167 0.2677 255 0 0 255 
0.167 0.167 0.325907 255 0 0 255 
0.167 0.167 0.317879 255 0 0 255 
0.167 0.167 0.270577 255 0 0 255 
0.167 0.167 0.239643 255 0 0 255 
0.167 0.167 0.30328 255 0 0 255 
0.167 0.167 0.265005 255 0 0 255 
0.167 0.167 0.212444 255 0 0 255 
0.167 0.167 0.312904 255 0 0 255 
0.167 0.167 0.23422 255 0 0 255 
0.167 0.167 0.194568 255 0 0 255 
0.167 0.167 0.186992 255 0 0 255 
0.167 0.167 0.197891 255 0 0 255 
0.167 0.167 0.245871 255 0 0 255 
0.167 0.167 0.273756 255 0 0 255 
0.167 0.167 0.204809 255 0 0 255 
0.167 0.167 0.262616 255 0 0 255 
0.167 0.167 0.254363 255 0 0 255 
0.167 0.167 0.198725 255 0 0 255 
0.167 0.167 0.291235 255 0 0 255 
0.167 0.167 0.30606 255 0 0 255 
0.167 0.167 0.178382 255 0 0 255 
0.167 0.167 0.32012 255 0 0 255 
0.167 0.167 0.204887 255 0 0 255 
0.167 0.167 0.306422 255 0 0 255 
0.167 0.167 0.298743 255 0 0 255 
0.167 0.167 0.22316 255 0 0 255 
0.167 0.167 0.234695 255 0 0 255 
0.167 0.167 0.314879 255 0 0 255 
0.167 0.167 0.280421 255 0 0 255 
0.167 0.167 0.24105 255 0 0 255 
0.167 0.167 0.24858 255 0 0 255 
0.167 0.167 0.272328 255 0 0 255 
0.167 0.167 0.224929 255 0 0 255 
0.167 0.167 0.185157 255 0 0 255 
0.167 0.167 0.17797 255 0 0 255 
0.167 0.167 0.194209 255 0 0 255 
0.167 0.167 0.283163 255 0 0 255 
0.167 0.167 0.223415 255 0 0 255 
0.167 0.167 0.173113 255 0 0 255 
0.167 0.167 0.183382 255 0 0 255 
0.167 0.167 0.250983 255 0 0 255 
0.167 0.167 0.193104 255 0 0 255 
0.167 0.167 0.214273 255 0 0 255 
0.167 0.167 0.329854 255 0 0 255 
0.167 0.167 0.29986 255 0 0 255 
0.167 0.167 0.252082 255 0 0 255 
0.167 0.167 0.25847 255 0 0 255 
0.167 0.167 0.220223 255 0 0 255 
0.167 0.167 0.283807 255 0 0 255 
0.167 0.167 0.215705 255 0 0 255 
0.167 0.167 0.192283 255 0 0 255 
0.167 0.167 0.295189 255 0 0 255 
0.167 0.167 0.201825 255 0 0 255 
0.167 0.167 0.230171 255 0 0 255 
0.167 0.167 0.267611 255 0 0 255 
0.167 0.167 0.333568 255 0 0 255 
0.167 0.167 0.286331 255 0 0 255 
0.167 0.167 0.168306 255 0 0 255 
0.167 0.167 0.314447 255 0 0 255 
0.167 0.167 0.232752 255 0 0 255 
0.167 0.167 0.242356 255 0 0 255 
0.167 0.167 0.229027 255 0 0 255 
0.167 0.167 0.17108 255 0 0 255 
0.167 0.167 0.300284 255 0 0 255 
0.167 0.167 0.247184 255 0 0 255 
0.167 0.167 0.18205 255 0 0 255 
0.167 0.167 0.327493 255 0 0 255 
0.167 0.167 0.196347 255 0 0 255 
0.167 0.167 0.238465 255 0 0 255 
0.167 0.167 0.333605 255 0 0 255 
0.167 0.167 0.212729 255 0 0 255 
0.167 0.167 0.322448 255 0 0 255 
0.167 0.167 0.19271 255 0 0 255 
0.167 0.167 0.260002 255 0 0 255 
0.167 0.167 0.318301 255 0 0 255 
0.167 0.167 0.32557 255 0 0 255 
0.167 0.333568 0.334 255 0 0 255 
0.167 0.168306 0.334 255 0 0 255 
0.167 0.333605 0.334 255 0 0 255 
0.167 0.333568 0.167 255 0 0 255 
0.167 0.168306 0.167 255 0 0 255 
0.167 0.333605 0.167 255 0 0 255 
0.333568 0.334 0.334 255 0 0 255 
0.168306 0.334 0.334 255 0 0 255 
0.333605 0.334 0.334 255 0 0 255 
0.333568 0.334 0.167 255 0 0 255 
0.333605 0.334 0.167 255 0 0 255 
0.333568 0.167 0.334 255 0 0 255 
0.168306 0.167 0.334 255 0 0 255 
0.333605 0.167 0.334 255 0 0 255 
0.333568 0.167 0.167 255 0 0 255 
0.168306 0.167 0.167 255 0 0 255 
0.333605 0.167 0.167 255 0 0 255 
